<?xml version="1.0" encoding="UTF-8"?>
<svg xmlns="http://www.w3.org/2000/svg" width="45" height="45" viewBox="0 0 45 45" fill="none">
  <circle cx="22.5" cy="22.5" r="22.5" fill="white"></circle>
  <path d="M32.8933 24.0949L32.8938 24.0954C32.9473 24.1489 32.9806 24.2153 32.9937 24.2849L32.3569 23.6481L29.3958 20.6871L28.6887 19.98L27.9816 20.6871L24.81 23.8587L24.1029 24.5658L24.81 25.2729L27.7711 28.2338L28.409 28.8717C28.3365 28.859 28.2681 28.8247 28.214 28.7706L24.7635 25.3159L24.0564 24.608L23.3489 25.3155L22.9234 25.7409L22.4343 26.2301L22.7195 26.8603C23.5652 28.7293 23.5789 30.8777 22.7493 32.7432L18.4886 28.4827L18.2245 28.2186L17.7815 27.7756L17.5174 27.5115L13.2568 23.251C15.1224 22.4214 17.2708 22.4351 19.1399 23.2808L19.7701 23.566L20.2592 23.0769L20.6804 22.6557L21.3871 21.9491L20.6808 21.2419L17.2323 17.7892C17.232 17.7889 17.2317 17.7886 17.2315 17.7884C17.176 17.7321 17.1421 17.6633 17.1289 17.5919L17.7663 18.2293L20.7274 21.1903L21.4345 21.8974L22.1416 21.1903L25.3132 18.0188L26.0203 17.3117L25.3132 16.6045L22.3521 13.6436L21.7148 13.0062C21.7859 13.0192 21.8536 13.0529 21.9128 13.1104L25.3601 16.5576L26.068 17.2655L26.7751 16.5569L28.8286 14.4992C28.8286 14.4991 28.8287 14.499 28.8288 14.4989C29.0013 14.3267 29.2833 14.3268 29.4557 14.4992L31.4971 16.5404C31.6695 16.7129 31.6695 16.9951 31.4971 17.1675L31.4963 17.1682L29.4421 19.2267L28.7369 19.9334L29.4424 20.6398L32.8933 24.0949ZM32.3569 25.0623L32.9926 24.4266C32.9787 24.4947 32.9453 24.5596 32.8923 24.6122L32.8895 24.615L28.7337 28.7706C28.6823 28.8221 28.6179 28.8556 28.5494 28.8697L29.1853 28.2338L32.3569 25.0623ZM23.1085 33.1025L23.108 33.102L23.1085 33.1025ZM15.7853 29.9492L15.9946 30.0055L16.051 30.2148C16.0566 30.2358 16.0621 30.2552 16.0668 30.2716L16.0791 30.3143C16.0807 30.3199 16.0821 30.3248 16.0833 30.3291C16.064 30.5188 15.9053 30.6652 15.7101 30.6652C15.5017 30.6652 15.3349 30.4983 15.3349 30.29C15.3349 30.0949 15.4812 29.9361 15.671 29.9168C15.6753 29.918 15.6802 29.9194 15.6858 29.921L15.7285 29.9333C15.7449 29.938 15.7643 29.9435 15.7853 29.9492ZM17.7663 16.8151L17.1295 17.452C17.143 17.3817 17.1766 17.3153 17.2294 17.2624L21.3852 13.1068C21.4391 13.0528 21.5041 13.0193 21.5753 13.0062L20.9379 13.6436L17.7663 16.8151Z" stroke="#E86F56" stroke-width="2"></path>
</svg>