<?xml version="1.0" encoding="UTF-8"?>
<svg xmlns="http://www.w3.org/2000/svg" width="31" height="31" viewBox="0 0 31 31" fill="none">
  <circle cx="15.5" cy="15.5" r="15.5" fill="#E86F56"></circle>
  <path d="M13.2311 6.41992C12.629 6.41992 12.0516 6.6591 11.6259 7.08485C11.2001 7.51059 10.9609 8.08803 10.9609 8.69012V20.0411C10.9609 20.6432 11.2001 21.2207 11.6259 21.6464C12.0516 22.0722 12.629 22.3113 13.2311 22.3113H20.0417C20.6438 22.3113 21.2213 22.0722 21.647 21.6464C22.0728 21.2207 22.3119 20.6432 22.3119 20.0411V8.69012C22.3119 8.08803 22.0728 7.51059 21.647 7.08485C21.2213 6.6591 20.6438 6.41992 20.0417 6.41992H13.2311ZM12.096 8.69012C12.096 8.38908 12.2156 8.10036 12.4285 7.88749C12.6414 7.67461 12.9301 7.55502 13.2311 7.55502H20.0417C20.3428 7.55502 20.6315 7.67461 20.8444 7.88749C21.0573 8.10036 21.1768 8.38908 21.1768 8.69012V20.0411C21.1768 20.3422 21.0573 20.6309 20.8444 20.8438C20.6315 21.0566 20.3428 21.1762 20.0417 21.1762H13.2311C12.9301 21.1762 12.6414 21.0566 12.4285 20.8438C12.2156 20.6309 12.096 20.3422 12.096 20.0411V8.69012Z" fill="white"></path>
  <path d="M8.68945 10.9606C8.68946 10.5621 8.79437 10.1707 8.99362 9.82556C9.19287 9.48045 9.47945 9.19388 9.82455 8.99463V20.609C9.82455 21.3616 10.1235 22.0834 10.6557 22.6156C11.1879 23.1478 11.9097 23.4467 12.6623 23.4467H19.7363C19.537 23.7918 19.2504 24.0784 18.9053 24.2777C18.5602 24.4769 18.1688 24.5818 17.7703 24.5818H12.6623C11.6086 24.5818 10.5981 24.1633 9.85308 23.4182C9.10802 22.6732 8.68945 21.6626 8.68945 20.609V10.9606Z" fill="white"></path>
</svg>
