<?xml version="1.0" encoding="UTF-8"?>
<svg xmlns="http://www.w3.org/2000/svg" width="92" height="92" viewBox="0 0 92 92" fill="none">
  <g filter="url(#filter0_b_1412_3186)">
    <path d="M43.2257 46.1394C40.4007 46.1394 40.3087 40.8445 40.3087 40.7569C40.3087 40.5362 40.2371 40.3188 40.1042 40.1404C39.9713 39.9587 39.7805 39.8224 39.5624 39.7478C39.3477 39.6732 39.1126 39.6602 38.8911 39.7154C38.6696 39.7705 38.4686 39.8873 38.3186 40.0496C36.8942 41.688 35.8821 43.6185 35.3676 45.6885C33.7285 53.5239 37.9915 57.1837 39.8896 58.3971C41.5661 59.4516 43.5324 60.0096 45.5429 59.9999C48.4905 59.9999 51.3257 58.9162 53.4555 56.976C55.0196 55.5322 56.1271 53.7023 56.6553 51.6875C57.1835 49.6727 57.1017 47.5605 56.4304 45.5879C55.6603 43.5049 54.3313 41.6523 52.5763 40.2053C50.2795 38.3462 48.7904 35.7441 48.3951 32.8987C48.361 32.6976 48.269 32.5126 48.1293 32.3601C47.9896 32.2076 47.8056 32.0973 47.6045 32.0389C47.4069 31.987 47.1956 31.987 46.9945 32.0389C46.7969 32.0908 46.6163 32.1947 46.4732 32.3407C46.3471 32.4704 43.4097 35.5689 44.8579 41.0456C45.4134 43.1448 45.3555 44.7378 44.7114 45.5327C44.34 45.9448 43.7913 46.1686 43.2257 46.1394Z" fill="url(#paint0_linear_1412_3186)"></path>
    <path d="M35.3676 45.6885C33.7285 53.5239 37.9915 57.1837 39.8896 58.3971C41.5661 59.4516 43.5324 60.0096 45.5429 59.9999C48.4905 59.9999 51.3257 58.9162 53.4555 56.976M35.3676 45.6885L35.8528 45.8091C35.8536 45.8061 35.8543 45.8031 35.8551 45.8M35.3676 45.6885L35.857 45.7908C35.8563 45.7939 35.8557 45.797 35.8551 45.8M35.3676 45.6885C35.8821 43.6185 36.8942 41.688 38.3186 40.0496M35.8551 45.8C35.0614 49.6036 35.7038 52.3538 36.7427 54.2896C37.7873 56.236 39.2539 57.3971 40.1574 57.9749M35.8551 45.8C36.3501 43.8147 37.3216 41.9606 38.6902 40.3842M40.1574 57.9749C40.1569 57.9745 40.1563 57.9742 40.1558 57.9739L39.8896 58.3971L40.1589 57.9758C40.1584 57.9755 40.1579 57.9752 40.1574 57.9749ZM40.1574 57.9749C41.7521 58.9774 43.6243 59.5092 45.5405 59.4999L45.5429 59.4999C48.3686 59.4999 51.0825 58.461 53.1177 56.6073M53.1177 56.6073C53.1173 56.6078 53.1168 56.6082 53.1164 56.6086L53.4555 56.976M53.1177 56.6073C53.1181 56.607 53.1184 56.6067 53.1188 56.6064L53.4555 56.976M53.1177 56.6073C54.6127 55.2269 55.6684 53.4804 56.1716 51.5607C56.6741 49.6439 56.5973 47.6342 55.9591 45.7551M53.4555 56.976C55.0196 55.5322 56.1271 53.7023 56.6553 51.6875C57.1835 49.6727 57.1017 47.5605 56.4304 45.5879M56.4304 45.5879L55.9614 45.7613C55.9607 45.7592 55.9599 45.7572 55.9591 45.7551M56.4304 45.5879C55.6603 43.5049 54.3313 41.6523 52.5763 40.2053M56.4304 45.5879L55.957 45.749C55.9577 45.751 55.9584 45.7531 55.9591 45.7551M55.9591 45.7551C55.2205 43.7607 53.9462 41.9834 52.2599 40.5925M52.5763 40.2053L52.2617 40.5939C52.2611 40.5934 52.2605 40.5929 52.2599 40.5925M52.5763 40.2053C50.2795 38.3462 48.7904 35.7441 48.3951 32.8987M52.5763 40.2053L52.2582 40.5911C52.2588 40.5915 52.2593 40.592 52.2599 40.5925M52.2599 40.5925C49.871 38.6581 48.3161 35.9471 47.9011 32.9762M48.3951 32.8987L47.9021 32.9822C47.9018 32.9802 47.9014 32.9782 47.9011 32.9762M48.3951 32.8987C48.361 32.6976 48.269 32.5126 48.1293 32.3601C47.9896 32.2076 47.8056 32.0973 47.6045 32.0389M48.3951 32.8987L47.8999 32.9675C47.9003 32.9704 47.9007 32.9733 47.9011 32.9762M47.9011 32.9762C47.8828 32.8753 47.8359 32.7801 47.7606 32.6979C47.6883 32.6189 47.5878 32.5559 47.4713 32.5209M47.6045 32.0389L47.4775 32.5225C47.4754 32.522 47.4734 32.5215 47.4713 32.5209M47.6045 32.0389C47.4069 31.987 47.1956 31.987 46.9945 32.0389M47.6045 32.0389L47.465 32.5191C47.4671 32.5197 47.4692 32.5203 47.4713 32.5209M47.4713 32.5209C47.3596 32.4927 47.2379 32.4927 47.1206 32.5228M46.9945 32.0389L47.1216 32.5225C47.1212 32.5226 47.1209 32.5227 47.1206 32.5228M46.9945 32.0389C46.7969 32.0908 46.6163 32.1947 46.4732 32.3407M46.9945 32.0389L47.1195 32.5231C47.1199 32.523 47.1202 32.5229 47.1206 32.5228M47.1206 32.5228C47.0095 32.5521 46.9095 32.6101 46.831 32.6899M46.4732 32.3407L46.8318 32.6891C46.8316 32.6893 46.8313 32.6896 46.831 32.6899M46.4732 32.3407C46.3471 32.4704 43.4097 35.5689 44.8579 41.0456M46.4732 32.3407L46.8302 32.6907C46.8305 32.6904 46.8307 32.6902 46.831 32.6899M46.831 32.6899C46.7432 32.7806 43.9624 35.7033 45.3413 40.9178M44.8579 41.0456L45.3413 40.9177C45.3413 40.9177 45.3413 40.9178 45.3413 40.9178M44.8579 41.0456C45.4134 43.1448 45.3555 44.7378 44.7114 45.5327M44.8579 41.0456L45.3413 40.9178M45.3413 40.9178C45.6271 41.9979 45.7619 42.9717 45.7342 43.7951C45.7068 44.6109 45.5176 45.3319 45.0999 45.8475L45.0916 45.8577L45.0828 45.8675C44.6108 46.3911 43.9206 46.6721 43.2129 46.6394M44.7114 45.5327C44.34 45.9448 43.7913 46.1686 43.2257 46.1394M44.7114 45.5327L44.7114 45.5327L44.7114 45.5327ZM43.2129 46.6394C43.2171 46.6394 43.2214 46.6394 43.2257 46.6394V46.1394M43.2129 46.6394C43.2085 46.6392 43.2042 46.639 43.1999 46.6388L43.2257 46.1394M43.2129 46.6394C42.3312 46.6354 41.6672 46.2112 41.1906 45.6267C40.723 45.0533 40.4232 44.3144 40.2266 43.6166C39.8326 42.2185 39.8087 40.8208 39.8087 40.7569C39.8087 40.6436 39.7717 40.531 39.7032 40.4391L39.7007 40.4356L39.7007 40.4356C39.632 40.3417 39.528 40.2645 39.4006 40.2209L39.3983 40.2201C39.2721 40.1763 39.136 40.1697 39.0119 40.2006C38.8829 40.2327 38.7707 40.2991 38.6902 40.3842M43.2257 46.1394C40.4007 46.1394 40.3087 40.8445 40.3087 40.7569C40.3087 40.5362 40.2371 40.3188 40.1042 40.1404C39.9713 39.9587 39.7805 39.8224 39.5624 39.7478C39.3477 39.6732 39.1126 39.6602 38.8911 39.7154C38.6696 39.7705 38.4686 39.8873 38.3186 40.0496M38.6902 40.3842C38.6921 40.382 38.6941 40.3798 38.696 40.3776L38.3186 40.0496M38.6902 40.3842C38.6887 40.3858 38.6873 40.3873 38.6858 40.3889L38.3186 40.0496" stroke="white"></path>
  </g>
  <circle cx="46.5" cy="46.5" r="34" stroke="#E65E2E" stroke-width="3"></circle>
  <circle cx="46" cy="46" r="44.5" stroke="#E65E2E" stroke-width="3"></circle>
  <defs>
    <filter id="filter0_b_1412_3186" x="33.1818" y="30.1818" width="25.6364" height="31.6364" filterUnits="userSpaceOnUse" color-interpolation-filters="sRGB">
      <feFlood flood-opacity="0" result="BackgroundImageFix"></feFlood>
      <feGaussianBlur in="BackgroundImageFix" stdDeviation="0.909091"></feGaussianBlur>
      <feComposite in2="SourceAlpha" operator="in" result="effect1_backgroundBlur_1412_3186"></feComposite>
      <feBlend mode="normal" in="SourceGraphic" in2="effect1_backgroundBlur_1412_3186" result="shape"></feBlend>
    </filter>
    <linearGradient id="paint0_linear_1412_3186" x1="45" y1="32.5" x2="45" y2="61.5" gradientUnits="userSpaceOnUse">
      <stop stop-color="#FFA14E"></stop>
      <stop offset="1" stop-color="#DC3F1F"></stop>
    </linearGradient>
  </defs>
</svg>
