<svg width="17" height="15" viewBox="0 0 17 15" fill="none" xmlns="http://www.w3.org/2000/svg">
<path fill-rule="evenodd" clip-rule="evenodd" d="M17 7.5C17 7.78411 16.8881 8.05658 16.6888 8.25748C16.4896 8.45837 16.2194 8.57124 15.9376 8.57124H3.62887L8.19073 13.169C8.28951 13.2686 8.36786 13.3868 8.42132 13.517C8.47478 13.6471 8.50229 13.7866 8.50229 13.9274C8.50229 14.0683 8.47478 14.2077 8.42132 14.3379C8.36786 14.468 8.28951 14.5862 8.19073 14.6858C8.09196 14.7854 7.9747 14.8645 7.84564 14.9184C7.71658 14.9723 7.57826 15 7.43857 15C7.29888 15 7.16056 14.9723 7.0315 14.9184C6.90244 14.8645 6.78518 14.7854 6.6864 14.6858L0.312114 8.25844C0.213179 8.15893 0.134683 8.04071 0.0811257 7.91057C0.027568 7.78042 0 7.64091 0 7.5C0 7.3591 0.027568 7.21958 0.0811257 7.08943C0.134683 6.95929 0.213179 6.84107 0.312114 6.74157L6.6864 0.314154C6.88589 0.113005 7.15645 0 7.43857 0C7.72069 0 7.99125 0.113005 8.19073 0.314154C8.39022 0.515303 8.50229 0.788121 8.50229 1.07259C8.50229 1.35706 8.39022 1.62987 8.19073 1.83102L3.62887 6.42877H15.9376C16.2194 6.42877 16.4896 6.54163 16.6888 6.74252C16.8881 6.94342 17 7.21589 17 7.5Z" fill="#333333"/>
</svg>
