<svg width="18" height="24" viewBox="0 0 18 24" fill="none" xmlns="http://www.w3.org/2000/svg">
<path d="M8.99798 2.9386C5.70772 2.9386 3.03376 5.67858 3.03376 9.05008V11.9938C3.03376 12.6151 2.77532 13.5624 2.46716 14.0921L1.32402 16.0375C0.618257 17.2395 1.10533 18.5738 2.39758 19.022C6.68188 20.4887 11.3041 20.4887 15.5884 19.022C16.7912 18.6146 17.3181 17.158 16.662 16.0375L15.5189 14.0921C15.2206 13.5624 14.9622 12.6151 14.9622 11.9938V9.05008C14.9622 5.68877 12.2783 2.9386 8.99798 2.9386Z" stroke="#4F4F4F" stroke-width="2" stroke-miterlimit="10" stroke-linecap="round"/>
<path d="M10.837 3.23409C9.63489 2.88329 8.36111 2.88329 7.15903 3.23409C7.44731 2.48035 8.16301 1.95068 8.998 1.95068C9.83299 1.95068 10.5487 2.48035 10.837 3.23409Z" stroke="#4F4F4F" stroke-width="2" stroke-miterlimit="10" stroke-linecap="round" stroke-linejoin="round"/>
<path d="M11.9801 19.3887C11.9801 21.0694 10.6381 22.4445 8.99798 22.4445C8.18287 22.4445 7.4274 22.0982 6.89062 21.5481C6.33213 20.975 6.01765 20.1987 6.01587 19.3887" stroke="#4F4F4F" stroke-width="2" stroke-miterlimit="10"/>
</svg>
