<svg width="22" height="17" viewBox="0 0 22 17" fill="none" xmlns="http://www.w3.org/2000/svg">
<path d="M12.3743 13.4009L10.6773 15.1062H13.0831H21V15.3606H7.7C4.02295 15.3606 1 12.2985 1 8.47044C1 4.64242 4.02295 1.58032 7.7 1.58032C11.377 1.58032 14.4 4.64242 14.4 8.47044C14.4 10.4053 13.621 12.148 12.3743 13.4009ZM6.5 8.47044C6.5 7.7562 7.0617 7.21612 7.7 7.21612C8.3383 7.21612 8.9 7.7562 8.9 8.47044C8.9 9.18469 8.3383 9.72476 7.7 9.72476C7.0617 9.72476 6.5 9.18469 6.5 8.47044ZM3.4 8.47044C3.4 10.8665 5.30299 12.8519 7.7 12.8519C10.097 12.8519 12 10.8665 12 8.47044C12 6.07443 10.097 4.08896 7.7 4.08896C5.30299 4.08896 3.4 6.07443 3.4 8.47044Z" stroke="#4F4F4F" stroke-width="2"/>
</svg>
