<svg width="18" height="24" viewBox="0 0 18 24" fill="none" xmlns="http://www.w3.org/2000/svg">
<g clip-path="url(#clip0_435_215)">
<path d="M15.75 3H13.2244C12.6047 1.25625 10.9547 0 9 0C7.04531 0 5.39531 1.25625 4.77656 3H2.25C1.00781 3 0 4.00688 0 5.25V21.75C0 22.9922 1.00781 24 2.25 24H15.75C16.9922 24 18 22.9931 18 21.75V5.25C18 4.00688 16.9922 3 15.75 3ZM9 3C9.82828 3 10.5 3.67172 10.5 4.5C10.5 5.32828 9.82828 6 9 6C8.17172 6 7.5 5.32969 7.5 4.5C7.5 3.67172 8.17031 3 9 3ZM4.5 18.375C3.87891 18.375 3.375 17.8711 3.375 17.25C3.375 16.6289 3.87891 16.125 4.5 16.125C5.12109 16.125 5.625 16.6289 5.625 17.25C5.625 17.8711 5.12344 18.375 4.5 18.375ZM5.25 13.5C5.05781 13.5 4.86562 13.425 4.72031 13.2797L3.22031 11.7797C2.92734 11.4867 2.92734 11.0119 3.22031 10.7194C3.51328 10.4269 3.98813 10.4264 4.28062 10.7194L5.25 11.6906L7.71984 9.22078C8.01281 8.92781 8.48766 8.92781 8.78016 9.22078C9.07266 9.51375 9.07312 9.98859 8.78016 10.2811L5.78016 13.2811C5.63438 13.425 5.44219 13.5 5.25 13.5ZM14.25 18H8.25C7.8375 18 7.5 17.6625 7.5 17.25C7.5 16.8375 7.8375 16.5 8.25 16.5H14.25C14.6625 16.5 15 16.8375 15 17.25C15 17.6625 14.6625 18 14.25 18ZM14.25 13.5H9.75C9.3375 13.5 9 13.1625 9 12.75C9 12.3375 9.3375 12 9.75 12H14.25C14.6625 12 15 12.3375 15 12.75C15 13.1625 14.6625 13.5 14.25 13.5Z" />
</g>
<defs>
<clipPath id="clip0_435_215">
<rect width="18" height="24" />
</clipPath>
</defs>
</svg>
