<svg width="172" height="161" viewBox="0 0 172 161" fill="none" xmlns="http://www.w3.org/2000/svg">
<path d="M75.7865 16.5589C80.4745 8.95838 91.5255 8.95838 96.2135 16.5589L149.191 102.45C154.122 110.445 148.371 120.75 138.978 120.75H33.0224C23.629 120.75 17.8777 110.445 22.809 102.45L75.7865 16.5589Z" fill="white"/>
<g clip-path="url(#clip0_402_10293)">
<path d="M79.9457 95.8333C80.6204 96.1231 81.3322 95.4955 80.9191 94.9761C78.6767 92.1564 76.5533 87.4118 79.9364 81.3013C85.5782 71.1115 89.0112 65.8339 89.0112 65.8339C89.0112 65.8339 90.8372 71.9928 95.787 77.469C100.551 82.7393 103.158 89.3678 98.9547 94.8897C98.5602 95.408 99.2559 96.0194 99.9263 95.7423C105.13 93.5918 110.966 89.278 111.625 80.6937C111.868 78.0706 111.503 74.3982 109.683 69.7639C107.341 63.8905 104.463 61.1498 102.798 59.9729C102.3 59.6208 101.525 59.9328 101.566 60.4665C102.051 66.804 99.1003 68.4122 97.4206 64.7878C96.7498 63.3402 96.3586 60.8364 96.3586 57.7872C96.3586 52.7109 94.5356 47.4852 90.5167 43.2389C89.4716 42.1346 88.2487 41.1027 86.8456 40.2228C86.3377 39.9042 85.6014 40.2244 85.6479 40.7426C85.9565 44.1839 85.6769 54.0465 74.9672 65.8292C65.2566 76.7589 69.0194 85.1529 70.3546 87.4264C72.9074 91.7817 76.4682 94.3395 79.9457 95.8333Z" fill="#E86F56"/>
</g>
<path fill-rule="evenodd" clip-rule="evenodd" d="M86.6583 100.81C88.8134 102.035 90.6499 103.036 92.0028 104.441C93.3216 105.81 93.8897 106.445 91.711 105.297C89.6823 104.227 87.7635 103.169 85.2726 102.388C85.1491 102.46 85.0188 102.533 84.878 102.611C68.9274 111.338 53.5552 108.67 46.5748 85.8636C61.5124 85.5117 79.5966 77.6353 86.2801 99.027C86.5318 99.8212 86.6851 100.371 86.6583 100.81ZM80.6611 99.0247C72.9188 92.2402 60.6378 93.1104 52.7885 89.3182C63.0537 97.6298 66.1279 96.0921 80.6611 99.0247Z" fill="#E86F56"/>
<defs>
<clipPath id="clip0_402_10293">
<rect width="71.6667" height="59.2184" fill="white" transform="translate(50.4783 40.0957)"/>
</clipPath>
</defs>
</svg>
