<svg width="24" height="22" viewBox="0 0 24 22" fill="none" xmlns="http://www.w3.org/2000/svg">
<path d="M17 5.42187C17 7.4062 16.2975 7.96073 12.5125 13.3584C12.2643 13.7112 11.7337 13.7112 11.4854 13.3584C7.70417 7.96073 7 7.40702 7 5.42187C7 2.70377 9.2375 0.5 12 0.5C14.7625 0.5 17 2.70377 17 5.42187Z" />
<path d="M24 7.71869V18.1162C24 18.3845 23.8341 18.626 23.5808 18.7256L16 21.4999L8 18.8749L0.954167 21.452C0.47875 21.623 0 21.3072 0 20.8068V10.4421C0 10.1738 0.166 9.9323 0.419167 9.83263L6.1525 7.78103C6.58458 8.73669 7.3475 9.81951 8.65333 11.6509C9.14375 12.3387 9.71833 13.1442 10.3904 14.1032C10.7542 14.6257 11.3583 14.9374 12 14.9374C12.6417 14.9374 13.2442 14.6271 13.6096 14.1073C14.2829 13.1463 16.5429 9.97291 16.9604 9.33716L23.0854 7.10919C23.525 6.90248 24 7.25521 24 7.71869Z" />
</svg>
