<svg width="30" height="30" viewBox="0 0 30 30" fill="none" xmlns="http://www.w3.org/2000/svg">
<g filter="url(#filter0_b_771_9373)">
<path d="M12.2257 15.1395C9.40071 15.1395 9.3087 9.84446 9.3087 9.75686C9.3087 9.53623 9.23714 9.31885 9.10424 9.1404C8.97134 8.95871 8.78051 8.82244 8.56242 8.74782C8.34774 8.6732 8.11261 8.66022 7.89111 8.71538C7.66961 8.77053 7.46856 8.88733 7.31862 9.04956C5.89422 10.688 4.88214 12.6185 4.36758 14.6885C2.72849 22.5239 6.99149 26.1837 8.88956 27.3971C10.5661 28.4516 12.5324 29.0096 14.5429 28.9999C17.4905 28.9999 20.3257 27.9162 22.4555 25.976C24.0196 24.5322 25.1271 22.7023 25.6553 20.6875C26.1835 18.6727 26.1017 16.5605 25.4304 14.5879C24.6603 12.5049 23.3313 10.6523 21.5763 9.20529C19.2795 7.34621 17.7904 4.74413 17.3951 1.89872C17.361 1.69756 17.269 1.51263 17.1293 1.36014C16.9896 1.20765 16.8056 1.09733 16.6045 1.03893C16.4069 0.987022 16.1956 0.987022 15.9945 1.03893C15.7969 1.09085 15.6163 1.19467 15.4732 1.34067C15.3471 1.47045 12.4097 4.56893 13.8579 10.0456C14.4134 12.1448 14.3555 13.7378 13.7114 14.5327C13.34 14.9448 12.7913 15.1687 12.2257 15.1395Z" fill="url(#paint0_linear_771_9373)"/>
<path d="M8.88956 27.3971C10.5661 28.4516 12.5324 29.0096 14.5429 28.9999C17.4905 28.9999 20.3257 27.9162 22.4555 25.976M8.88956 27.3971L9.15887 26.9758C9.15833 26.9755 9.15779 26.9751 9.15724 26.9748M8.88956 27.3971C6.99149 26.1837 2.72849 22.5239 4.36758 14.6885M8.88956 27.3971L9.15575 26.9739C9.15625 26.9742 9.15675 26.9745 9.15724 26.9748M9.15724 26.9748C10.7519 27.9773 12.6242 28.5092 14.5405 28.4999L14.5429 28.4999C17.3686 28.4999 20.0825 27.461 22.1177 25.6073M9.15724 26.9748C8.25374 26.3969 6.78728 25.2359 5.74269 23.2896C4.70377 21.3538 4.06136 18.6036 4.85507 14.8M22.1177 25.6073C22.1173 25.6078 22.1168 25.6082 22.1164 25.6086L22.4555 25.976M22.1177 25.6073C22.1181 25.607 22.1184 25.6067 22.1188 25.6064L22.4555 25.976M22.1177 25.6073C23.6127 24.2269 24.6684 22.4804 25.1716 20.5607C25.6741 18.6439 25.5973 16.6342 24.9591 14.7551M22.4555 25.976C24.0196 24.5322 25.1271 22.7023 25.6553 20.6875C26.1835 18.6727 26.1017 16.5605 25.4304 14.5879M25.4304 14.5879L24.9614 14.7613C24.9607 14.7592 24.9599 14.7572 24.9591 14.7551M25.4304 14.5879C24.6603 12.5049 23.3313 10.6523 21.5763 9.20529M25.4304 14.5879L24.957 14.749C24.9577 14.751 24.9584 14.7531 24.9591 14.7551M24.9591 14.7551C24.2205 12.7608 22.9463 10.9835 21.26 9.59254M21.5763 9.20529L21.2617 9.59393C21.2612 9.59347 21.2606 9.59301 21.26 9.59254M21.5763 9.20529C19.2795 7.34621 17.7904 4.74413 17.3951 1.89872M21.5763 9.20529L21.2582 9.59107C21.2588 9.59156 21.2594 9.59205 21.26 9.59254M21.26 9.59254C18.871 7.6581 17.316 4.947 16.901 1.97601M17.3951 1.89872L16.9021 1.98223C16.9018 1.98016 16.9014 1.97808 16.901 1.97601M17.3951 1.89872C17.361 1.69756 17.269 1.51263 17.1293 1.36014C16.9896 1.20765 16.8056 1.09733 16.6045 1.03893M17.3951 1.89872L16.8999 1.96752C16.9003 1.97035 16.9006 1.97318 16.901 1.97601M16.901 1.97601C16.8827 1.87518 16.8359 1.78003 16.7606 1.69791C16.6883 1.61893 16.5878 1.55594 16.4713 1.52093M16.6045 1.03893L16.4775 1.52253C16.4754 1.52199 16.4734 1.52145 16.4713 1.52093M16.6045 1.03893C16.4069 0.987022 16.1956 0.987022 15.9945 1.03893M16.6045 1.03893L16.465 1.51909C16.4671 1.51969 16.4692 1.52031 16.4713 1.52093M16.4713 1.52093C16.3596 1.49275 16.2379 1.49269 16.1206 1.52279M15.9945 1.03893L16.1216 1.52253C16.1212 1.52262 16.1209 1.5227 16.1206 1.52279M15.9945 1.03893C15.7969 1.09085 15.6163 1.19467 15.4732 1.34067M15.9945 1.03893L16.1195 1.52306C16.1199 1.52297 16.1202 1.52288 16.1206 1.52279M16.1206 1.52279C16.0096 1.55213 15.9095 1.61009 15.831 1.68986M15.4732 1.34067L15.8318 1.68908C15.8316 1.68931 15.8313 1.68957 15.831 1.68986M15.4732 1.34067C15.3471 1.47045 12.4097 4.56893 13.8579 10.0456M15.4732 1.34067L15.8302 1.69069C15.8305 1.69041 15.8308 1.69013 15.831 1.68986M15.831 1.68986C15.7445 1.77929 12.9621 4.70207 14.3413 9.91771M13.8579 10.0456L14.3413 9.91771M13.8579 10.0456C14.4134 12.1448 14.3555 13.7378 13.7114 14.5327C13.34 14.9448 12.7913 15.1687 12.2257 15.1395M13.8579 10.0456L14.3413 9.91779C14.3413 9.91776 14.3413 9.91774 14.3413 9.91771M14.3413 9.91771C14.6271 10.9978 14.7619 11.9716 14.7342 12.7951C14.7068 13.6109 14.5176 14.3319 14.0999 14.8475L14.0916 14.8577L14.0828 14.8675C13.6108 15.3911 12.9206 15.6721 12.2129 15.6394M12.2129 15.6394C12.2171 15.6394 12.2214 15.6395 12.2257 15.6395V15.1395M12.2129 15.6394C12.2085 15.6392 12.2042 15.639 12.1999 15.6388L12.2257 15.1395M12.2129 15.6394C11.3312 15.6354 10.6672 15.2112 10.1906 14.6267C9.72303 14.0533 9.4232 13.3144 9.22657 12.6166C8.83257 11.2185 8.8087 9.82083 8.8087 9.75686C8.8087 9.64356 8.77169 9.53098 8.70323 9.43906L8.70066 9.4356L8.70068 9.43559C8.63199 9.34168 8.52797 9.26449 8.40055 9.22089L8.39826 9.22011C8.2721 9.17625 8.13596 9.16967 8.01193 9.20056C7.88292 9.23269 7.77067 9.29913 7.69024 9.38419M12.2257 15.1395C9.40071 15.1395 9.3087 9.84446 9.3087 9.75686C9.3087 9.53623 9.23714 9.31885 9.10424 9.1404C8.97134 8.95871 8.78051 8.82244 8.56242 8.74782C8.34774 8.6732 8.11261 8.66022 7.89111 8.71538C7.66961 8.77053 7.46856 8.88733 7.31862 9.04956M7.69024 9.38419C7.69214 9.382 7.69405 9.3798 7.69596 9.3776L7.31862 9.04956M7.69024 9.38419C6.32156 10.9606 5.35013 12.8147 4.85507 14.8M7.69024 9.38419C7.68875 9.38577 7.68727 9.38735 7.68581 9.38893L7.31862 9.04956M7.31862 9.04956C5.89422 10.688 4.88214 12.6185 4.36758 14.6885M4.36758 14.6885L4.85699 14.7908C4.85635 14.7939 4.85571 14.797 4.85507 14.8M4.36758 14.6885L4.85281 14.8091C4.85356 14.8061 4.85431 14.8031 4.85507 14.8" stroke="white"/>
</g>
<defs>
<filter id="filter0_b_771_9373" x="2.18182" y="-0.818182" width="25.6364" height="31.6364" filterUnits="userSpaceOnUse" color-interpolation-filters="sRGB">
<feFlood flood-opacity="0" result="BackgroundImageFix"/>
<feGaussianBlur in="BackgroundImageFix" stdDeviation="0.909091"/>
<feComposite in2="SourceAlpha" operator="in" result="effect1_backgroundBlur_771_9373"/>
<feBlend mode="normal" in="SourceGraphic" in2="effect1_backgroundBlur_771_9373" result="shape"/>
</filter>
<linearGradient id="paint0_linear_771_9373" x1="14" y1="1.5" x2="14" y2="30.5" gradientUnits="userSpaceOnUse">
<stop stop-color="#FFA14E"/>
<stop offset="1" stop-color="#DC3F1F"/>
</linearGradient>
</defs>
</svg>
