<svg width="22" height="28" viewBox="0 0 22 28" fill="none" xmlns="http://www.w3.org/2000/svg">
<g filter="url(#filter0_b_758_9657)">
<path d="M8.22567 14.1394C5.40071 14.1394 5.3087 8.84446 5.3087 8.75685C5.3087 8.53623 5.23714 8.31885 5.10424 8.1404C4.97134 7.95871 4.78051 7.82244 4.56242 7.74782C4.34774 7.6732 4.11261 7.66022 3.89111 7.71538C3.66961 7.77053 3.46856 7.88733 3.31862 8.04956C1.89422 9.68802 0.882138 11.6185 0.36758 13.6885C-1.27151 21.5239 2.99149 25.1837 4.88956 26.3971C6.56613 27.4516 8.53236 28.0096 10.5429 27.9999C13.4905 27.9999 16.3257 26.9162 18.4555 24.976C20.0196 23.5322 21.1271 21.7023 21.6553 19.6875C22.1835 17.6727 22.1017 15.5605 21.4304 13.5879C20.6603 11.5049 19.3313 9.65233 17.5763 8.20529C15.2795 6.34621 13.7904 3.74413 13.3951 0.898721C13.361 0.697563 13.269 0.512628 13.1293 0.360137C12.9896 0.207647 12.8056 0.0973344 12.6045 0.0389338C12.4069 -0.0129779 12.1956 -0.0129779 11.9945 0.0389338C11.7969 0.0908455 11.6163 0.194669 11.4732 0.34067C11.3471 0.47045 8.40968 3.56893 9.85794 9.04561C10.4134 11.1448 10.3555 12.7378 9.71141 13.5327C9.33997 13.9448 8.79134 14.1686 8.22567 14.1394Z" fill="url(#paint0_linear_758_9657)"/>
</g>
<defs>
<filter id="filter0_b_758_9657" x="-1.81818" y="-1.81818" width="25.6364" height="31.6364" filterUnits="userSpaceOnUse" color-interpolation-filters="sRGB">
<feFlood flood-opacity="0" result="BackgroundImageFix"/>
<feGaussianBlur in="BackgroundImageFix" stdDeviation="0.909091"/>
<feComposite in2="SourceAlpha" operator="in" result="effect1_backgroundBlur_758_9657"/>
<feBlend mode="normal" in="SourceGraphic" in2="effect1_backgroundBlur_758_9657" result="shape"/>
</filter>
<linearGradient id="paint0_linear_758_9657" x1="10" y1="0.5" x2="10" y2="29.5" gradientUnits="userSpaceOnUse">
<stop stop-color="#FFA14E"/>
<stop offset="1" stop-color="#DC3F1F"/>
</linearGradient>
</defs>
</svg>
