<svg width="66" height="81" viewBox="0 0 66 81" fill="none" xmlns="http://www.w3.org/2000/svg">
<path d="M50.8039 53.6885L46.8267 47.106L44.9365 38.4792L54.8717 30.4233L53.6099 28.219L51.1265 31.4185L51.239 28.8926L50.1267 28.8134L49.9873 31.8563L44.0392 37.2584L43.2327 34.5203L41.7121 34.6887L41.9187 37.6979L39.0321 35.5829L43.9787 31.5734L42.7286 29.3658L40.2469 32.5653L40.3595 30.0394L39.2455 29.9602L39.1043 33.0064L37.5031 34.4614L34.9155 32.5653L34.0653 30.4805L33.8099 30.5412L34.2434 32.1055L31.7432 30.4132L29.1707 33.7272L29.2816 31.2013L28.1659 31.1221L28.0298 34.165L26.5176 35.5357L24.0275 33.7137L23.1874 31.6307L22.932 31.6896L23.305 33.0704L20.0168 31.7351L19.1346 33.7019L25.0608 36.8559L22.0818 39.562L21.2753 36.8323L19.763 36.9906L19.9697 39.9998L12.9614 34.879L12.1213 32.7959L11.8642 32.8566L12.2372 34.2492L8.9557 32.902L8.06517 34.8739L19.506 40.958L20.2217 46.8517L19.3967 53.9091L17.6123 58.6662L15.596 59.4274L16.1001 61.347L19.7681 59.9174L22.6615 49.3086L26.81 59.749L31.8507 57.7956L31.7163 54.7645L33.7477 48.1854L37.8811 58.5803L42.9218 56.6253L42.8009 53.8704L42.8109 53.83L44.6189 46.9881L48.7708 57.4285L53.8115 55.4701L53.6956 52.8314L50.8039 53.6885ZM31.2861 45.7302L30.4628 52.7522L29.2867 55.8692L28.8464 56.0039L24.8676 49.4181L22.9757 40.7946L26.7293 37.7501L30.567 39.791L31.2912 45.6999L31.2861 45.7302ZM33.1512 38.4001L32.3464 35.6687L30.8241 35.8287L31.0308 38.8379L28.0668 36.669L31.9028 33.5605L36.0496 35.7647L33.1512 38.4001ZM42.1725 44.5784L41.3508 51.6038L41.3391 51.6341L40.2469 54.5439L39.8218 54.6719L35.9371 48.2528L35.9287 48.209L34.0468 39.6209L37.7181 36.6488L41.4584 38.6375L42.1758 44.5313L42.1725 44.5784ZM41.3021 36.5696L41.1626 34.5489L39.9226 35.5593L41.3021 36.5696ZM28.9506 36.6471L30.4141 37.7181L30.2662 35.5812L28.9506 36.6471ZM31.9633 34.2054L30.6023 35.3084L32.7345 35.0912L33.4251 37.4301L35.1188 35.8927L31.9633 34.2054ZM26.7949 38.395L23.5738 41.0051L23.7015 41.5861L30.1621 40.9125L30.068 40.1413L26.7949 38.395ZM37.7803 37.2988L34.645 39.8382L34.7727 40.4208L41.0484 39.7607L40.9543 38.9895L37.7803 37.2988ZM31.1719 14.8637C31.0526 13.749 29.9083 12.8834 28.7238 13.0114C28.1353 13.0728 27.5934 13.3601 27.2116 13.813C27.0305 14.0188 26.8926 14.2591 26.806 14.5194C26.7194 14.7798 26.6859 15.0549 26.7075 15.3285C26.7639 15.9573 27.0622 16.5394 27.5392 16.9518C27.9244 17.2773 28.4099 17.4593 28.9136 17.4671C28.9136 17.4671 29.0497 17.4671 29.1758 17.4519C29.3018 17.4368 29.4547 17.4098 29.4547 17.4098C30.5737 17.164 31.303 16.1132 31.1719 14.8637ZM27.6064 5.11714L27.0116 7.75586L28.7187 7.57736L27.6064 5.11714ZM15.3406 7.64304C16.0665 7.56389 16.8159 7.47464 16.7151 6.51817C16.6075 5.50781 15.9254 5.58527 15.134 5.6762L14.7878 5.70988L14.9945 7.68513L15.3406 7.64304ZM26.1648 22.0491C25.8774 21.9481 25.4927 21.9885 25.1213 22.0272L24.7735 22.0626L24.9819 24.0361L25.328 24.0008C26.0522 23.925 26.7999 23.8442 26.6991 22.8776C26.6369 22.4128 26.4689 22.1501 26.153 22.0407L26.1648 22.0491ZM60.5039 18.9254L60.4485 18.3882L60.267 16.6437L60.2099 16.1065L59.6739 16.1621L54.5172 16.7076C53.7174 15.9886 52.3144 15.5104 51.2458 15.4868C51.5079 13.3499 50.3956 9.40948 45.9412 9.40443C45.7648 7.7205 45.1566 5.86817 44.1283 4.57323L43.9905 3.25471L45.1498 3.13346L45.6858 3.07621L45.6287 2.53903L45.4456 0.796162L45.3901 0.258987L44.8541 0.316241L39.5362 0.866888L37.4913 1.0757L36.9553 1.13126L37.0124 1.66844L37.1468 2.95328C36.733 3.10808 36.3285 3.28688 35.9354 3.48877L34.1594 1.64318L33.9762 1.4529L33.7158 1.47984L31.6642 1.69538L31.1349 1.74927L31.1904 2.28813L31.3433 3.80367C30.8029 3.75615 30.2588 3.77141 29.7218 3.84913L28.9641 2.33359L28.796 1.99681L28.4247 2.03554L26.1799 2.27129L25.8119 2.31002L25.7161 2.6687L24.9819 5.40846C24.2106 4.87633 23.0782 4.67594 21.8398 4.73488L21.6886 3.28502L21.6315 2.75963L21.0971 2.81688L19.0456 3.03243L18.5096 3.08968L18.5667 3.62685L18.6423 4.34589C18.492 4.16881 18.3178 4.01352 18.1248 3.8845C17.4846 3.45004 16.6462 3.28502 15.6347 3.3911L12.496 3.72789L11.96 3.76999L12.0154 4.30716L12.8455 12.2217L12.8606 12.3631C10.646 13.6261 9.94705 16.3843 10.6359 18.3613C8.75575 18.6711 6.59328 20.0452 5.63218 21.8538L5.29613 21.8891L0.535998 22.3943L0 22.4499L0.0554481 22.987L0.238595 24.7299L0.295723 25.2688L0.830041 25.2115L1.98941 25.0886L2.58758 30.7129L2.64302 31.2501L3.17902 31.1928L4.58707 31.0497C1.82811 34.5102 5.40535 41.5356 12.0625 40.3198C12.7581 42.3018 15.7237 42.359 19.1061 42.0626L19.0136 41.3015L7.36619 35.113L8.67342 32.2049L11.4273 33.3281L11.1871 32.4575L12.4389 32.1662L13.4033 34.5321L19.348 38.8817L19.18 36.5107L21.66 36.2514L22.3506 38.5887L24.1249 36.9772L18.4323 33.9461L19.7378 31.0497L22.4934 32.1695L22.2532 31.2989L23.5033 31.0076L24.4694 33.3752L26.4857 34.8487L27.5056 33.9242L27.6551 30.5563L29.8395 30.7096L29.7907 32.0601L31.639 29.6824L33.3428 30.8375L33.1512 30.1421L34.4013 29.8491L35.3557 32.2285L37.4594 33.7693L38.57 32.7589L38.7263 29.391L40.9106 29.5443L40.8484 30.9049L42.7857 28.4127L44.676 31.7166L41.6667 34.1566L43.6175 33.9478L44.308 36.2884L49.4546 31.6155L49.6092 28.2476L51.7935 28.4043L51.7314 29.7649L53.6687 27.2726L55.559 30.5732L45.5245 38.7082L45.6623 39.333C48.4482 39.0804 51.2895 38.6106 52.4875 36.1335C57.7097 35.8961 60.3846 29.4634 57.6408 26.1124C57.2274 25.6072 56.9872 25.5416 56.9872 25.5416L58.9194 25.3243L59.4554 25.2688L59.3983 24.7316L58.8102 19.0938L59.9679 18.9725L60.5039 18.9254ZM33.7712 2.01701L38.0575 6.48786L37.5535 1.61961L44.7785 0.858468L44.9617 2.60134L43.2663 2.77984L43.9048 8.95145L41.8566 9.17036L41.2164 2.99706L39.7815 3.14693L40.4267 9.32697L38.3768 9.54251L34.0888 5.05651L34.5929 9.93992L32.5447 10.1403L31.7163 2.24098L33.7712 2.01701ZM36.3672 18.4488L34.3173 18.6661L33.4889 10.7516L36.5537 10.4283C37.3619 10.3441 38.0659 10.4754 38.57 10.8071C39.1278 11.1709 39.4673 11.7821 39.5496 12.577C39.6588 13.6042 39.2337 14.4562 38.4137 14.857L38.0777 15.0254L40.8803 17.974L38.3264 18.2434L36.048 15.3891L36.3672 18.4488ZM21.1526 3.34732L21.7978 9.51894L24.5164 9.23435L26.2353 2.81015L28.4751 2.5744L32.2758 10.179L30.0915 10.4081L29.4345 9.08617L26.61 9.38591L26.2085 10.8172L19.9327 11.479L19.1027 3.56455L21.1526 3.34732ZM12.5514 4.25328L15.6901 3.91649C16.5739 3.82387 17.2914 3.96027 17.8257 4.32063C18.4004 4.70962 18.7398 5.34952 18.8339 6.22011C18.9296 7.13112 18.7566 7.84511 18.3298 8.34018C17.903 8.83526 17.241 9.10469 16.3303 9.20067L15.1558 9.32697L15.4314 11.9505L13.3815 12.1661L12.5514 4.25328ZM11.7315 29.7548L11.3954 26.5098L8.43315 26.8214L8.76919 30.0646L6.7193 30.2802L6.07408 24.1136L4.5249 24.282L5.17011 30.4502L3.11853 30.6658L2.475 24.4958L0.779633 24.676L0.596487 22.9332L7.94756 22.1535L8.26512 25.2048L11.2274 24.8933L10.9048 21.8436L12.9564 21.6197L13.7847 29.5342L11.7315 29.7548ZM14.7559 29.4348L13.9292 21.5203L18.4138 21.0455L18.5953 22.7984L16.1589 23.0544L16.3001 24.3763L18.6087 24.1304L18.7919 25.8733L16.4832 26.1175L16.6243 27.4815L19.059 27.2255L19.2405 28.9684L14.7559 29.4348ZM22.149 19.9492L20.0991 20.1681L19.2724 12.2536L23.8091 11.7754L23.9922 13.5183L21.5122 13.781L21.6516 15.1029L23.8981 14.8654L24.0829 16.6083L21.8331 16.8457L22.149 19.9492ZM28.3071 24.7013C27.8904 25.1778 27.2183 25.4675 26.3109 25.5618L25.4103 25.6594L25.1432 25.6881L25.4221 28.3116L23.3638 28.5238L22.5371 20.6093L25.6741 20.2725C27.5224 20.0789 28.6381 20.8956 28.8128 22.5745C28.9086 23.4939 28.7372 24.2079 28.3054 24.7013H28.3071ZM24.582 15.5474C24.5226 14.9919 24.5829 14.43 24.7589 13.8998C24.9348 13.3696 25.2223 12.8835 25.6019 12.4742C26.3651 11.6505 27.4003 11.1318 28.5158 11.0141C29.6314 10.8965 30.7516 11.1879 31.6692 11.8343C32.1256 12.1564 32.508 12.5727 32.7905 13.0551C33.0731 13.5375 33.2494 14.075 33.3075 14.6314C33.39 15.2086 33.3525 15.7967 33.1973 16.3588C33.0421 16.9208 32.7726 17.4446 32.4058 17.8972C32.0389 18.3498 31.5825 18.7215 31.0654 18.9888C30.5483 19.2562 29.9816 19.4135 29.4009 19.4508C26.8654 19.7152 24.8407 18.0733 24.582 15.5474ZM47.8416 25.9508L43.5486 21.4681L44.0526 26.3515L42.0011 26.5671L40.0654 26.7725L39.4085 25.4506L36.5856 25.7487L36.1908 27.1767L34.0165 27.404L29.9134 27.8384L29.085 19.924L31.1349 19.7084L31.7818 25.8817L34.4954 25.5938L36.216 19.1712L38.4541 18.9338L41.9204 25.7622L41.1777 18.6459L43.2327 18.432L47.5173 22.9012L47.0132 18.0346L49.0615 17.8174L49.8915 25.7318L47.8416 25.9508ZM58.2221 18.6122L58.859 24.7872L56.8107 25.0027L56.1706 18.8294L52.2707 19.2437L52.4085 20.5639L54.7205 20.3214L54.902 22.0626L52.5916 22.3084L52.7328 23.6741L55.1624 23.4148L55.3472 25.1593L50.8576 25.6308L50.0293 17.7163L54.408 17.2549L59.7276 16.6942L59.9091 18.437L58.2221 18.6122ZM36.9906 24.1102L38.696 23.93L37.582 21.4681L36.9906 24.1102ZM35.9824 12.0869L35.7102 12.1122L35.9169 14.0908L36.1874 14.0571C36.8158 13.9814 37.5316 13.7843 37.4358 12.9306C37.3619 12.2705 36.8998 12.0011 35.9774 12.0869H35.9824Z" fill="#688816"/>
<path d="M21.786 68.0069L20.8384 68.108L20.7056 66.8366L19.8874 66.9225L20.2654 70.5328L21.0837 70.447L21.1812 71.3714L18.1248 71.6931L18.0273 70.7686L18.8456 70.6827L18.4676 67.0724L17.6493 67.1582L17.782 68.4296L16.836 68.529L16.6059 66.3398L21.5575 65.8128L21.786 68.0069Z" fill="#688816"/>
<path d="M25.2625 70.9404L22.5909 71.2233L22.5002 70.346L23.2059 70.2719L22.9908 68.2225L22.3489 68.2899L22.2565 67.4126L23.9972 67.229L24.0981 68.1939H24.1149C24.2711 67.5119 24.7063 67.0994 25.3314 67.0337L25.4994 67.0152L25.6204 68.1653L25.4759 68.1805C24.4963 68.2832 24.2997 68.9702 24.382 69.7415L24.424 70.1439L25.1617 70.0665L25.2625 70.9404Z" fill="#688816"/>
<path d="M30.1721 69.5697C29.8361 70.223 29.2363 70.612 28.4096 70.6996C27.0939 70.8377 26.19 70.1843 26.0673 69.0039C26.0288 68.7327 26.0463 68.4565 26.1188 68.1924C26.1913 67.9283 26.3171 67.6819 26.4885 67.4686C26.6599 67.2553 26.8733 67.0795 27.1153 66.9523C27.3573 66.825 27.6229 66.749 27.8954 66.7289C29.0346 66.6093 30.0411 67.389 30.0881 68.7664L27.3124 69.0594C27.3661 69.4922 27.6484 69.9822 28.3424 69.9014C28.6633 69.8677 28.8616 69.7414 29.1825 69.3659L30.1721 69.5697ZM28.828 68.2225C28.712 67.746 28.386 67.4883 27.9441 67.5355C27.5022 67.5826 27.272 67.8588 27.2468 68.3892L28.828 68.2225Z" fill="#688816"/>
<path d="M34.6987 69.0931C34.3627 69.7465 33.7612 70.1355 32.9345 70.2231C31.6188 70.3611 30.7166 69.7078 30.5922 68.5256C30.554 68.2545 30.5717 67.9783 30.6444 67.7143C30.7171 67.4503 30.8431 67.2041 31.0147 66.9909C31.1863 66.7777 31.3997 66.6022 31.6418 66.4751C31.8839 66.3481 32.1494 66.2723 32.422 66.2523C33.5612 66.1328 34.5677 66.9124 34.6147 68.2899L31.839 68.5829C31.8927 69.0157 32.175 69.5057 32.8689 69.4333C33.1899 69.3996 33.3865 69.2649 33.7091 68.8978L34.6987 69.0931ZM33.3545 67.746C33.2403 67.2694 32.9126 67.0118 32.4724 67.0589C32.0322 67.1061 31.8003 67.3823 31.7751 67.9127L33.3545 67.746Z" fill="#688816"/>
<path d="M35.3154 68.5576L36.1975 68.465C36.2078 68.5504 36.2394 68.6319 36.2893 68.7019C36.3392 68.772 36.4058 68.8283 36.4831 68.8658C36.6735 68.9638 36.8904 68.9975 37.1015 68.9618C37.4711 68.923 37.703 68.7529 37.6795 68.5273C37.6224 67.9733 36.2244 68.4936 35.3742 67.8032C35.1742 67.6378 35.0474 67.4 35.0213 67.1414C34.9524 66.4897 35.4884 65.9627 36.3067 65.8768C36.6339 65.839 36.9653 65.8677 37.2813 65.961L37.2678 65.8313L38.1348 65.7404L38.2491 66.8417L37.3838 66.9326C37.2829 66.675 36.9973 66.5756 36.5151 66.6261C36.1941 66.6598 36.011 66.7945 36.0244 66.9713C36.0799 67.5018 38.4978 66.7339 38.6624 68.3101C38.7397 69.0493 38.2844 69.6421 37.3048 69.7465C36.7587 69.8037 36.5083 69.7313 36.3151 69.5781L36.3437 69.7801L35.4616 69.8728L35.3154 68.5576Z" fill="#688816"/>
<path d="M43.6813 69.0005L41.3475 69.2464L41.255 68.3707L41.7776 68.3152L41.5625 66.2658L41.0416 66.3197L40.9492 65.4441L41.4701 65.3885L41.4365 65.0686C41.3626 64.3596 41.6801 63.5951 42.7622 63.4806C43.3402 63.42 43.7704 63.553 44.0778 63.8797L43.2327 64.6678C43.1134 64.3798 43.0529 64.2721 42.8849 64.2906C42.7168 64.3091 42.6211 64.4876 42.6597 64.8496L42.7034 65.2605L43.2881 65.1982L43.3805 66.0739L42.7941 66.1362L43.0092 68.1855L43.5956 68.1249L43.6813 69.0005Z" fill="#688816"/>
<path d="M46.121 68.8338C44.9969 68.9517 44.0543 68.3118 43.9216 67.0488C43.7821 65.7151 44.676 64.9624 45.7043 64.8597C46.8099 64.7435 47.7744 65.3649 47.9088 66.6363C48.0348 67.8268 47.3073 68.7092 46.121 68.8338ZM45.8018 65.7943C45.3212 65.8448 45.0961 66.2591 45.1683 66.9427C45.2355 67.586 45.5565 67.9413 46.0219 67.8925C46.4873 67.8436 46.736 67.4277 46.6654 66.7609C46.5949 66.094 46.284 65.7387 45.8018 65.7943Z" fill="#688816"/>
<path d="M51.1836 68.2107L48.512 68.4919L48.4196 67.6163L49.1253 67.5422L48.9119 65.4912L48.2701 65.5585L48.1776 64.6829L49.9184 64.4993L50.0192 65.4642H50.036C50.1906 64.7805 50.6258 64.3697 51.2525 64.304L51.4205 64.2855L51.5398 65.4339L51.3953 65.4491C50.4174 65.5535 50.2191 66.2405 50.3032 67.0117L50.3452 67.4142L51.0828 67.3367L51.1836 68.2107Z" fill="#688816"/>
<path d="M11.2795 75.0222L11.4761 76.9436L10.5536 77.0413C10.4389 76.7978 10.2726 76.5823 10.0663 76.4098C9.64965 76.1521 9.44298 76.11 9.09013 76.1471C8.11054 76.2498 7.54766 77.0564 7.6636 78.1678C7.7745 79.2287 8.47852 79.8938 9.38417 79.7995C10.1386 79.7204 10.6444 79.1377 10.7519 78.2166L11.8793 78.6174C11.6323 80.133 10.4595 80.6937 9.38417 80.8065C7.06375 81.0625 6.26732 79.5082 6.14298 78.3194C5.97495 76.6539 7.01166 75.3826 8.71207 75.2041C9.2975 75.1138 9.89595 75.233 10.4024 75.5409L10.357 75.1148L11.2795 75.0222Z" fill="#688816"/>
<path d="M12.4405 79.5335L13.0253 79.4711L12.6371 75.7665L12.0524 75.8288L11.96 74.9532L13.773 74.7612L14.2535 79.3432L14.7979 79.2859L14.8903 80.1632L12.538 80.4108L12.4405 79.5335Z" fill="#688816"/>
<path d="M14.9794 76.3071L16.7604 76.1202L17.0679 79.0418L17.6207 78.9845L17.7131 79.8602L15.3793 80.106L15.2869 79.2304L15.8397 79.1714L15.6246 77.1221L15.0718 77.1895L14.9794 76.3071ZM16.7117 75.0273C16.7296 75.2042 16.6769 75.3811 16.5652 75.5193C16.4534 75.6575 16.2917 75.7457 16.1152 75.7649C15.9829 75.7792 15.8493 75.7538 15.7313 75.6919C15.6134 75.6301 15.5164 75.5345 15.4528 75.4173C15.3891 75.3001 15.3616 75.1667 15.3737 75.0338C15.3859 74.901 15.4371 74.7747 15.5209 74.6711C15.6047 74.5674 15.7174 74.491 15.8445 74.4516C15.9717 74.4122 16.1077 74.4116 16.2353 74.4497C16.3628 74.4879 16.4762 74.5632 16.561 74.666C16.6458 74.7688 16.6983 74.8946 16.7117 75.0273Z" fill="#688816"/>
<path d="M17.693 76.0208L19.6269 75.8171L19.6589 76.1303C19.9942 75.8607 20.397 75.6889 20.8233 75.6335C21.0435 75.5974 21.2692 75.6149 21.4812 75.6847C21.6933 75.7544 21.8854 75.8744 22.0415 76.0343C22.5455 75.6066 22.9572 75.4095 23.4865 75.3607C24.177 75.2883 24.8172 75.5123 24.918 76.4772L25.1029 78.1998L25.8573 78.119L25.948 78.9963L23.967 79.2102L23.7419 76.9941C23.6982 76.5765 23.5251 76.3997 23.1807 76.4351C22.876 76.4793 22.5872 76.5991 22.3405 76.7836L22.5186 78.4676L23.1991 78.3968L23.2916 79.2725L21.3895 79.4762L21.1576 77.2669C21.1123 76.8325 20.9493 76.6708 20.6048 76.7062C20.2998 76.7488 20.0106 76.8688 19.7647 77.0547L19.9327 78.7387L20.6149 78.6663L20.7174 79.547L18.103 79.8215L18.0105 78.9458L18.7162 78.8717L18.5012 76.8207L17.7955 76.8948L17.693 76.0208Z" fill="#688816"/>
<path d="M30.5737 78.5097L28.7355 78.705L28.7053 78.4087C28.4354 78.6679 28.0874 78.8302 27.7156 78.8701C26.9209 78.9543 26.274 78.5097 26.2034 77.826C26.1261 77.0868 26.7192 76.4789 27.6249 76.3846C27.9191 76.3542 28.2163 76.3811 28.5003 76.4637L28.4785 76.2532C28.4381 75.8609 28.1206 75.6167 27.6871 75.6622C27.5573 75.6733 27.4314 75.7121 27.3178 75.776C27.2042 75.8399 27.1055 75.9274 27.0284 76.0326L26.032 75.967C26.2723 75.3153 26.8201 74.9734 27.7744 74.8724C29.0178 74.7427 29.6025 75.1284 29.7084 76.1404L29.8764 77.6997L30.4864 77.6357L30.5737 78.5097ZM27.8618 77.0952C27.5409 77.1289 27.3292 77.3545 27.3577 77.629C27.3629 77.6955 27.3815 77.7603 27.4123 77.8194C27.4431 77.8786 27.4855 77.9309 27.537 77.9732C27.5884 78.0155 27.6479 78.047 27.7118 78.0656C27.7757 78.0843 27.8428 78.0899 27.9089 78.082C28.1491 78.0567 28.3306 77.9321 28.6213 77.6088L28.5894 77.2956C28.3706 77.1613 28.1183 77.0918 27.8618 77.0952Z" fill="#688816"/>
<path d="M30.3082 74.6922L30.7905 74.6416L30.7283 74.0472L31.8641 73.0486L32.0171 74.512L32.6992 74.4412L32.7916 75.3169L32.1095 75.3893L32.2775 77.0362C32.3111 77.373 32.3749 77.4252 32.632 77.3982C32.7584 77.3843 32.8809 77.3466 32.9933 77.2871L33.079 78.1055C32.8055 78.2604 32.5038 78.3589 32.1918 78.3951C31.7112 78.4456 31.1652 78.2671 31.0946 77.5919L30.8762 75.5173L30.3956 75.5678L30.3082 74.6922Z" fill="#688816"/>
<path d="M37.4291 76.9334C37.0931 77.5851 36.4915 77.9741 35.6665 78.0617C34.3509 78.1998 33.4469 77.5481 33.3226 76.3659C33.2844 76.0948 33.3021 75.8186 33.3748 75.5546C33.4475 75.2906 33.5735 75.0444 33.7451 74.8312C33.9167 74.618 34.1301 74.4425 34.3722 74.3154C34.6143 74.1884 34.8798 74.1126 35.1524 74.0926C36.2916 73.9731 37.2981 74.7527 37.3451 76.1302L34.5693 76.4215C34.6231 76.8543 34.9054 77.3443 35.5993 77.2719C35.9203 77.2382 36.1185 77.1119 36.4395 76.7381L37.4291 76.9334ZM36.0849 75.5863C35.9707 75.1114 35.643 74.8538 35.2028 74.8992C34.7626 74.9447 34.5307 75.2226 34.5055 75.753L36.0849 75.5863Z" fill="#688816"/>
<path d="M39.8722 78.1308C40.0088 78.1575 40.1485 78.1649 40.2872 78.1527C40.6485 78.1139 40.877 77.895 40.8283 77.4286L40.3528 72.8937L39.5429 72.9796L39.4454 72.0552L42.406 71.7436L42.5035 72.6681L41.7726 72.7456L42.238 77.1743C42.3573 78.3244 41.8549 79.0266 40.8047 79.1294C40.529 79.1534 40.2515 79.15 39.9764 79.1192L39.8722 78.1308Z" fill="#688816"/>
<path d="M47.6635 76.7095L45.8505 76.8998L45.8169 76.5782C45.5296 76.8484 45.1644 77.0206 44.7735 77.0699C44.0526 77.1457 43.5637 76.7331 43.4864 76.0107L43.2982 74.2106L42.7454 74.2678L42.653 73.3922L44.4341 73.2053L44.6827 75.5762C44.7214 75.945 44.8222 76.0578 45.1028 76.0275C45.3396 75.9818 45.5566 75.8642 45.7245 75.6907L45.5447 73.9782L45.0406 74.0321L44.9465 73.148L46.6805 72.9661L46.9864 75.8928L47.5728 75.8305L47.6635 76.7095Z" fill="#688816"/>
<path d="M48.1407 75.3371L49.0228 75.2445C49.0333 75.3298 49.0649 75.4113 49.1148 75.4813C49.1647 75.5513 49.2312 75.6076 49.3085 75.6452C49.499 75.7427 49.7155 75.7769 49.9268 75.7429C50.2964 75.7025 50.53 75.5324 50.5065 75.3068C50.4477 74.7528 49.0514 75.2731 48.1995 74.5827C48.0001 74.4168 47.8734 74.1792 47.8466 73.9209C47.7777 73.2692 48.3154 72.7421 49.132 72.6562C49.4592 72.6185 49.7906 72.6471 50.1066 72.7404L50.0931 72.6108L50.9601 72.5199L51.0744 73.6211L50.2091 73.7121C50.1082 73.4561 49.8226 73.3551 49.3421 73.4056C49.0211 73.4393 48.838 73.5824 48.8497 73.7508C48.9052 74.2812 51.3231 73.5151 51.4894 75.0895C51.5667 75.8288 51.1097 76.4215 50.1301 76.5259C49.5857 76.5832 49.3353 76.5125 49.1404 76.3575L49.1606 76.5512L48.2785 76.6438L48.1407 75.3371Z" fill="#688816"/>
<path d="M51.5818 72.4509L52.0624 72.4004L52.0002 71.806L53.1377 70.8091L53.2906 72.2724L53.9728 72.2L54.0635 73.0757L53.3914 73.1481L53.5595 74.7966C53.5947 75.125 53.6569 75.1839 53.914 75.157C54.0405 75.1437 54.1631 75.106 54.2752 75.0459L54.3626 75.8659C54.089 76.0203 53.7874 76.1182 53.4755 76.1539C52.9949 76.2044 52.4488 76.0259 52.3783 75.3507L52.1598 73.2777L51.6793 73.3283L51.5818 72.4509Z" fill="#688816"/>
<path d="M54.5693 72.1377L56.3504 71.9508L56.6562 74.8775L57.2106 74.8185L57.3014 75.6959L54.9675 75.9417L54.8751 75.0644L55.4296 75.0071L55.2145 72.9561L54.66 73.015L54.5693 72.1377ZM56.2999 70.8596C56.3174 71.0363 56.2645 71.2127 56.1528 71.3505C56.0411 71.4883 55.8796 71.5764 55.7035 71.5955C55.571 71.6099 55.4373 71.5845 55.3193 71.5226C55.2013 71.4606 55.1044 71.365 55.0407 71.2477C54.9771 71.1304 54.9496 70.9969 54.9619 70.8639C54.9741 70.731 55.0255 70.6047 55.1094 70.5011C55.1934 70.3975 55.3062 70.3213 55.4335 70.282C55.5609 70.2428 55.6969 70.2423 55.8245 70.2807C55.9521 70.3192 56.0654 70.3947 56.15 70.4978C56.2347 70.6008 56.2868 70.7268 56.2999 70.8596Z" fill="#688816"/>
<path d="M61.2835 72.9898L60.4434 73.0774C60.3519 72.8964 60.207 72.748 60.0285 72.6522C59.85 72.5564 59.6464 72.5179 59.4454 72.5419C58.901 72.5992 58.5952 73.0202 58.659 73.6163C58.7279 74.2747 59.0908 74.6435 59.6285 74.5862C59.8295 74.5562 60.0187 74.4727 60.1765 74.3445C60.3343 74.2162 60.4549 74.0479 60.5258 73.8571L61.507 74.177C61.2499 74.9685 60.6669 75.4282 59.7915 75.5242C58.4826 75.6606 57.5416 74.9634 57.4156 73.7577C57.298 72.6328 58.0205 71.7185 59.1278 71.6023C59.5395 71.5591 59.9543 71.6463 60.3141 71.8515L60.2804 71.5383L61.1206 71.4507L61.2835 72.9898Z" fill="#688816"/>
<path d="M66 73.9244C65.6639 74.5761 65.0624 74.965 64.2357 75.0526C62.9201 75.1907 62.0178 74.539 61.8935 73.3569C61.8547 73.085 61.8724 72.808 61.9453 72.5432C62.0183 72.2785 62.1451 72.0317 62.3176 71.8183C62.4902 71.6049 62.7048 71.4295 62.9482 71.303C63.1915 71.1766 63.4582 71.1019 63.7317 71.0836C64.8709 70.964 65.8773 71.7437 65.9244 73.1195L63.1486 73.4125C63.2024 73.8452 63.4847 74.3353 64.1786 74.2628C64.4995 74.2292 64.6961 74.1029 65.0187 73.7274L66 73.9244ZM64.6558 72.5772C64.5415 72.1024 64.2139 71.843 63.7737 71.8902C63.3335 71.9373 63.1016 72.2135 63.0764 72.7439L64.6558 72.5772Z" fill="#688816"/>
</svg>
