<svg width="20" height="26" viewBox="0 0 20 26" fill="none" xmlns="http://www.w3.org/2000/svg">
<g filter="url(#filter0_b_758_9653)">
<path d="M7.47788 12.854C4.90973 12.854 4.82609 8.04041 4.82609 7.96078C4.82609 7.76021 4.76104 7.56259 4.64022 7.40037C4.5194 7.23519 4.34592 7.11131 4.14766 7.04347C3.95249 6.97563 3.73874 6.96384 3.53737 7.01398C3.33601 7.06412 3.15324 7.1703 3.01693 7.31778C1.72201 8.80729 0.801943 10.5623 0.334163 12.4441C-1.15592 19.5672 2.71953 22.8942 4.44505 23.9974C5.96921 24.956 7.75669 25.4633 9.58444 25.4544C12.2641 25.4544 14.8415 24.4693 16.7777 22.7055C18.1996 21.3929 19.2065 19.7294 19.6866 17.8977C20.1668 16.0661 20.0925 14.1459 19.4822 12.3526C18.7821 10.459 17.5739 8.77485 15.9785 7.45936C13.8905 5.76928 12.5367 3.40376 12.1774 0.817019C12.1464 0.634149 12.0627 0.466026 11.9357 0.327398C11.8087 0.18877 11.6414 0.0884859 11.4587 0.0353943C11.279 -0.0117981 11.0869 -0.0117981 10.9041 0.0353943C10.7245 0.0825868 10.5603 0.176972 10.4302 0.3097C10.3155 0.427682 7.64516 3.24448 8.96176 8.22328C9.46672 10.1316 9.41405 11.5798 8.82856 12.3025C8.49089 12.6771 7.99213 12.8806 7.47788 12.854Z" fill="url(#paint0_linear_758_9653)"/>
</g>
<defs>
<filter id="filter0_b_758_9653" x="-1.65289" y="-1.65289" width="23.3058" height="28.7604" filterUnits="userSpaceOnUse" color-interpolation-filters="sRGB">
<feFlood flood-opacity="0" result="BackgroundImageFix"/>
<feGaussianBlur in="BackgroundImageFix" stdDeviation="0.826446"/>
<feComposite in2="SourceAlpha" operator="in" result="effect1_backgroundBlur_758_9653"/>
<feBlend mode="normal" in="SourceGraphic" in2="effect1_backgroundBlur_758_9653" result="shape"/>
</filter>
<linearGradient id="paint0_linear_758_9653" x1="9.09091" y1="0.454546" x2="9.09091" y2="26.8182" gradientUnits="userSpaceOnUse">
<stop stop-color="#FFAC63"/>
<stop offset="1" stop-color="#AC836C"/>
</linearGradient>
</defs>
</svg>
