<svg width="20" height="19" viewBox="0 0 20 19" fill="none" xmlns="http://www.w3.org/2000/svg">
<path d="M10 0.742676C4.47656 0.742676 0 4.39303 0 8.89814C0 10.8429 0.835938 12.623 2.22656 14.0227C1.73828 15.9989 0.105469 17.7594 0.0859375 17.779C0 17.8691 -0.0234375 18.0025 0.0273438 18.1201C0.078125 18.2377 0.1875 18.3083 0.3125 18.3083C2.90234 18.3083 4.84375 17.0614 5.80469 16.2929C7.08203 16.7752 8.5 17.0536 10 17.0536C15.5234 17.0536 20 13.4032 20 8.89814C20 4.39303 15.5234 0.742676 10 0.742676ZM5.00781 11.4075H4.53125C4.35938 11.4075 4.21875 11.2664 4.21875 11.0938V10.4665C4.21875 10.294 4.35938 10.1528 4.53125 10.1528H5.01172C5.24609 10.1528 5.41797 10.0156 5.41797 9.89405C5.41797 9.84307 5.38672 9.78818 5.33594 9.74505L4.48047 9.00792C4.14844 8.72562 3.96094 8.32177 3.96094 7.90615C3.96094 7.071 4.70312 6.39269 5.61719 6.39269H6.09375C6.26562 6.39269 6.40625 6.53384 6.40625 6.70636V7.3337C6.40625 7.50622 6.26562 7.64737 6.09375 7.64737H5.61328C5.37891 7.64737 5.20703 7.7846 5.20703 7.90615C5.20703 7.95712 5.23828 8.01202 5.28906 8.05515L6.14453 8.79227C6.47656 9.07458 6.66406 9.47843 6.66406 9.89405C6.66797 10.7292 5.92188 11.4075 5.00781 11.4075ZM12.5 11.0938C12.5 11.2664 12.3594 11.4075 12.1875 11.4075H11.5625C11.3906 11.4075 11.25 11.2664 11.25 11.0938V8.41979L10.2813 10.6076C10.168 10.839 9.83594 10.839 9.72266 10.6076L8.75 8.41979V11.0938C8.75 11.2664 8.60938 11.4075 8.4375 11.4075H7.8125C7.64062 11.4075 7.5 11.2664 7.5 11.0938V7.01611C7.5 6.67107 7.78125 6.38877 8.125 6.38877H8.75C8.98828 6.38877 9.20312 6.52208 9.30859 6.7338L10 8.1218L10.6914 6.7338C10.7969 6.52208 11.0156 6.38877 11.25 6.38877H11.875C12.2188 6.38877 12.5 6.67107 12.5 7.01611V11.0938ZM14.3867 11.4075H13.9062C13.7344 11.4075 13.5938 11.2664 13.5938 11.0938V10.4665C13.5938 10.294 13.7344 10.1528 13.9062 10.1528H14.3867C14.6211 10.1528 14.793 10.0156 14.793 9.89405C14.793 9.84307 14.7617 9.78818 14.7109 9.74505L13.8555 9.00792C13.5234 8.72562 13.3359 8.32177 13.3359 7.90615C13.3359 7.071 14.0781 6.39269 14.9922 6.39269H15.4688C15.6406 6.39269 15.7812 6.53384 15.7812 6.70636V7.3337C15.7812 7.50622 15.6406 7.64737 15.4688 7.64737H14.9883C14.7539 7.64737 14.582 7.7846 14.582 7.90615C14.582 7.95712 14.6133 8.01202 14.6641 8.05515L15.5195 8.79227C15.8516 9.07458 16.0391 9.47843 16.0391 9.89405C16.043 10.7292 15.3008 11.4075 14.3867 11.4075Z" fill="#4F4F4F"/>
</svg>
