<svg xmlns="http://www.w3.org/2000/svg" width="16" height="16" viewBox="0 0 16 16" fill="none">
  <path d="M7.75008 0.25C3.60792 0.25 0.25 3.60792 0.25 7.75008C0.25 11.8922 3.60792 15.2502 7.75008 15.2502C11.8922 15.2502 15.2502 11.8922 15.2502 7.75008C15.2502 3.60792 11.8922 0.25 7.75008 0.25ZM7.75008 14.2318C4.17028 14.2318 1.26824 11.3297 1.26824 7.74992C1.26824 4.17013 4.17028 1.26824 7.75008 1.26824C11.3299 1.26824 14.2319 4.17028 14.2319 7.75008C14.2319 11.3299 11.3299 14.2319 7.75008 14.2319V14.2318Z" fill="#4F4F4F" stroke="#4F4F4F" stroke-width="0.5"/>
  <mask id="path-2-inside-1_4201_263" fill="white">
    <path d="M7.82442 8.13058C7.57507 8.13058 7.37207 7.92742 7.37207 7.67761V3.68276C7.37207 3.47715 7.53717 3.30575 7.74018 3.30054C7.74355 3.30054 7.74678 3.30054 7.75015 3.30054C7.85112 3.30054 7.94594 3.33982 8.01745 3.41132C8.0888 3.48267 8.12823 3.57765 8.12823 3.67862V7.25857L10.4065 6.36998L10.4078 6.36952C10.4478 6.3551 10.4897 6.34774 10.532 6.34774C10.686 6.34774 10.8247 6.44502 10.877 6.58987C10.8914 6.62976 10.8988 6.67165 10.8988 6.71431C10.8988 6.86775 10.8021 7.006 10.6579 7.05863L7.98937 8.09958C7.93612 8.12029 7.88073 8.13088 7.82457 8.13088L7.82442 8.13058Z"/>
  </mask>
  <path d="M7.82442 8.13058C7.57507 8.13058 7.37207 7.92742 7.37207 7.67761V3.68276C7.37207 3.47715 7.53717 3.30575 7.74018 3.30054C7.74355 3.30054 7.74678 3.30054 7.75015 3.30054C7.85112 3.30054 7.94594 3.33982 8.01745 3.41132C8.0888 3.48267 8.12823 3.57765 8.12823 3.67862V7.25857L10.4065 6.36998L10.4078 6.36952C10.4478 6.3551 10.4897 6.34774 10.532 6.34774C10.686 6.34774 10.8247 6.44502 10.877 6.58987C10.8914 6.62976 10.8988 6.67165 10.8988 6.71431C10.8988 6.86775 10.8021 7.006 10.6579 7.05863L7.98937 8.09958C7.93612 8.12029 7.88073 8.13088 7.82457 8.13088L7.82442 8.13058Z" fill="#4F4F4F"/>
  <path d="M7.82442 8.13058L8.7183 7.68227L8.44161 7.13058H7.82442V8.13058ZM7.74018 3.30054V2.30054H7.72733L7.71449 2.30087L7.74018 3.30054ZM8.12823 7.25857H7.12823V8.72195L8.49159 8.19021L8.12823 7.25857ZM10.4065 6.36998L10.0555 5.43354L10.0432 5.43834L10.4065 6.36998ZM10.4078 6.36952L10.0689 5.4286L10.0567 5.43317L10.4078 6.36952ZM10.877 6.58987L9.93647 6.92961L9.93656 6.92987L10.877 6.58987ZM10.6579 7.05863L10.3151 6.11922L10.3047 6.123L10.2945 6.127L10.6579 7.05863ZM7.98937 8.09958L8.35194 9.03153L8.35278 9.03121L7.98937 8.09958ZM7.82457 8.13088L6.93069 8.57919L7.20738 9.13088H7.82457V8.13088ZM7.82442 8.13058V7.13058C8.12846 7.13058 8.37207 7.37624 8.37207 7.67761H7.37207H6.37207C6.37207 8.4786 7.02169 9.13058 7.82442 9.13058V8.13058ZM7.37207 7.67761H8.37207V3.68276H7.37207H6.37207V7.67761H7.37207ZM7.37207 3.68276H8.37207C8.37207 4.00836 8.11596 4.29121 7.76587 4.30021L7.74018 3.30054L7.71449 2.30087C6.95839 2.3203 6.37207 2.94594 6.37207 3.68276H7.37207ZM7.74018 3.30054V4.30054C7.74018 4.30054 7.74019 4.30054 7.7402 4.30054C7.7402 4.30054 7.74021 4.30054 7.74022 4.30054C7.74022 4.30054 7.74023 4.30054 7.74024 4.30054C7.74024 4.30054 7.74025 4.30054 7.74026 4.30054C7.74026 4.30054 7.74027 4.30054 7.74028 4.30054C7.74028 4.30054 7.74029 4.30054 7.7403 4.30054C7.7403 4.30054 7.74031 4.30054 7.74032 4.30054C7.74032 4.30054 7.74033 4.30054 7.74034 4.30054C7.74034 4.30054 7.74035 4.30054 7.74036 4.30054C7.74036 4.30054 7.74037 4.30054 7.74037 4.30054C7.74038 4.30054 7.74039 4.30054 7.74039 4.30054C7.7404 4.30054 7.74041 4.30054 7.74041 4.30054C7.74042 4.30054 7.74043 4.30054 7.74043 4.30054C7.74044 4.30054 7.74045 4.30054 7.74045 4.30054C7.74046 4.30054 7.74047 4.30054 7.74047 4.30054C7.74048 4.30054 7.74049 4.30054 7.74049 4.30054C7.7405 4.30054 7.74051 4.30054 7.74051 4.30054C7.74052 4.30054 7.74053 4.30054 7.74053 4.30054C7.74054 4.30054 7.74055 4.30054 7.74055 4.30054C7.74056 4.30054 7.74057 4.30054 7.74057 4.30054C7.74058 4.30054 7.74059 4.30054 7.74059 4.30054C7.7406 4.30054 7.7406 4.30054 7.74061 4.30054C7.74062 4.30054 7.74062 4.30054 7.74063 4.30054C7.74064 4.30054 7.74064 4.30054 7.74065 4.30054C7.74066 4.30054 7.74066 4.30054 7.74067 4.30054C7.74068 4.30054 7.74068 4.30054 7.74069 4.30054C7.7407 4.30054 7.7407 4.30054 7.74071 4.30054C7.74072 4.30054 7.74072 4.30054 7.74073 4.30054C7.74074 4.30054 7.74074 4.30054 7.74075 4.30054C7.74076 4.30054 7.74076 4.30054 7.74077 4.30054C7.74078 4.30054 7.74078 4.30054 7.74079 4.30054C7.7408 4.30054 7.7408 4.30054 7.74081 4.30054C7.74082 4.30054 7.74082 4.30054 7.74083 4.30054C7.74083 4.30054 7.74084 4.30054 7.74085 4.30054C7.74085 4.30054 7.74086 4.30054 7.74087 4.30054C7.74087 4.30054 7.74088 4.30054 7.74089 4.30054C7.74089 4.30054 7.7409 4.30054 7.74091 4.30054C7.74091 4.30054 7.74092 4.30054 7.74093 4.30054C7.74093 4.30054 7.74094 4.30054 7.74095 4.30054C7.74095 4.30054 7.74096 4.30054 7.74097 4.30054C7.74097 4.30054 7.74098 4.30054 7.74099 4.30054C7.74099 4.30054 7.741 4.30054 7.74101 4.30054C7.74101 4.30054 7.74102 4.30054 7.74102 4.30054C7.74103 4.30054 7.74104 4.30054 7.74104 4.30054C7.74105 4.30054 7.74106 4.30054 7.74106 4.30054C7.74107 4.30054 7.74108 4.30054 7.74108 4.30054C7.74109 4.30054 7.7411 4.30054 7.7411 4.30054C7.74111 4.30054 7.74112 4.30054 7.74112 4.30054C7.74113 4.30054 7.74114 4.30054 7.74114 4.30054C7.74115 4.30054 7.74116 4.30054 7.74116 4.30054C7.74117 4.30054 7.74118 4.30054 7.74118 4.30054C7.74119 4.30054 7.74119 4.30054 7.7412 4.30054C7.74121 4.30054 7.74121 4.30054 7.74122 4.30054C7.74123 4.30054 7.74123 4.30054 7.74124 4.30054C7.74125 4.30054 7.74125 4.30054 7.74126 4.30054C7.74127 4.30054 7.74127 4.30054 7.74128 4.30054C7.74129 4.30054 7.74129 4.30054 7.7413 4.30054C7.74131 4.30054 7.74131 4.30054 7.74132 4.30054C7.74133 4.30054 7.74133 4.30054 7.74134 4.30054C7.74135 4.30054 7.74135 4.30054 7.74136 4.30054C7.74136 4.30054 7.74137 4.30054 7.74138 4.30054C7.74138 4.30054 7.74139 4.30054 7.7414 4.30054C7.7414 4.30054 7.74141 4.30054 7.74142 4.30054C7.74142 4.30054 7.74143 4.30054 7.74144 4.30054C7.74144 4.30054 7.74145 4.30054 7.74146 4.30054C7.74146 4.30054 7.74147 4.30054 7.74148 4.30054C7.74148 4.30054 7.74149 4.30054 7.7415 4.30054C7.7415 4.30054 7.74151 4.30054 7.74151 4.30054C7.74152 4.30054 7.74153 4.30054 7.74153 4.30054C7.74154 4.30054 7.74155 4.30054 7.74155 4.30054C7.74156 4.30054 7.74157 4.30054 7.74157 4.30054C7.74158 4.30054 7.74159 4.30054 7.74159 4.30054C7.7416 4.30054 7.74161 4.30054 7.74161 4.30054C7.74162 4.30054 7.74163 4.30054 7.74163 4.30054C7.74164 4.30054 7.74165 4.30054 7.74165 4.30054C7.74166 4.30054 7.74166 4.30054 7.74167 4.30054C7.74168 4.30054 7.74168 4.30054 7.74169 4.30054C7.7417 4.30054 7.7417 4.30054 7.74171 4.30054C7.74172 4.30054 7.74172 4.30054 7.74173 4.30054C7.74174 4.30054 7.74174 4.30054 7.74175 4.30054C7.74176 4.30054 7.74176 4.30054 7.74177 4.30054C7.74178 4.30054 7.74178 4.30054 7.74179 4.30054C7.7418 4.30054 7.7418 4.30054 7.74181 4.30054C7.74181 4.30054 7.74182 4.30054 7.74183 4.30054C7.74183 4.30054 7.74184 4.30054 7.74185 4.30054C7.74185 4.30054 7.74186 4.30054 7.74187 4.30054C7.74187 4.30054 7.74188 4.30054 7.74189 4.30054C7.74189 4.30054 7.7419 4.30054 7.74191 4.30054C7.74191 4.30054 7.74192 4.30054 7.74193 4.30054C7.74193 4.30054 7.74194 4.30054 7.74194 4.30054C7.74195 4.30054 7.74196 4.30054 7.74196 4.30054C7.74197 4.30054 7.74198 4.30054 7.74198 4.30054C7.74199 4.30054 7.742 4.30054 7.742 4.30054C7.74201 4.30054 7.74202 4.30054 7.74202 4.30054C7.74203 4.30054 7.74204 4.30054 7.74204 4.30054C7.74205 4.30054 7.74206 4.30054 7.74206 4.30054C7.74207 4.30054 7.74207 4.30054 7.74208 4.30054C7.74209 4.30054 7.74209 4.30054 7.7421 4.30054C7.74211 4.30054 7.74211 4.30054 7.74212 4.30054C7.74213 4.30054 7.74213 4.30054 7.74214 4.30054C7.74215 4.30054 7.74215 4.30054 7.74216 4.30054C7.74217 4.30054 7.74217 4.30054 7.74218 4.30054C7.74219 4.30054 7.74219 4.30054 7.7422 4.30054C7.7422 4.30054 7.74221 4.30054 7.74222 4.30054C7.74222 4.30054 7.74223 4.30054 7.74224 4.30054C7.74224 4.30054 7.74225 4.30054 7.74226 4.30054C7.74226 4.30054 7.74227 4.30054 7.74228 4.30054C7.74228 4.30054 7.74229 4.30054 7.7423 4.30054C7.7423 4.30054 7.74231 4.30054 7.74232 4.30054C7.74232 4.30054 7.74233 4.30054 7.74233 4.30054C7.74234 4.30054 7.74235 4.30054 7.74235 4.30054C7.74236 4.30054 7.74237 4.30054 7.74237 4.30054C7.74238 4.30054 7.74239 4.30054 7.74239 4.30054C7.7424 4.30054 7.74241 4.30054 7.74241 4.30054C7.74242 4.30054 7.74243 4.30054 7.74243 4.30054C7.74244 4.30054 7.74245 4.30054 7.74245 4.30054C7.74246 4.30054 7.74246 4.30054 7.74247 4.30054C7.74248 4.30054 7.74248 4.30054 7.74249 4.30054C7.7425 4.30054 7.7425 4.30054 7.74251 4.30054C7.74252 4.30054 7.74252 4.30054 7.74253 4.30054C7.74254 4.30054 7.74254 4.30054 7.74255 4.30054C7.74256 4.30054 7.74256 4.30054 7.74257 4.30054C7.74257 4.30054 7.74258 4.30054 7.74259 4.30054C7.74259 4.30054 7.7426 4.30054 7.74261 4.30054C7.74261 4.30054 7.74262 4.30054 7.74263 4.30054C7.74263 4.30054 7.74264 4.30054 7.74265 4.30054C7.74265 4.30054 7.74266 4.30054 7.74267 4.30054C7.74267 4.30054 7.74268 4.30054 7.74269 4.30054C7.74269 4.30054 7.7427 4.30054 7.7427 4.30054C7.74271 4.30054 7.74272 4.30054 7.74272 4.30054C7.74273 4.30054 7.74274 4.30054 7.74274 4.30054C7.74275 4.30054 7.74276 4.30054 7.74276 4.30054C7.74277 4.30054 7.74278 4.30054 7.74278 4.30054C7.74279 4.30054 7.7428 4.30054 7.7428 4.30054C7.74281 4.30054 7.74281 4.30054 7.74282 4.30054C7.74283 4.30054 7.74283 4.30054 7.74284 4.30054C7.74285 4.30054 7.74285 4.30054 7.74286 4.30054C7.74287 4.30054 7.74287 4.30054 7.74288 4.30054C7.74289 4.30054 7.74289 4.30054 7.7429 4.30054C7.74291 4.30054 7.74291 4.30054 7.74292 4.30054C7.74292 4.30054 7.74293 4.30054 7.74294 4.30054C7.74294 4.30054 7.74295 4.30054 7.74296 4.30054C7.74296 4.30054 7.74297 4.30054 7.74298 4.30054C7.74298 4.30054 7.74299 4.30054 7.743 4.30054C7.743 4.30054 7.74301 4.30054 7.74302 4.30054C7.74302 4.30054 7.74303 4.30054 7.74303 4.30054C7.74304 4.30054 7.74305 4.30054 7.74305 4.30054C7.74306 4.30054 7.74307 4.30054 7.74307 4.30054C7.74308 4.30054 7.74309 4.30054 7.74309 4.30054C7.7431 4.30054 7.74311 4.30054 7.74311 4.30054C7.74312 4.30054 7.74313 4.30054 7.74313 4.30054C7.74314 4.30054 7.74314 4.30054 7.74315 4.30054C7.74316 4.30054 7.74316 4.30054 7.74317 4.30054C7.74318 4.30054 7.74318 4.30054 7.74319 4.30054C7.7432 4.30054 7.7432 4.30054 7.74321 4.30054C7.74322 4.30054 7.74322 4.30054 7.74323 4.30054C7.74324 4.30054 7.74324 4.30054 7.74325 4.30054C7.74325 4.30054 7.74326 4.30054 7.74327 4.30054C7.74327 4.30054 7.74328 4.30054 7.74329 4.30054C7.74329 4.30054 7.7433 4.30054 7.74331 4.30054C7.74331 4.30054 7.74332 4.30054 7.74333 4.30054C7.74333 4.30054 7.74334 4.30054 7.74335 4.30054C7.74335 4.30054 7.74336 4.30054 7.74336 4.30054C7.74337 4.30054 7.74338 4.30054 7.74338 4.30054C7.74339 4.30054 7.7434 4.30054 7.7434 4.30054C7.74341 4.30054 7.74342 4.30054 7.74342 4.30054C7.74343 4.30054 7.74344 4.30054 7.74344 4.30054C7.74345 4.30054 7.74346 4.30054 7.74346 4.30054C7.74347 4.30054 7.74347 4.30054 7.74348 4.30054C7.74349 4.30054 7.74349 4.30054 7.7435 4.30054C7.74351 4.30054 7.74351 4.30054 7.74352 4.30054C7.74353 4.30054 7.74353 4.30054 7.74354 4.30054C7.74355 4.30054 7.74355 4.30054 7.74356 4.30054C7.74356 4.30054 7.74357 4.30054 7.74358 4.30054C7.74358 4.30054 7.74359 4.30054 7.7436 4.30054C7.7436 4.30054 7.74361 4.30054 7.74362 4.30054C7.74362 4.30054 7.74363 4.30054 7.74364 4.30054C7.74364 4.30054 7.74365 4.30054 7.74366 4.30054C7.74366 4.30054 7.74367 4.30054 7.74367 4.30054C7.74368 4.30054 7.74369 4.30054 7.74369 4.30054C7.7437 4.30054 7.74371 4.30054 7.74371 4.30054C7.74372 4.30054 7.74373 4.30054 7.74373 4.30054C7.74374 4.30054 7.74375 4.30054 7.74375 4.30054C7.74376 4.30054 7.74376 4.30054 7.74377 4.30054C7.74378 4.30054 7.74378 4.30054 7.74379 4.30054C7.7438 4.30054 7.7438 4.30054 7.74381 4.30054C7.74382 4.30054 7.74382 4.30054 7.74383 4.30054C7.74384 4.30054 7.74384 4.30054 7.74385 4.30054C7.74386 4.30054 7.74386 4.30054 7.74387 4.30054C7.74387 4.30054 7.74388 4.30054 7.74389 4.30054C7.74389 4.30054 7.7439 4.30054 7.74391 4.30054C7.74391 4.30054 7.74392 4.30054 7.74393 4.30054C7.74393 4.30054 7.74394 4.30054 7.74395 4.30054C7.74395 4.30054 7.74396 4.30054 7.74397 4.30054C7.74397 4.30054 7.74398 4.30054 7.74398 4.30054C7.74399 4.30054 7.744 4.30054 7.744 4.30054C7.74401 4.30054 7.74402 4.30054 7.74402 4.30054C7.74403 4.30054 7.74404 4.30054 7.74404 4.30054C7.74405 4.30054 7.74406 4.30054 7.74406 4.30054C7.74407 4.30054 7.74407 4.30054 7.74408 4.30054C7.74409 4.30054 7.74409 4.30054 7.7441 4.30054C7.74411 4.30054 7.74411 4.30054 7.74412 4.30054C7.74413 4.30054 7.74413 4.30054 7.74414 4.30054C7.74415 4.30054 7.74415 4.30054 7.74416 4.30054C7.74417 4.30054 7.74417 4.30054 7.74418 4.30054C7.74418 4.30054 7.74419 4.30054 7.7442 4.30054C7.7442 4.30054 7.74421 4.30054 7.74422 4.30054C7.74422 4.30054 7.74423 4.30054 7.74424 4.30054C7.74424 4.30054 7.74425 4.30054 7.74426 4.30054C7.74426 4.30054 7.74427 4.30054 7.74427 4.30054C7.74428 4.30054 7.74429 4.30054 7.74429 4.30054C7.7443 4.30054 7.74431 4.30054 7.74431 4.30054C7.74432 4.30054 7.74433 4.30054 7.74433 4.30054C7.74434 4.30054 7.74435 4.30054 7.74435 4.30054C7.74436 4.30054 7.74436 4.30054 7.74437 4.30054C7.74438 4.30054 7.74438 4.30054 7.74439 4.30054C7.7444 4.30054 7.7444 4.30054 7.74441 4.30054C7.74442 4.30054 7.74442 4.30054 7.74443 4.30054C7.74444 4.30054 7.74444 4.30054 7.74445 4.30054C7.74446 4.30054 7.74446 4.30054 7.74447 4.30054C7.74447 4.30054 7.74448 4.30054 7.74449 4.30054C7.74449 4.30054 7.7445 4.30054 7.74451 4.30054C7.74451 4.30054 7.74452 4.30054 7.74453 4.30054C7.74453 4.30054 7.74454 4.30054 7.74455 4.30054C7.74455 4.30054 7.74456 4.30054 7.74456 4.30054C7.74457 4.30054 7.74458 4.30054 7.74458 4.30054C7.74459 4.30054 7.7446 4.30054 7.7446 4.30054C7.74461 4.30054 7.74462 4.30054 7.74462 4.30054C7.74463 4.30054 7.74464 4.30054 7.74464 4.30054C7.74465 4.30054 7.74465 4.30054 7.74466 4.30054C7.74467 4.30054 7.74467 4.30054 7.74468 4.30054C7.74469 4.30054 7.74469 4.30054 7.7447 4.30054C7.74471 4.30054 7.74471 4.30054 7.74472 4.30054C7.74473 4.30054 7.74473 4.30054 7.74474 4.30054C7.74475 4.30054 7.74475 4.30054 7.74476 4.30054C7.74476 4.30054 7.74477 4.30054 7.74478 4.30054C7.74478 4.30054 7.74479 4.30054 7.7448 4.30054C7.7448 4.30054 7.74481 4.30054 7.74482 4.30054C7.74482 4.30054 7.74483 4.30054 7.74484 4.30054C7.74484 4.30054 7.74485 4.30054 7.74485 4.30054C7.74486 4.30054 7.74487 4.30054 7.74487 4.30054C7.74488 4.30054 7.74489 4.30054 7.74489 4.30054C7.7449 4.30054 7.74491 4.30054 7.74491 4.30054C7.74492 4.30054 7.74493 4.30054 7.74493 4.30054C7.74494 4.30054 7.74494 4.30054 7.74495 4.30054C7.74496 4.30054 7.74496 4.30054 7.74497 4.30054C7.74498 4.30054 7.74498 4.30054 7.74499 4.30054C7.745 4.30054 7.745 4.30054 7.74501 4.30054C7.74502 4.30054 7.74502 4.30054 7.74503 4.30054C7.74504 4.30054 7.74504 4.30054 7.74505 4.30054C7.74505 4.30054 7.74506 4.30054 7.74507 4.30054C7.74507 4.30054 7.74508 4.30054 7.74509 4.30054C7.74509 4.30054 7.7451 4.30054 7.74511 4.30054C7.74511 4.30054 7.74512 4.30054 7.74513 4.30054C7.74513 4.30054 7.74514 4.30054 7.74514 4.30054C7.74515 4.30054 7.74516 4.30054 7.74516 4.30054C7.74517 4.30054 7.74518 4.30054 7.74518 4.30054C7.74519 4.30054 7.7452 4.30054 7.7452 4.30054C7.74521 4.30054 7.74522 4.30054 7.74522 4.30054C7.74523 4.30054 7.74523 4.30054 7.74524 4.30054C7.74525 4.30054 7.74525 4.30054 7.74526 4.30054C7.74527 4.30054 7.74527 4.30054 7.74528 4.30054C7.74529 4.30054 7.74529 4.30054 7.7453 4.30054C7.74531 4.30054 7.74531 4.30054 7.74532 4.30054C7.74533 4.30054 7.74533 4.30054 7.74534 4.30054C7.74534 4.30054 7.74535 4.30054 7.74536 4.30054C7.74536 4.30054 7.74537 4.30054 7.74538 4.30054C7.74538 4.30054 7.74539 4.30054 7.7454 4.30054C7.7454 4.30054 7.74541 4.30054 7.74542 4.30054C7.74542 4.30054 7.74543 4.30054 7.74543 4.30054C7.74544 4.30054 7.74545 4.30054 7.74545 4.30054C7.74546 4.30054 7.74547 4.30054 7.74547 4.30054C7.74548 4.30054 7.74549 4.30054 7.74549 4.30054C7.7455 4.30054 7.74551 4.30054 7.74551 4.30054C7.74552 4.30054 7.74552 4.30054 7.74553 4.30054C7.74554 4.30054 7.74554 4.30054 7.74555 4.30054C7.74556 4.30054 7.74556 4.30054 7.74557 4.30054C7.74558 4.30054 7.74558 4.30054 7.74559 4.30054C7.7456 4.30054 7.7456 4.30054 7.74561 4.30054C7.74562 4.30054 7.74562 4.30054 7.74563 4.30054C7.74563 4.30054 7.74564 4.30054 7.74565 4.30054C7.74565 4.30054 7.74566 4.30054 7.74567 4.30054C7.74567 4.30054 7.74568 4.30054 7.74569 4.30054C7.74569 4.30054 7.7457 4.30054 7.74571 4.30054C7.74571 4.30054 7.74572 4.30054 7.74572 4.30054C7.74573 4.30054 7.74574 4.30054 7.74574 4.30054C7.74575 4.30054 7.74576 4.30054 7.74576 4.30054C7.74577 4.30054 7.74578 4.30054 7.74578 4.30054C7.74579 4.30054 7.7458 4.30054 7.7458 4.30054C7.74581 4.30054 7.74581 4.30054 7.74582 4.30054C7.74583 4.30054 7.74583 4.30054 7.74584 4.30054C7.74585 4.30054 7.74585 4.30054 7.74586 4.30054C7.74587 4.30054 7.74587 4.30054 7.74588 4.30054C7.74589 4.30054 7.74589 4.30054 7.7459 4.30054C7.74591 4.30054 7.74591 4.30054 7.74592 4.30054C7.74592 4.30054 7.74593 4.30054 7.74594 4.30054C7.74594 4.30054 7.74595 4.30054 7.74596 4.30054C7.74596 4.30054 7.74597 4.30054 7.74598 4.30054C7.74598 4.30054 7.74599 4.30054 7.746 4.30054C7.746 4.30054 7.74601 4.30054 7.74601 4.30054C7.74602 4.30054 7.74603 4.30054 7.74603 4.30054C7.74604 4.30054 7.74605 4.30054 7.74605 4.30054C7.74606 4.30054 7.74607 4.30054 7.74607 4.30054C7.74608 4.30054 7.74609 4.30054 7.74609 4.30054C7.7461 4.30054 7.74611 4.30054 7.74611 4.30054C7.74612 4.30054 7.74612 4.30054 7.74613 4.30054C7.74614 4.30054 7.74614 4.30054 7.74615 4.30054C7.74616 4.30054 7.74616 4.30054 7.74617 4.30054C7.74618 4.30054 7.74618 4.30054 7.74619 4.30054C7.7462 4.30054 7.7462 4.30054 7.74621 4.30054C7.74621 4.30054 7.74622 4.30054 7.74623 4.30054C7.74623 4.30054 7.74624 4.30054 7.74625 4.30054C7.74625 4.30054 7.74626 4.30054 7.74627 4.30054C7.74627 4.30054 7.74628 4.30054 7.74629 4.30054C7.74629 4.30054 7.7463 4.30054 7.7463 4.30054C7.74631 4.30054 7.74632 4.30054 7.74632 4.30054C7.74633 4.30054 7.74634 4.30054 7.74634 4.30054C7.74635 4.30054 7.74636 4.30054 7.74636 4.30054C7.74637 4.30054 7.74638 4.30054 7.74638 4.30054C7.74639 4.30054 7.7464 4.30054 7.7464 4.30054C7.74641 4.30054 7.74641 4.30054 7.74642 4.30054C7.74643 4.30054 7.74643 4.30054 7.74644 4.30054C7.74645 4.30054 7.74645 4.30054 7.74646 4.30054C7.74647 4.30054 7.74647 4.30054 7.74648 4.30054C7.74649 4.30054 7.74649 4.30054 7.7465 4.30054C7.74651 4.30054 7.74651 4.30054 7.74652 4.30054C7.74652 4.30054 7.74653 4.30054 7.74654 4.30054C7.74654 4.30054 7.74655 4.30054 7.74656 4.30054C7.74656 4.30054 7.74657 4.30054 7.74658 4.30054C7.74658 4.30054 7.74659 4.30054 7.7466 4.30054C7.7466 4.30054 7.74661 4.30054 7.74661 4.30054C7.74662 4.30054 7.74663 4.30054 7.74663 4.30054C7.74664 4.30054 7.74665 4.30054 7.74665 4.30054C7.74666 4.30054 7.74667 4.30054 7.74667 4.30054C7.74668 4.30054 7.74669 4.30054 7.74669 4.30054C7.7467 4.30054 7.74671 4.30054 7.74671 4.30054C7.74672 4.30054 7.74672 4.30054 7.74673 4.30054C7.74674 4.30054 7.74674 4.30054 7.74675 4.30054C7.74676 4.30054 7.74676 4.30054 7.74677 4.30054C7.74678 4.30054 7.74678 4.30054 7.74679 4.30054C7.7468 4.30054 7.7468 4.30054 7.74681 4.30054C7.74681 4.30054 7.74682 4.30054 7.74683 4.30054C7.74683 4.30054 7.74684 4.30054 7.74685 4.30054C7.74685 4.30054 7.74686 4.30054 7.74687 4.30054C7.74687 4.30054 7.74688 4.30054 7.74689 4.30054C7.74689 4.30054 7.7469 4.30054 7.74691 4.30054C7.74691 4.30054 7.74692 4.30054 7.74692 4.30054C7.74693 4.30054 7.74694 4.30054 7.74694 4.30054C7.74695 4.30054 7.74696 4.30054 7.74696 4.30054C7.74697 4.30054 7.74698 4.30054 7.74698 4.30054C7.74699 4.30054 7.747 4.30054 7.747 4.30054C7.74701 4.30054 7.74702 4.30054 7.74702 4.30054C7.74703 4.30054 7.74703 4.30054 7.74704 4.30054C7.74705 4.30054 7.74705 4.30054 7.74706 4.30054C7.74707 4.30054 7.74707 4.30054 7.74708 4.30054C7.74709 4.30054 7.74709 4.30054 7.7471 4.30054C7.74711 4.30054 7.74711 4.30054 7.74712 4.30054C7.74713 4.30054 7.74713 4.30054 7.74714 4.30054C7.74714 4.30054 7.74715 4.30054 7.74716 4.30054C7.74716 4.30054 7.74717 4.30054 7.74718 4.30054C7.74718 4.30054 7.74719 4.30054 7.7472 4.30054C7.7472 4.30054 7.74721 4.30054 7.74722 4.30054C7.74722 4.30054 7.74723 4.30054 7.74724 4.30054C7.74724 4.30054 7.74725 4.30054 7.74725 4.30054C7.74726 4.30054 7.74727 4.30054 7.74727 4.30054C7.74728 4.30054 7.74729 4.30054 7.74729 4.30054C7.7473 4.30054 7.74731 4.30054 7.74731 4.30054C7.74732 4.30054 7.74733 4.30054 7.74733 4.30054C7.74734 4.30054 7.74735 4.30054 7.74735 4.30054C7.74736 4.30054 7.74736 4.30054 7.74737 4.30054C7.74738 4.30054 7.74738 4.30054 7.74739 4.30054C7.7474 4.30054 7.7474 4.30054 7.74741 4.30054C7.74742 4.30054 7.74742 4.30054 7.74743 4.30054C7.74744 4.30054 7.74744 4.30054 7.74745 4.30054C7.74746 4.30054 7.74746 4.30054 7.74747 4.30054C7.74747 4.30054 7.74748 4.30054 7.74749 4.30054C7.74749 4.30054 7.7475 4.30054 7.74751 4.30054C7.74751 4.30054 7.74752 4.30054 7.74753 4.30054C7.74753 4.30054 7.74754 4.30054 7.74755 4.30054C7.74755 4.30054 7.74756 4.30054 7.74757 4.30054C7.74757 4.30054 7.74758 4.30054 7.74758 4.30054C7.74759 4.30054 7.7476 4.30054 7.7476 4.30054C7.74761 4.30054 7.74762 4.30054 7.74762 4.30054C7.74763 4.30054 7.74764 4.30054 7.74764 4.30054C7.74765 4.30054 7.74766 4.30054 7.74766 4.30054C7.74767 4.30054 7.74768 4.30054 7.74768 4.30054C7.74769 4.30054 7.74769 4.30054 7.7477 4.30054C7.74771 4.30054 7.74771 4.30054 7.74772 4.30054C7.74773 4.30054 7.74773 4.30054 7.74774 4.30054C7.74775 4.30054 7.74775 4.30054 7.74776 4.30054C7.74777 4.30054 7.74777 4.30054 7.74778 4.30054C7.74779 4.30054 7.74779 4.30054 7.7478 4.30054C7.74781 4.30054 7.74781 4.30054 7.74782 4.30054C7.74782 4.30054 7.74783 4.30054 7.74784 4.30054C7.74784 4.30054 7.74785 4.30054 7.74786 4.30054C7.74786 4.30054 7.74787 4.30054 7.74788 4.30054C7.74788 4.30054 7.74789 4.30054 7.7479 4.30054C7.7479 4.30054 7.74791 4.30054 7.74792 4.30054C7.74792 4.30054 7.74793 4.30054 7.74793 4.30054C7.74794 4.30054 7.74795 4.30054 7.74795 4.30054C7.74796 4.30054 7.74797 4.30054 7.74797 4.30054C7.74798 4.30054 7.74799 4.30054 7.74799 4.30054C7.748 4.30054 7.74801 4.30054 7.74801 4.30054C7.74802 4.30054 7.74803 4.30054 7.74803 4.30054C7.74804 4.30054 7.74805 4.30054 7.74805 4.30054C7.74806 4.30054 7.74806 4.30054 7.74807 4.30054C7.74808 4.30054 7.74808 4.30054 7.74809 4.30054C7.7481 4.30054 7.7481 4.30054 7.74811 4.30054C7.74812 4.30054 7.74812 4.30054 7.74813 4.30054C7.74814 4.30054 7.74814 4.30054 7.74815 4.30054C7.74816 4.30054 7.74816 4.30054 7.74817 4.30054C7.74818 4.30054 7.74818 4.30054 7.74819 4.30054C7.74819 4.30054 7.7482 4.30054 7.74821 4.30054C7.74821 4.30054 7.74822 4.30054 7.74823 4.30054C7.74823 4.30054 7.74824 4.30054 7.74825 4.30054C7.74825 4.30054 7.74826 4.30054 7.74827 4.30054C7.74827 4.30054 7.74828 4.30054 7.74829 4.30054C7.74829 4.30054 7.7483 4.30054 7.74831 4.30054C7.74831 4.30054 7.74832 4.30054 7.74832 4.30054C7.74833 4.30054 7.74834 4.30054 7.74834 4.30054C7.74835 4.30054 7.74836 4.30054 7.74836 4.30054C7.74837 4.30054 7.74838 4.30054 7.74838 4.30054C7.74839 4.30054 7.7484 4.30054 7.7484 4.30054C7.74841 4.30054 7.74842 4.30054 7.74842 4.30054C7.74843 4.30054 7.74844 4.30054 7.74844 4.30054C7.74845 4.30054 7.74845 4.30054 7.74846 4.30054C7.74847 4.30054 7.74847 4.30054 7.74848 4.30054C7.74849 4.30054 7.74849 4.30054 7.7485 4.30054C7.74851 4.30054 7.74851 4.30054 7.74852 4.30054C7.74853 4.30054 7.74853 4.30054 7.74854 4.30054C7.74855 4.30054 7.74855 4.30054 7.74856 4.30054C7.74857 4.30054 7.74857 4.30054 7.74858 4.30054C7.74859 4.30054 7.74859 4.30054 7.7486 4.30054C7.7486 4.30054 7.74861 4.30054 7.74862 4.30054C7.74862 4.30054 7.74863 4.30054 7.74864 4.30054C7.74864 4.30054 7.74865 4.30054 7.74866 4.30054C7.74866 4.30054 7.74867 4.30054 7.74868 4.30054C7.74868 4.30054 7.74869 4.30054 7.7487 4.30054C7.7487 4.30054 7.74871 4.30054 7.74872 4.30054C7.74872 4.30054 7.74873 4.30054 7.74873 4.30054C7.74874 4.30054 7.74875 4.30054 7.74875 4.30054C7.74876 4.30054 7.74877 4.30054 7.74877 4.30054C7.74878 4.30054 7.74879 4.30054 7.74879 4.30054C7.7488 4.30054 7.74881 4.30054 7.74881 4.30054C7.74882 4.30054 7.74883 4.30054 7.74883 4.30054C7.74884 4.30054 7.74885 4.30054 7.74885 4.30054C7.74886 4.30054 7.74887 4.30054 7.74887 4.30054C7.74888 4.30054 7.74889 4.30054 7.74889 4.30054C7.7489 4.30054 7.7489 4.30054 7.74891 4.30054C7.74892 4.30054 7.74892 4.30054 7.74893 4.30054C7.74894 4.30054 7.74894 4.30054 7.74895 4.30054C7.74896 4.30054 7.74896 4.30054 7.74897 4.30054C7.74898 4.30054 7.74898 4.30054 7.74899 4.30054C7.749 4.30054 7.749 4.30054 7.74901 4.30054C7.74902 4.30054 7.74902 4.30054 7.74903 4.30054C7.74904 4.30054 7.74904 4.30054 7.74905 4.30054C7.74905 4.30054 7.74906 4.30054 7.74907 4.30054C7.74907 4.30054 7.74908 4.30054 7.74909 4.30054C7.74909 4.30054 7.7491 4.30054 7.74911 4.30054C7.74911 4.30054 7.74912 4.30054 7.74913 4.30054C7.74913 4.30054 7.74914 4.30054 7.74915 4.30054C7.74915 4.30054 7.74916 4.30054 7.74917 4.30054C7.74917 4.30054 7.74918 4.30054 7.74919 4.30054C7.74919 4.30054 7.7492 4.30054 7.74921 4.30054C7.74921 4.30054 7.74922 4.30054 7.74922 4.30054C7.74923 4.30054 7.74924 4.30054 7.74924 4.30054C7.74925 4.30054 7.74926 4.30054 7.74926 4.30054C7.74927 4.30054 7.74928 4.30054 7.74928 4.30054C7.74929 4.30054 7.7493 4.30054 7.7493 4.30054C7.74931 4.30054 7.74932 4.30054 7.74932 4.30054C7.74933 4.30054 7.74934 4.30054 7.74934 4.30054C7.74935 4.30054 7.74936 4.30054 7.74936 4.30054C7.74937 4.30054 7.74938 4.30054 7.74938 4.30054C7.74939 4.30054 7.7494 4.30054 7.7494 4.30054C7.74941 4.30054 7.74941 4.30054 7.74942 4.30054C7.74943 4.30054 7.74943 4.30054 7.74944 4.30054C7.74945 4.30054 7.74945 4.30054 7.74946 4.30054C7.74947 4.30054 7.74947 4.30054 7.74948 4.30054C7.74949 4.30054 7.74949 4.30054 7.7495 4.30054C7.74951 4.30054 7.74951 4.30054 7.74952 4.30054C7.74953 4.30054 7.74953 4.30054 7.74954 4.30054C7.74955 4.30054 7.74955 4.30054 7.74956 4.30054C7.74957 4.30054 7.74957 4.30054 7.74958 4.30054C7.74959 4.30054 7.74959 4.30054 7.7496 4.30054C7.7496 4.30054 7.74961 4.30054 7.74962 4.30054C7.74962 4.30054 7.74963 4.30054 7.74964 4.30054C7.74964 4.30054 7.74965 4.30054 7.74966 4.30054C7.74966 4.30054 7.74967 4.30054 7.74968 4.30054C7.74968 4.30054 7.74969 4.30054 7.7497 4.30054C7.7497 4.30054 7.74971 4.30054 7.74972 4.30054C7.74972 4.30054 7.74973 4.30054 7.74974 4.30054C7.74974 4.30054 7.74975 4.30054 7.74976 4.30054C7.74976 4.30054 7.74977 4.30054 7.74978 4.30054C7.74978 4.30054 7.74979 4.30054 7.7498 4.30054C7.7498 4.30054 7.74981 4.30054 7.74982 4.30054C7.74982 4.30054 7.74983 4.30054 7.74983 4.30054C7.74984 4.30054 7.74985 4.30054 7.74985 4.30054C7.74986 4.30054 7.74987 4.30054 7.74987 4.30054C7.74988 4.30054 7.74989 4.30054 7.74989 4.30054C7.7499 4.30054 7.74991 4.30054 7.74991 4.30054C7.74992 4.30054 7.74993 4.30054 7.74993 4.30054C7.74994 4.30054 7.74995 4.30054 7.74995 4.30054C7.74996 4.30054 7.74997 4.30054 7.74997 4.30054C7.74998 4.30054 7.74999 4.30054 7.74999 4.30054C7.75 4.30054 7.75001 4.30054 7.75001 4.30054C7.75002 4.30054 7.75003 4.30054 7.75003 4.30054C7.75004 4.30054 7.75005 4.30054 7.75005 4.30054C7.75006 4.30054 7.75007 4.30054 7.75007 4.30054C7.75008 4.30054 7.75008 4.30054 7.75009 4.30054C7.7501 4.30054 7.7501 4.30054 7.75011 4.30054C7.75012 4.30054 7.75012 4.30054 7.75013 4.30054C7.75014 4.30054 7.75014 4.30054 7.75015 4.30054V3.30054V2.30054C7.75014 2.30054 7.75014 2.30054 7.75013 2.30054C7.75012 2.30054 7.75012 2.30054 7.75011 2.30054C7.7501 2.30054 7.7501 2.30054 7.75009 2.30054C7.75008 2.30054 7.75008 2.30054 7.75007 2.30054C7.75007 2.30054 7.75006 2.30054 7.75005 2.30054C7.75005 2.30054 7.75004 2.30054 7.75003 2.30054C7.75003 2.30054 7.75002 2.30054 7.75001 2.30054C7.75001 2.30054 7.75 2.30054 7.74999 2.30054C7.74999 2.30054 7.74998 2.30054 7.74997 2.30054C7.74997 2.30054 7.74996 2.30054 7.74995 2.30054C7.74995 2.30054 7.74994 2.30054 7.74993 2.30054C7.74993 2.30054 7.74992 2.30054 7.74991 2.30054C7.74991 2.30054 7.7499 2.30054 7.74989 2.30054C7.74989 2.30054 7.74988 2.30054 7.74987 2.30054C7.74987 2.30054 7.74986 2.30054 7.74985 2.30054C7.74985 2.30054 7.74984 2.30054 7.74983 2.30054C7.74983 2.30054 7.74982 2.30054 7.74982 2.30054C7.74981 2.30054 7.7498 2.30054 7.7498 2.30054C7.74979 2.30054 7.74978 2.30054 7.74978 2.30054C7.74977 2.30054 7.74976 2.30054 7.74976 2.30054C7.74975 2.30054 7.74974 2.30054 7.74974 2.30054C7.74973 2.30054 7.74972 2.30054 7.74972 2.30054C7.74971 2.30054 7.7497 2.30054 7.7497 2.30054C7.74969 2.30054 7.74968 2.30054 7.74968 2.30054C7.74967 2.30054 7.74966 2.30054 7.74966 2.30054C7.74965 2.30054 7.74964 2.30054 7.74964 2.30054C7.74963 2.30054 7.74962 2.30054 7.74962 2.30054C7.74961 2.30054 7.7496 2.30054 7.7496 2.30054C7.74959 2.30054 7.74959 2.30054 7.74958 2.30054C7.74957 2.30054 7.74957 2.30054 7.74956 2.30054C7.74955 2.30054 7.74955 2.30054 7.74954 2.30054C7.74953 2.30054 7.74953 2.30054 7.74952 2.30054C7.74951 2.30054 7.74951 2.30054 7.7495 2.30054C7.74949 2.30054 7.74949 2.30054 7.74948 2.30054C7.74947 2.30054 7.74947 2.30054 7.74946 2.30054C7.74945 2.30054 7.74945 2.30054 7.74944 2.30054C7.74943 2.30054 7.74943 2.30054 7.74942 2.30054C7.74941 2.30054 7.74941 2.30054 7.7494 2.30054C7.7494 2.30054 7.74939 2.30054 7.74938 2.30054C7.74938 2.30054 7.74937 2.30054 7.74936 2.30054C7.74936 2.30054 7.74935 2.30054 7.74934 2.30054C7.74934 2.30054 7.74933 2.30054 7.74932 2.30054C7.74932 2.30054 7.74931 2.30054 7.7493 2.30054C7.7493 2.30054 7.74929 2.30054 7.74928 2.30054C7.74928 2.30054 7.74927 2.30054 7.74926 2.30054C7.74926 2.30054 7.74925 2.30054 7.74924 2.30054C7.74924 2.30054 7.74923 2.30054 7.74922 2.30054C7.74922 2.30054 7.74921 2.30054 7.74921 2.30054C7.7492 2.30054 7.74919 2.30054 7.74919 2.30054C7.74918 2.30054 7.74917 2.30054 7.74917 2.30054C7.74916 2.30054 7.74915 2.30054 7.74915 2.30054C7.74914 2.30054 7.74913 2.30054 7.74913 2.30054C7.74912 2.30054 7.74911 2.30054 7.74911 2.30054C7.7491 2.30054 7.74909 2.30054 7.74909 2.30054C7.74908 2.30054 7.74907 2.30054 7.74907 2.30054C7.74906 2.30054 7.74905 2.30054 7.74905 2.30054C7.74904 2.30054 7.74904 2.30054 7.74903 2.30054C7.74902 2.30054 7.74902 2.30054 7.74901 2.30054C7.749 2.30054 7.749 2.30054 7.74899 2.30054C7.74898 2.30054 7.74898 2.30054 7.74897 2.30054C7.74896 2.30054 7.74896 2.30054 7.74895 2.30054C7.74894 2.30054 7.74894 2.30054 7.74893 2.30054C7.74892 2.30054 7.74892 2.30054 7.74891 2.30054C7.7489 2.30054 7.7489 2.30054 7.74889 2.30054C7.74889 2.30054 7.74888 2.30054 7.74887 2.30054C7.74887 2.30054 7.74886 2.30054 7.74885 2.30054C7.74885 2.30054 7.74884 2.30054 7.74883 2.30054C7.74883 2.30054 7.74882 2.30054 7.74881 2.30054C7.74881 2.30054 7.7488 2.30054 7.74879 2.30054C7.74879 2.30054 7.74878 2.30054 7.74877 2.30054C7.74877 2.30054 7.74876 2.30054 7.74875 2.30054C7.74875 2.30054 7.74874 2.30054 7.74873 2.30054C7.74873 2.30054 7.74872 2.30054 7.74872 2.30054C7.74871 2.30054 7.7487 2.30054 7.7487 2.30054C7.74869 2.30054 7.74868 2.30054 7.74868 2.30054C7.74867 2.30054 7.74866 2.30054 7.74866 2.30054C7.74865 2.30054 7.74864 2.30054 7.74864 2.30054C7.74863 2.30054 7.74862 2.30054 7.74862 2.30054C7.74861 2.30054 7.7486 2.30054 7.7486 2.30054C7.74859 2.30054 7.74859 2.30054 7.74858 2.30054C7.74857 2.30054 7.74857 2.30054 7.74856 2.30054C7.74855 2.30054 7.74855 2.30054 7.74854 2.30054C7.74853 2.30054 7.74853 2.30054 7.74852 2.30054C7.74851 2.30054 7.74851 2.30054 7.7485 2.30054C7.74849 2.30054 7.74849 2.30054 7.74848 2.30054C7.74847 2.30054 7.74847 2.30054 7.74846 2.30054C7.74845 2.30054 7.74845 2.30054 7.74844 2.30054C7.74844 2.30054 7.74843 2.30054 7.74842 2.30054C7.74842 2.30054 7.74841 2.30054 7.7484 2.30054C7.7484 2.30054 7.74839 2.30054 7.74838 2.30054C7.74838 2.30054 7.74837 2.30054 7.74836 2.30054C7.74836 2.30054 7.74835 2.30054 7.74834 2.30054C7.74834 2.30054 7.74833 2.30054 7.74832 2.30054C7.74832 2.30054 7.74831 2.30054 7.74831 2.30054C7.7483 2.30054 7.74829 2.30054 7.74829 2.30054C7.74828 2.30054 7.74827 2.30054 7.74827 2.30054C7.74826 2.30054 7.74825 2.30054 7.74825 2.30054C7.74824 2.30054 7.74823 2.30054 7.74823 2.30054C7.74822 2.30054 7.74821 2.30054 7.74821 2.30054C7.7482 2.30054 7.74819 2.30054 7.74819 2.30054C7.74818 2.30054 7.74818 2.30054 7.74817 2.30054C7.74816 2.30054 7.74816 2.30054 7.74815 2.30054C7.74814 2.30054 7.74814 2.30054 7.74813 2.30054C7.74812 2.30054 7.74812 2.30054 7.74811 2.30054C7.7481 2.30054 7.7481 2.30054 7.74809 2.30054C7.74808 2.30054 7.74808 2.30054 7.74807 2.30054C7.74806 2.30054 7.74806 2.30054 7.74805 2.30054C7.74805 2.30054 7.74804 2.30054 7.74803 2.30054C7.74803 2.30054 7.74802 2.30054 7.74801 2.30054C7.74801 2.30054 7.748 2.30054 7.74799 2.30054C7.74799 2.30054 7.74798 2.30054 7.74797 2.30054C7.74797 2.30054 7.74796 2.30054 7.74795 2.30054C7.74795 2.30054 7.74794 2.30054 7.74793 2.30054C7.74793 2.30054 7.74792 2.30054 7.74792 2.30054C7.74791 2.30054 7.7479 2.30054 7.7479 2.30054C7.74789 2.30054 7.74788 2.30054 7.74788 2.30054C7.74787 2.30054 7.74786 2.30054 7.74786 2.30054C7.74785 2.30054 7.74784 2.30054 7.74784 2.30054C7.74783 2.30054 7.74782 2.30054 7.74782 2.30054C7.74781 2.30054 7.74781 2.30054 7.7478 2.30054C7.74779 2.30054 7.74779 2.30054 7.74778 2.30054C7.74777 2.30054 7.74777 2.30054 7.74776 2.30054C7.74775 2.30054 7.74775 2.30054 7.74774 2.30054C7.74773 2.30054 7.74773 2.30054 7.74772 2.30054C7.74771 2.30054 7.74771 2.30054 7.7477 2.30054C7.74769 2.30054 7.74769 2.30054 7.74768 2.30054C7.74768 2.30054 7.74767 2.30054 7.74766 2.30054C7.74766 2.30054 7.74765 2.30054 7.74764 2.30054C7.74764 2.30054 7.74763 2.30054 7.74762 2.30054C7.74762 2.30054 7.74761 2.30054 7.7476 2.30054C7.7476 2.30054 7.74759 2.30054 7.74758 2.30054C7.74758 2.30054 7.74757 2.30054 7.74757 2.30054C7.74756 2.30054 7.74755 2.30054 7.74755 2.30054C7.74754 2.30054 7.74753 2.30054 7.74753 2.30054C7.74752 2.30054 7.74751 2.30054 7.74751 2.30054C7.7475 2.30054 7.74749 2.30054 7.74749 2.30054C7.74748 2.30054 7.74747 2.30054 7.74747 2.30054C7.74746 2.30054 7.74746 2.30054 7.74745 2.30054C7.74744 2.30054 7.74744 2.30054 7.74743 2.30054C7.74742 2.30054 7.74742 2.30054 7.74741 2.30054C7.7474 2.30054 7.7474 2.30054 7.74739 2.30054C7.74738 2.30054 7.74738 2.30054 7.74737 2.30054C7.74736 2.30054 7.74736 2.30054 7.74735 2.30054C7.74735 2.30054 7.74734 2.30054 7.74733 2.30054C7.74733 2.30054 7.74732 2.30054 7.74731 2.30054C7.74731 2.30054 7.7473 2.30054 7.74729 2.30054C7.74729 2.30054 7.74728 2.30054 7.74727 2.30054C7.74727 2.30054 7.74726 2.30054 7.74725 2.30054C7.74725 2.30054 7.74724 2.30054 7.74724 2.30054C7.74723 2.30054 7.74722 2.30054 7.74722 2.30054C7.74721 2.30054 7.7472 2.30054 7.7472 2.30054C7.74719 2.30054 7.74718 2.30054 7.74718 2.30054C7.74717 2.30054 7.74716 2.30054 7.74716 2.30054C7.74715 2.30054 7.74714 2.30054 7.74714 2.30054C7.74713 2.30054 7.74713 2.30054 7.74712 2.30054C7.74711 2.30054 7.74711 2.30054 7.7471 2.30054C7.74709 2.30054 7.74709 2.30054 7.74708 2.30054C7.74707 2.30054 7.74707 2.30054 7.74706 2.30054C7.74705 2.30054 7.74705 2.30054 7.74704 2.30054C7.74703 2.30054 7.74703 2.30054 7.74702 2.30054C7.74702 2.30054 7.74701 2.30054 7.747 2.30054C7.747 2.30054 7.74699 2.30054 7.74698 2.30054C7.74698 2.30054 7.74697 2.30054 7.74696 2.30054C7.74696 2.30054 7.74695 2.30054 7.74694 2.30054C7.74694 2.30054 7.74693 2.30054 7.74692 2.30054C7.74692 2.30054 7.74691 2.30054 7.74691 2.30054C7.7469 2.30054 7.74689 2.30054 7.74689 2.30054C7.74688 2.30054 7.74687 2.30054 7.74687 2.30054C7.74686 2.30054 7.74685 2.30054 7.74685 2.30054C7.74684 2.30054 7.74683 2.30054 7.74683 2.30054C7.74682 2.30054 7.74681 2.30054 7.74681 2.30054C7.7468 2.30054 7.7468 2.30054 7.74679 2.30054C7.74678 2.30054 7.74678 2.30054 7.74677 2.30054C7.74676 2.30054 7.74676 2.30054 7.74675 2.30054C7.74674 2.30054 7.74674 2.30054 7.74673 2.30054C7.74672 2.30054 7.74672 2.30054 7.74671 2.30054C7.74671 2.30054 7.7467 2.30054 7.74669 2.30054C7.74669 2.30054 7.74668 2.30054 7.74667 2.30054C7.74667 2.30054 7.74666 2.30054 7.74665 2.30054C7.74665 2.30054 7.74664 2.30054 7.74663 2.30054C7.74663 2.30054 7.74662 2.30054 7.74661 2.30054C7.74661 2.30054 7.7466 2.30054 7.7466 2.30054C7.74659 2.30054 7.74658 2.30054 7.74658 2.30054C7.74657 2.30054 7.74656 2.30054 7.74656 2.30054C7.74655 2.30054 7.74654 2.30054 7.74654 2.30054C7.74653 2.30054 7.74652 2.30054 7.74652 2.30054C7.74651 2.30054 7.74651 2.30054 7.7465 2.30054C7.74649 2.30054 7.74649 2.30054 7.74648 2.30054C7.74647 2.30054 7.74647 2.30054 7.74646 2.30054C7.74645 2.30054 7.74645 2.30054 7.74644 2.30054C7.74643 2.30054 7.74643 2.30054 7.74642 2.30054C7.74641 2.30054 7.74641 2.30054 7.7464 2.30054C7.7464 2.30054 7.74639 2.30054 7.74638 2.30054C7.74638 2.30054 7.74637 2.30054 7.74636 2.30054C7.74636 2.30054 7.74635 2.30054 7.74634 2.30054C7.74634 2.30054 7.74633 2.30054 7.74632 2.30054C7.74632 2.30054 7.74631 2.30054 7.7463 2.30054C7.7463 2.30054 7.74629 2.30054 7.74629 2.30054C7.74628 2.30054 7.74627 2.30054 7.74627 2.30054C7.74626 2.30054 7.74625 2.30054 7.74625 2.30054C7.74624 2.30054 7.74623 2.30054 7.74623 2.30054C7.74622 2.30054 7.74621 2.30054 7.74621 2.30054C7.7462 2.30054 7.7462 2.30054 7.74619 2.30054C7.74618 2.30054 7.74618 2.30054 7.74617 2.30054C7.74616 2.30054 7.74616 2.30054 7.74615 2.30054C7.74614 2.30054 7.74614 2.30054 7.74613 2.30054C7.74612 2.30054 7.74612 2.30054 7.74611 2.30054C7.74611 2.30054 7.7461 2.30054 7.74609 2.30054C7.74609 2.30054 7.74608 2.30054 7.74607 2.30054C7.74607 2.30054 7.74606 2.30054 7.74605 2.30054C7.74605 2.30054 7.74604 2.30054 7.74603 2.30054C7.74603 2.30054 7.74602 2.30054 7.74601 2.30054C7.74601 2.30054 7.746 2.30054 7.746 2.30054C7.74599 2.30054 7.74598 2.30054 7.74598 2.30054C7.74597 2.30054 7.74596 2.30054 7.74596 2.30054C7.74595 2.30054 7.74594 2.30054 7.74594 2.30054C7.74593 2.30054 7.74592 2.30054 7.74592 2.30054C7.74591 2.30054 7.74591 2.30054 7.7459 2.30054C7.74589 2.30054 7.74589 2.30054 7.74588 2.30054C7.74587 2.30054 7.74587 2.30054 7.74586 2.30054C7.74585 2.30054 7.74585 2.30054 7.74584 2.30054C7.74583 2.30054 7.74583 2.30054 7.74582 2.30054C7.74581 2.30054 7.74581 2.30054 7.7458 2.30054C7.7458 2.30054 7.74579 2.30054 7.74578 2.30054C7.74578 2.30054 7.74577 2.30054 7.74576 2.30054C7.74576 2.30054 7.74575 2.30054 7.74574 2.30054C7.74574 2.30054 7.74573 2.30054 7.74572 2.30054C7.74572 2.30054 7.74571 2.30054 7.74571 2.30054C7.7457 2.30054 7.74569 2.30054 7.74569 2.30054C7.74568 2.30054 7.74567 2.30054 7.74567 2.30054C7.74566 2.30054 7.74565 2.30054 7.74565 2.30054C7.74564 2.30054 7.74563 2.30054 7.74563 2.30054C7.74562 2.30054 7.74562 2.30054 7.74561 2.30054C7.7456 2.30054 7.7456 2.30054 7.74559 2.30054C7.74558 2.30054 7.74558 2.30054 7.74557 2.30054C7.74556 2.30054 7.74556 2.30054 7.74555 2.30054C7.74554 2.30054 7.74554 2.30054 7.74553 2.30054C7.74552 2.30054 7.74552 2.30054 7.74551 2.30054C7.74551 2.30054 7.7455 2.30054 7.74549 2.30054C7.74549 2.30054 7.74548 2.30054 7.74547 2.30054C7.74547 2.30054 7.74546 2.30054 7.74545 2.30054C7.74545 2.30054 7.74544 2.30054 7.74543 2.30054C7.74543 2.30054 7.74542 2.30054 7.74542 2.30054C7.74541 2.30054 7.7454 2.30054 7.7454 2.30054C7.74539 2.30054 7.74538 2.30054 7.74538 2.30054C7.74537 2.30054 7.74536 2.30054 7.74536 2.30054C7.74535 2.30054 7.74534 2.30054 7.74534 2.30054C7.74533 2.30054 7.74533 2.30054 7.74532 2.30054C7.74531 2.30054 7.74531 2.30054 7.7453 2.30054C7.74529 2.30054 7.74529 2.30054 7.74528 2.30054C7.74527 2.30054 7.74527 2.30054 7.74526 2.30054C7.74525 2.30054 7.74525 2.30054 7.74524 2.30054C7.74523 2.30054 7.74523 2.30054 7.74522 2.30054C7.74522 2.30054 7.74521 2.30054 7.7452 2.30054C7.7452 2.30054 7.74519 2.30054 7.74518 2.30054C7.74518 2.30054 7.74517 2.30054 7.74516 2.30054C7.74516 2.30054 7.74515 2.30054 7.74514 2.30054C7.74514 2.30054 7.74513 2.30054 7.74513 2.30054C7.74512 2.30054 7.74511 2.30054 7.74511 2.30054C7.7451 2.30054 7.74509 2.30054 7.74509 2.30054C7.74508 2.30054 7.74507 2.30054 7.74507 2.30054C7.74506 2.30054 7.74505 2.30054 7.74505 2.30054C7.74504 2.30054 7.74504 2.30054 7.74503 2.30054C7.74502 2.30054 7.74502 2.30054 7.74501 2.30054C7.745 2.30054 7.745 2.30054 7.74499 2.30054C7.74498 2.30054 7.74498 2.30054 7.74497 2.30054C7.74496 2.30054 7.74496 2.30054 7.74495 2.30054C7.74494 2.30054 7.74494 2.30054 7.74493 2.30054C7.74493 2.30054 7.74492 2.30054 7.74491 2.30054C7.74491 2.30054 7.7449 2.30054 7.74489 2.30054C7.74489 2.30054 7.74488 2.30054 7.74487 2.30054C7.74487 2.30054 7.74486 2.30054 7.74485 2.30054C7.74485 2.30054 7.74484 2.30054 7.74484 2.30054C7.74483 2.30054 7.74482 2.30054 7.74482 2.30054C7.74481 2.30054 7.7448 2.30054 7.7448 2.30054C7.74479 2.30054 7.74478 2.30054 7.74478 2.30054C7.74477 2.30054 7.74476 2.30054 7.74476 2.30054C7.74475 2.30054 7.74475 2.30054 7.74474 2.30054C7.74473 2.30054 7.74473 2.30054 7.74472 2.30054C7.74471 2.30054 7.74471 2.30054 7.7447 2.30054C7.74469 2.30054 7.74469 2.30054 7.74468 2.30054C7.74467 2.30054 7.74467 2.30054 7.74466 2.30054C7.74465 2.30054 7.74465 2.30054 7.74464 2.30054C7.74464 2.30054 7.74463 2.30054 7.74462 2.30054C7.74462 2.30054 7.74461 2.30054 7.7446 2.30054C7.7446 2.30054 7.74459 2.30054 7.74458 2.30054C7.74458 2.30054 7.74457 2.30054 7.74456 2.30054C7.74456 2.30054 7.74455 2.30054 7.74455 2.30054C7.74454 2.30054 7.74453 2.30054 7.74453 2.30054C7.74452 2.30054 7.74451 2.30054 7.74451 2.30054C7.7445 2.30054 7.74449 2.30054 7.74449 2.30054C7.74448 2.30054 7.74447 2.30054 7.74447 2.30054C7.74446 2.30054 7.74446 2.30054 7.74445 2.30054C7.74444 2.30054 7.74444 2.30054 7.74443 2.30054C7.74442 2.30054 7.74442 2.30054 7.74441 2.30054C7.7444 2.30054 7.7444 2.30054 7.74439 2.30054C7.74438 2.30054 7.74438 2.30054 7.74437 2.30054C7.74436 2.30054 7.74436 2.30054 7.74435 2.30054C7.74435 2.30054 7.74434 2.30054 7.74433 2.30054C7.74433 2.30054 7.74432 2.30054 7.74431 2.30054C7.74431 2.30054 7.7443 2.30054 7.74429 2.30054C7.74429 2.30054 7.74428 2.30054 7.74427 2.30054C7.74427 2.30054 7.74426 2.30054 7.74426 2.30054C7.74425 2.30054 7.74424 2.30054 7.74424 2.30054C7.74423 2.30054 7.74422 2.30054 7.74422 2.30054C7.74421 2.30054 7.7442 2.30054 7.7442 2.30054C7.74419 2.30054 7.74418 2.30054 7.74418 2.30054C7.74417 2.30054 7.74417 2.30054 7.74416 2.30054C7.74415 2.30054 7.74415 2.30054 7.74414 2.30054C7.74413 2.30054 7.74413 2.30054 7.74412 2.30054C7.74411 2.30054 7.74411 2.30054 7.7441 2.30054C7.74409 2.30054 7.74409 2.30054 7.74408 2.30054C7.74407 2.30054 7.74407 2.30054 7.74406 2.30054C7.74406 2.30054 7.74405 2.30054 7.74404 2.30054C7.74404 2.30054 7.74403 2.30054 7.74402 2.30054C7.74402 2.30054 7.74401 2.30054 7.744 2.30054C7.744 2.30054 7.74399 2.30054 7.74398 2.30054C7.74398 2.30054 7.74397 2.30054 7.74397 2.30054C7.74396 2.30054 7.74395 2.30054 7.74395 2.30054C7.74394 2.30054 7.74393 2.30054 7.74393 2.30054C7.74392 2.30054 7.74391 2.30054 7.74391 2.30054C7.7439 2.30054 7.74389 2.30054 7.74389 2.30054C7.74388 2.30054 7.74387 2.30054 7.74387 2.30054C7.74386 2.30054 7.74386 2.30054 7.74385 2.30054C7.74384 2.30054 7.74384 2.30054 7.74383 2.30054C7.74382 2.30054 7.74382 2.30054 7.74381 2.30054C7.7438 2.30054 7.7438 2.30054 7.74379 2.30054C7.74378 2.30054 7.74378 2.30054 7.74377 2.30054C7.74376 2.30054 7.74376 2.30054 7.74375 2.30054C7.74375 2.30054 7.74374 2.30054 7.74373 2.30054C7.74373 2.30054 7.74372 2.30054 7.74371 2.30054C7.74371 2.30054 7.7437 2.30054 7.74369 2.30054C7.74369 2.30054 7.74368 2.30054 7.74367 2.30054C7.74367 2.30054 7.74366 2.30054 7.74366 2.30054C7.74365 2.30054 7.74364 2.30054 7.74364 2.30054C7.74363 2.30054 7.74362 2.30054 7.74362 2.30054C7.74361 2.30054 7.7436 2.30054 7.7436 2.30054C7.74359 2.30054 7.74358 2.30054 7.74358 2.30054C7.74357 2.30054 7.74356 2.30054 7.74356 2.30054C7.74355 2.30054 7.74355 2.30054 7.74354 2.30054C7.74353 2.30054 7.74353 2.30054 7.74352 2.30054C7.74351 2.30054 7.74351 2.30054 7.7435 2.30054C7.74349 2.30054 7.74349 2.30054 7.74348 2.30054C7.74347 2.30054 7.74347 2.30054 7.74346 2.30054C7.74346 2.30054 7.74345 2.30054 7.74344 2.30054C7.74344 2.30054 7.74343 2.30054 7.74342 2.30054C7.74342 2.30054 7.74341 2.30054 7.7434 2.30054C7.7434 2.30054 7.74339 2.30054 7.74338 2.30054C7.74338 2.30054 7.74337 2.30054 7.74336 2.30054C7.74336 2.30054 7.74335 2.30054 7.74335 2.30054C7.74334 2.30054 7.74333 2.30054 7.74333 2.30054C7.74332 2.30054 7.74331 2.30054 7.74331 2.30054C7.7433 2.30054 7.74329 2.30054 7.74329 2.30054C7.74328 2.30054 7.74327 2.30054 7.74327 2.30054C7.74326 2.30054 7.74325 2.30054 7.74325 2.30054C7.74324 2.30054 7.74324 2.30054 7.74323 2.30054C7.74322 2.30054 7.74322 2.30054 7.74321 2.30054C7.7432 2.30054 7.7432 2.30054 7.74319 2.30054C7.74318 2.30054 7.74318 2.30054 7.74317 2.30054C7.74316 2.30054 7.74316 2.30054 7.74315 2.30054C7.74314 2.30054 7.74314 2.30054 7.74313 2.30054C7.74313 2.30054 7.74312 2.30054 7.74311 2.30054C7.74311 2.30054 7.7431 2.30054 7.74309 2.30054C7.74309 2.30054 7.74308 2.30054 7.74307 2.30054C7.74307 2.30054 7.74306 2.30054 7.74305 2.30054C7.74305 2.30054 7.74304 2.30054 7.74303 2.30054C7.74303 2.30054 7.74302 2.30054 7.74302 2.30054C7.74301 2.30054 7.743 2.30054 7.743 2.30054C7.74299 2.30054 7.74298 2.30054 7.74298 2.30054C7.74297 2.30054 7.74296 2.30054 7.74296 2.30054C7.74295 2.30054 7.74294 2.30054 7.74294 2.30054C7.74293 2.30054 7.74292 2.30054 7.74292 2.30054C7.74291 2.30054 7.74291 2.30054 7.7429 2.30054C7.74289 2.30054 7.74289 2.30054 7.74288 2.30054C7.74287 2.30054 7.74287 2.30054 7.74286 2.30054C7.74285 2.30054 7.74285 2.30054 7.74284 2.30054C7.74283 2.30054 7.74283 2.30054 7.74282 2.30054C7.74281 2.30054 7.74281 2.30054 7.7428 2.30054C7.7428 2.30054 7.74279 2.30054 7.74278 2.30054C7.74278 2.30054 7.74277 2.30054 7.74276 2.30054C7.74276 2.30054 7.74275 2.30054 7.74274 2.30054C7.74274 2.30054 7.74273 2.30054 7.74272 2.30054C7.74272 2.30054 7.74271 2.30054 7.7427 2.30054C7.7427 2.30054 7.74269 2.30054 7.74269 2.30054C7.74268 2.30054 7.74267 2.30054 7.74267 2.30054C7.74266 2.30054 7.74265 2.30054 7.74265 2.30054C7.74264 2.30054 7.74263 2.30054 7.74263 2.30054C7.74262 2.30054 7.74261 2.30054 7.74261 2.30054C7.7426 2.30054 7.74259 2.30054 7.74259 2.30054C7.74258 2.30054 7.74257 2.30054 7.74257 2.30054C7.74256 2.30054 7.74256 2.30054 7.74255 2.30054C7.74254 2.30054 7.74254 2.30054 7.74253 2.30054C7.74252 2.30054 7.74252 2.30054 7.74251 2.30054C7.7425 2.30054 7.7425 2.30054 7.74249 2.30054C7.74248 2.30054 7.74248 2.30054 7.74247 2.30054C7.74246 2.30054 7.74246 2.30054 7.74245 2.30054C7.74245 2.30054 7.74244 2.30054 7.74243 2.30054C7.74243 2.30054 7.74242 2.30054 7.74241 2.30054C7.74241 2.30054 7.7424 2.30054 7.74239 2.30054C7.74239 2.30054 7.74238 2.30054 7.74237 2.30054C7.74237 2.30054 7.74236 2.30054 7.74235 2.30054C7.74235 2.30054 7.74234 2.30054 7.74233 2.30054C7.74233 2.30054 7.74232 2.30054 7.74232 2.30054C7.74231 2.30054 7.7423 2.30054 7.7423 2.30054C7.74229 2.30054 7.74228 2.30054 7.74228 2.30054C7.74227 2.30054 7.74226 2.30054 7.74226 2.30054C7.74225 2.30054 7.74224 2.30054 7.74224 2.30054C7.74223 2.30054 7.74222 2.30054 7.74222 2.30054C7.74221 2.30054 7.7422 2.30054 7.7422 2.30054C7.74219 2.30054 7.74219 2.30054 7.74218 2.30054C7.74217 2.30054 7.74217 2.30054 7.74216 2.30054C7.74215 2.30054 7.74215 2.30054 7.74214 2.30054C7.74213 2.30054 7.74213 2.30054 7.74212 2.30054C7.74211 2.30054 7.74211 2.30054 7.7421 2.30054C7.74209 2.30054 7.74209 2.30054 7.74208 2.30054C7.74207 2.30054 7.74207 2.30054 7.74206 2.30054C7.74206 2.30054 7.74205 2.30054 7.74204 2.30054C7.74204 2.30054 7.74203 2.30054 7.74202 2.30054C7.74202 2.30054 7.74201 2.30054 7.742 2.30054C7.742 2.30054 7.74199 2.30054 7.74198 2.30054C7.74198 2.30054 7.74197 2.30054 7.74196 2.30054C7.74196 2.30054 7.74195 2.30054 7.74194 2.30054C7.74194 2.30054 7.74193 2.30054 7.74193 2.30054C7.74192 2.30054 7.74191 2.30054 7.74191 2.30054C7.7419 2.30054 7.74189 2.30054 7.74189 2.30054C7.74188 2.30054 7.74187 2.30054 7.74187 2.30054C7.74186 2.30054 7.74185 2.30054 7.74185 2.30054C7.74184 2.30054 7.74183 2.30054 7.74183 2.30054C7.74182 2.30054 7.74181 2.30054 7.74181 2.30054C7.7418 2.30054 7.7418 2.30054 7.74179 2.30054C7.74178 2.30054 7.74178 2.30054 7.74177 2.30054C7.74176 2.30054 7.74176 2.30054 7.74175 2.30054C7.74174 2.30054 7.74174 2.30054 7.74173 2.30054C7.74172 2.30054 7.74172 2.30054 7.74171 2.30054C7.7417 2.30054 7.7417 2.30054 7.74169 2.30054C7.74168 2.30054 7.74168 2.30054 7.74167 2.30054C7.74166 2.30054 7.74166 2.30054 7.74165 2.30054C7.74165 2.30054 7.74164 2.30054 7.74163 2.30054C7.74163 2.30054 7.74162 2.30054 7.74161 2.30054C7.74161 2.30054 7.7416 2.30054 7.74159 2.30054C7.74159 2.30054 7.74158 2.30054 7.74157 2.30054C7.74157 2.30054 7.74156 2.30054 7.74155 2.30054C7.74155 2.30054 7.74154 2.30054 7.74153 2.30054C7.74153 2.30054 7.74152 2.30054 7.74151 2.30054C7.74151 2.30054 7.7415 2.30054 7.7415 2.30054C7.74149 2.30054 7.74148 2.30054 7.74148 2.30054C7.74147 2.30054 7.74146 2.30054 7.74146 2.30054C7.74145 2.30054 7.74144 2.30054 7.74144 2.30054C7.74143 2.30054 7.74142 2.30054 7.74142 2.30054C7.74141 2.30054 7.7414 2.30054 7.7414 2.30054C7.74139 2.30054 7.74138 2.30054 7.74138 2.30054C7.74137 2.30054 7.74136 2.30054 7.74136 2.30054C7.74135 2.30054 7.74135 2.30054 7.74134 2.30054C7.74133 2.30054 7.74133 2.30054 7.74132 2.30054C7.74131 2.30054 7.74131 2.30054 7.7413 2.30054C7.74129 2.30054 7.74129 2.30054 7.74128 2.30054C7.74127 2.30054 7.74127 2.30054 7.74126 2.30054C7.74125 2.30054 7.74125 2.30054 7.74124 2.30054C7.74123 2.30054 7.74123 2.30054 7.74122 2.30054C7.74121 2.30054 7.74121 2.30054 7.7412 2.30054C7.74119 2.30054 7.74119 2.30054 7.74118 2.30054C7.74118 2.30054 7.74117 2.30054 7.74116 2.30054C7.74116 2.30054 7.74115 2.30054 7.74114 2.30054C7.74114 2.30054 7.74113 2.30054 7.74112 2.30054C7.74112 2.30054 7.74111 2.30054 7.7411 2.30054C7.7411 2.30054 7.74109 2.30054 7.74108 2.30054C7.74108 2.30054 7.74107 2.30054 7.74106 2.30054C7.74106 2.30054 7.74105 2.30054 7.74104 2.30054C7.74104 2.30054 7.74103 2.30054 7.74102 2.30054C7.74102 2.30054 7.74101 2.30054 7.74101 2.30054C7.741 2.30054 7.74099 2.30054 7.74099 2.30054C7.74098 2.30054 7.74097 2.30054 7.74097 2.30054C7.74096 2.30054 7.74095 2.30054 7.74095 2.30054C7.74094 2.30054 7.74093 2.30054 7.74093 2.30054C7.74092 2.30054 7.74091 2.30054 7.74091 2.30054C7.7409 2.30054 7.74089 2.30054 7.74089 2.30054C7.74088 2.30054 7.74087 2.30054 7.74087 2.30054C7.74086 2.30054 7.74085 2.30054 7.74085 2.30054C7.74084 2.30054 7.74083 2.30054 7.74083 2.30054C7.74082 2.30054 7.74082 2.30054 7.74081 2.30054C7.7408 2.30054 7.7408 2.30054 7.74079 2.30054C7.74078 2.30054 7.74078 2.30054 7.74077 2.30054C7.74076 2.30054 7.74076 2.30054 7.74075 2.30054C7.74074 2.30054 7.74074 2.30054 7.74073 2.30054C7.74072 2.30054 7.74072 2.30054 7.74071 2.30054C7.7407 2.30054 7.7407 2.30054 7.74069 2.30054C7.74068 2.30054 7.74068 2.30054 7.74067 2.30054C7.74066 2.30054 7.74066 2.30054 7.74065 2.30054C7.74064 2.30054 7.74064 2.30054 7.74063 2.30054C7.74062 2.30054 7.74062 2.30054 7.74061 2.30054C7.7406 2.30054 7.7406 2.30054 7.74059 2.30054C7.74059 2.30054 7.74058 2.30054 7.74057 2.30054C7.74057 2.30054 7.74056 2.30054 7.74055 2.30054C7.74055 2.30054 7.74054 2.30054 7.74053 2.30054C7.74053 2.30054 7.74052 2.30054 7.74051 2.30054C7.74051 2.30054 7.7405 2.30054 7.74049 2.30054C7.74049 2.30054 7.74048 2.30054 7.74047 2.30054C7.74047 2.30054 7.74046 2.30054 7.74045 2.30054C7.74045 2.30054 7.74044 2.30054 7.74043 2.30054C7.74043 2.30054 7.74042 2.30054 7.74041 2.30054C7.74041 2.30054 7.7404 2.30054 7.74039 2.30054C7.74039 2.30054 7.74038 2.30054 7.74037 2.30054C7.74037 2.30054 7.74036 2.30054 7.74036 2.30054C7.74035 2.30054 7.74034 2.30054 7.74034 2.30054C7.74033 2.30054 7.74032 2.30054 7.74032 2.30054C7.74031 2.30054 7.7403 2.30054 7.7403 2.30054C7.74029 2.30054 7.74028 2.30054 7.74028 2.30054C7.74027 2.30054 7.74026 2.30054 7.74026 2.30054C7.74025 2.30054 7.74024 2.30054 7.74024 2.30054C7.74023 2.30054 7.74022 2.30054 7.74022 2.30054C7.74021 2.30054 7.7402 2.30054 7.7402 2.30054C7.74019 2.30054 7.74018 2.30054 7.74018 2.30054V3.30054ZM7.75015 3.30054V4.30054C7.58566 4.30054 7.4262 4.23429 7.31034 4.11843L8.01745 3.41132L8.72455 2.70422C8.46568 2.44534 8.11657 2.30054 7.75015 2.30054V3.30054ZM8.01745 3.41132L7.31034 4.11843C7.19454 4.00263 7.12823 3.84341 7.12823 3.67862H8.12823H9.12823C9.12823 3.31189 8.98305 2.96272 8.72455 2.70422L8.01745 3.41132ZM8.12823 3.67862H7.12823V7.25857H8.12823H9.12823V3.67862H8.12823ZM8.12823 7.25857L8.49159 8.19021L10.7699 7.30163L10.4065 6.36998L10.0432 5.43834L7.76487 6.32692L8.12823 7.25857ZM10.4065 6.36998L10.7576 7.30634L10.7588 7.30588L10.4078 6.36952L10.0567 5.43317L10.0555 5.43363L10.4065 6.36998ZM10.4078 6.36952L10.7466 7.31037C10.679 7.33471 10.6063 7.34774 10.532 7.34774V6.34774V5.34774C10.3731 5.34774 10.2166 5.3755 10.0689 5.42868L10.4078 6.36952ZM10.532 6.34774V7.34774C10.2649 7.34774 10.0274 7.18123 9.93647 6.92961L10.877 6.58987L11.8175 6.25012C11.622 5.7088 11.107 5.34774 10.532 5.34774V6.34774ZM10.877 6.58987L9.93656 6.92987C9.91159 6.8608 9.89877 6.78765 9.89877 6.71431H10.8988H11.8988C11.8988 6.55565 11.8712 6.39872 11.8174 6.24987L10.877 6.58987ZM10.8988 6.71431H9.89877C9.89877 6.44773 10.0646 6.21062 10.3151 6.11922L10.6579 7.05863L11.0007 7.99804C11.5396 7.80138 11.8988 7.28777 11.8988 6.71431H10.8988ZM10.6579 7.05863L10.2945 6.127L7.62595 7.16795L7.98937 8.09958L8.35278 9.03121L11.0213 7.99026L10.6579 7.05863ZM7.98937 8.09958L7.62679 7.16763C7.68598 7.1446 7.75336 7.13088 7.82457 7.13088V8.13088V9.13088C8.0081 9.13088 8.18626 9.09599 8.35194 9.03153L7.98937 8.09958ZM7.82457 8.13088L8.71845 7.68257L8.7183 7.68227L7.82442 8.13058L6.93054 8.57888L6.93069 8.57919L7.82457 8.13088Z" fill="#4F4F4F" mask="url(#path-2-inside-1_4201_263)"/>
</svg>