<svg xmlns="http://www.w3.org/2000/svg" width="17" height="21" viewBox="0 0 17 21" fill="none">
  <path d="M6.1239 10.5727C4.01571 10.587 3.92019 6.63597 3.91974 6.57059C3.91862 6.40595 3.86412 6.24408 3.76403 6.11159C3.66393 5.97667 3.52083 5.87594 3.3577 5.82136C3.1971 5.76676 3.02157 5.75827 2.85655 5.80055C2.69153 5.84284 2.54208 5.93102 2.43101 6.05285C1.37632 7.28282 0.630826 8.72861 0.257324 10.276C-0.926142 16.1317 2.27379 18.8413 3.69643 19.7372C4.95296 20.5156 6.42314 20.9221 7.92349 20.9046C10.1232 20.8897 12.2336 20.0666 13.8131 18.6079C14.9731 17.5225 15.7903 16.1512 16.1742 14.6449C16.5582 13.1387 16.4864 11.5628 15.9755 10.0941C15.3902 8.54354 14.389 7.16774 13.072 6.09675C11.3485 4.72101 10.224 2.7867 9.91456 0.665247C9.88811 0.515301 9.81851 0.377755 9.71347 0.264663C9.60843 0.151572 9.47055 0.0701822 9.32021 0.027619C9.17245 -0.0101188 9.01478 -0.0090471 8.865 0.0307131C8.71777 0.0704561 8.58351 0.148853 8.47744 0.258536C8.38401 0.356027 6.20761 2.68324 7.31619 6.76301C7.74136 8.32676 7.70621 9.5159 7.2296 10.1124C6.9545 10.4218 6.5462 10.5916 6.1239 10.5727Z" fill="#E86F56"/>
</svg>