<svg width="22" height="28" viewBox="0 0 22 28" fill="none" xmlns="http://www.w3.org/2000/svg">
<g filter="url(#filter0_b_1412_3147)">
<path d="M8.22567 14.1394C5.40071 14.1394 5.3087 8.84446 5.3087 8.75685C5.3087 8.53623 5.23714 8.31885 5.10424 8.1404C4.97134 7.95871 4.78051 7.82244 4.56242 7.74782C4.34774 7.6732 4.11261 7.66022 3.89111 7.71538C3.66961 7.77053 3.46856 7.88733 3.31862 8.04956C1.89422 9.68802 0.882138 11.6185 0.36758 13.6885C-1.27151 21.5239 2.99149 25.1837 4.88956 26.3971C6.56613 27.4516 8.53236 28.0096 10.5429 27.9999C13.4905 27.9999 16.3257 26.9162 18.4555 24.976C20.0196 23.5322 21.1271 21.7023 21.6553 19.6875C22.1835 17.6727 22.1017 15.5605 21.4304 13.5879C20.6603 11.5049 19.3313 9.65233 17.5763 8.20529C15.2795 6.34621 13.7904 3.74413 13.3951 0.898721C13.361 0.697563 13.269 0.512628 13.1293 0.360137C12.9896 0.207647 12.8056 0.0973344 12.6045 0.0389338C12.4069 -0.0129779 12.1956 -0.0129779 11.9945 0.0389338C11.7969 0.0908455 11.6163 0.194669 11.4732 0.34067C11.3471 0.47045 8.40968 3.56893 9.85794 9.04561C10.4134 11.1448 10.3555 12.7378 9.71141 13.5327C9.33997 13.9448 8.79134 14.1686 8.22567 14.1394Z" fill="url(#paint0_linear_1412_3147)"/>
<path d="M4.88956 26.3971C6.56613 27.4516 8.53236 28.0096 10.5429 27.9999C13.4905 27.9999 16.3257 26.9162 18.4555 24.976M4.88956 26.3971L5.15887 25.9758C5.15839 25.9755 5.1579 25.9752 5.15742 25.9749M4.88956 26.3971C2.99149 25.1837 -1.27151 21.5239 0.36758 13.6885M4.88956 26.3971L5.15575 25.9739C5.15631 25.9742 5.15686 25.9745 5.15742 25.9749M5.15742 25.9749C6.75205 26.9774 8.62425 27.5092 10.5405 27.4999L10.5429 27.4999C13.3686 27.4999 16.0823 26.461 18.1176 24.6075M5.15742 25.9749C4.25393 25.3971 2.78734 24.236 1.74269 22.2896C0.703769 20.3538 0.0613641 17.6036 0.855066 13.8M18.1176 24.6075C18.1172 24.6078 18.1168 24.6082 18.1164 24.6086L18.4555 24.976M18.1176 24.6075C18.118 24.6071 18.1184 24.6067 18.1188 24.6064L18.4555 24.976M18.1176 24.6075C19.6126 23.2271 20.6684 21.4805 21.1716 19.5607C21.6741 17.6439 21.5973 15.6341 20.9591 13.7551M18.4555 24.976C20.0196 23.5322 21.1271 21.7023 21.6553 19.6875C22.1835 17.6727 22.1017 15.5605 21.4304 13.5879M21.4304 13.5879L20.9614 13.7613C20.9607 13.7592 20.9599 13.7572 20.9591 13.7551M21.4304 13.5879C20.6603 11.5049 19.3313 9.65233 17.5763 8.20529M21.4304 13.5879L20.957 13.749C20.9577 13.751 20.9584 13.7531 20.9591 13.7551M20.9591 13.7551C20.2205 11.7608 18.9463 9.98345 17.26 8.59254M17.5763 8.20529L17.2617 8.59393C17.2612 8.59347 17.2606 8.593 17.26 8.59254M17.5763 8.20529C15.2795 6.34621 13.7904 3.74413 13.3951 0.898721M17.5763 8.20529L17.2582 8.59107C17.2588 8.59156 17.2594 8.59205 17.26 8.59254M17.26 8.59254C14.871 6.6581 13.316 3.947 12.901 0.976006M13.3951 0.898721L12.9021 0.982233C12.9018 0.980155 12.9014 0.978079 12.901 0.976006M13.3951 0.898721C13.361 0.697563 13.269 0.512628 13.1293 0.360137C12.9896 0.207647 12.8056 0.0973344 12.6045 0.0389338M13.3951 0.898721L12.8999 0.967521C12.9003 0.97035 12.9006 0.973178 12.901 0.976006M12.901 0.976006C12.8827 0.87518 12.8359 0.780029 12.7606 0.697909C12.6883 0.618925 12.5878 0.555935 12.4713 0.52093M12.6045 0.0389338L12.4775 0.522531C12.4754 0.521988 12.4734 0.521454 12.4713 0.52093M12.6045 0.0389338C12.4069 -0.0129779 12.1956 -0.0129779 11.9945 0.0389338M12.6045 0.0389338L12.465 0.519087C12.4671 0.519693 12.4692 0.520307 12.4713 0.52093M12.4713 0.52093C12.3596 0.492746 12.2379 0.492693 12.1206 0.522794M11.9945 0.0389338L12.1216 0.522531C12.1212 0.522619 12.1209 0.522706 12.1206 0.522794M11.9945 0.0389338C11.7969 0.0908455 11.6163 0.194669 11.4732 0.34067M11.9945 0.0389338L12.1195 0.523057C12.1199 0.522969 12.1202 0.522882 12.1206 0.522794M12.1206 0.522794C12.0095 0.552147 11.9095 0.610116 11.831 0.689902M11.4732 0.34067L11.8318 0.689082C11.8316 0.689323 11.8313 0.689596 11.831 0.689902M11.4732 0.34067C11.3471 0.47045 8.40968 3.56893 9.85794 9.04561M11.4732 0.34067L11.8302 0.690685C11.8305 0.690424 11.8307 0.690163 11.831 0.689902M11.831 0.689902C11.7436 0.780209 8.96233 3.70289 10.3413 8.91771M9.85794 9.04561L10.3413 8.91771M9.85794 9.04561C10.4134 11.1448 10.3555 12.7378 9.71141 13.5327C9.33997 13.9448 8.79134 14.1686 8.22567 14.1394M9.85794 9.04561L10.3413 8.91779C10.3413 8.91776 10.3413 8.91774 10.3413 8.91771M10.3413 8.91771C10.6271 9.99784 10.7619 10.9716 10.7342 11.7951C10.7068 12.6109 10.5176 13.3319 10.0999 13.8475L10.0916 13.8577L10.0828 13.8675C9.61085 14.3911 8.92058 14.6721 8.21288 14.6394M8.21288 14.6394C8.21714 14.6394 8.2214 14.6394 8.22567 14.6394V14.1394M8.21288 14.6394C8.20855 14.6392 8.20422 14.639 8.19989 14.6388L8.22567 14.1394M8.21288 14.6394C7.33116 14.6354 6.6672 14.2112 6.1906 13.6267C5.72303 13.0533 5.4232 12.3144 5.22657 11.6166C4.83257 10.2185 4.8087 8.82082 4.8087 8.75685C4.8087 8.64356 4.77169 8.53098 4.70323 8.43906L4.70066 8.4356L4.70068 8.43559C4.63199 8.34168 4.52797 8.26449 4.40055 8.22089L4.39826 8.22011C4.2721 8.17625 4.13596 8.16967 4.01193 8.20056C3.88291 8.23269 3.77067 8.29913 3.69023 8.3842M8.22567 14.1394C5.40071 14.1394 5.3087 8.84446 5.3087 8.75685C5.3087 8.53623 5.23714 8.31885 5.10424 8.1404C4.97134 7.95871 4.78051 7.82244 4.56242 7.74782C4.34774 7.6732 4.11261 7.66022 3.89111 7.71538C3.66961 7.77053 3.46856 7.88733 3.31862 8.04956M3.69023 8.3842C3.69214 8.382 3.69405 8.3798 3.69596 8.3776L3.31862 8.04956M3.69023 8.3842C2.32156 9.9606 1.35013 11.8147 0.855066 13.8M3.69023 8.3842C3.68875 8.38577 3.68727 8.38735 3.68581 8.38893L3.31862 8.04956M3.31862 8.04956C1.89422 9.68802 0.882138 11.6185 0.36758 13.6885M0.36758 13.6885L0.856986 13.7908C0.856345 13.7939 0.855705 13.797 0.855066 13.8M0.36758 13.6885L0.852812 13.8091C0.853563 13.8061 0.854314 13.8031 0.855066 13.8" stroke="white"/>
</g>
<defs>
<filter id="filter0_b_1412_3147" x="-1.81818" y="-1.81818" width="25.6364" height="31.6364" filterUnits="userSpaceOnUse" color-interpolation-filters="sRGB">
<feFlood flood-opacity="0" result="BackgroundImageFix"/>
<feGaussianBlur in="BackgroundImageFix" stdDeviation="0.909091"/>
<feComposite in2="SourceAlpha" operator="in" result="effect1_backgroundBlur_1412_3147"/>
<feBlend mode="normal" in="SourceGraphic" in2="effect1_backgroundBlur_1412_3147" result="shape"/>
</filter>
<linearGradient id="paint0_linear_1412_3147" x1="10" y1="0.5" x2="10" y2="29.5" gradientUnits="userSpaceOnUse">
<stop stop-color="#FFA14E"/>
<stop offset="1" stop-color="#DC3F1F"/>
</linearGradient>
</defs>
</svg>
