<svg width="22" height="24" viewBox="0 0 22 24" fill="none" xmlns="http://www.w3.org/2000/svg">
<path d="M11 22.2345C16.523 22.2345 21 17.647 21 11.9876C21 6.32827 16.523 1.74072 11 1.74072C5.477 1.74072 1 6.32827 1 11.9876C1 17.647 5.477 22.2345 11 22.2345Z" stroke="#4F4F4F" stroke-width="2" stroke-linecap="round" stroke-linejoin="round"/>
<path d="M7.00001 2.76538H8.00001C6.05004 8.75118 6.05004 15.224 8.00001 21.2098H7.00001M14 2.76538C15.95 8.75118 15.95 15.224 14 21.2098" stroke="#4F4F4F" stroke-width="2" stroke-linecap="round" stroke-linejoin="round"/>
<path d="M2 16.0864V15.0617C7.84157 17.0598 14.1584 17.0598 20 15.0617V16.0864M2 8.91356C7.84157 6.91545 14.1584 6.91545 20 8.91356" stroke="#4F4F4F" stroke-width="2" stroke-linecap="round" stroke-linejoin="round"/>
</svg>
