<svg width="21" height="20" viewBox="0 0 21 20" fill="none" xmlns="http://www.w3.org/2000/svg">
<path d="M13.6667 4.68749C13.6667 5.10484 13.6345 5.40108 13.5589 5.68826C13.4818 5.98101 13.3478 6.30887 13.0979 6.77613C12.7653 7.39791 12.2819 8.17206 11.5601 9.328C11.2521 9.82109 10.9008 10.3837 10.4993 11.0335C10.0946 10.3777 9.74084 9.81091 9.43115 9.31465C8.71451 8.16628 8.23374 7.39589 7.90243 6.77642C7.6525 6.30912 7.51842 5.98124 7.44126 5.68843C7.36558 5.40122 7.33334 5.10492 7.33334 4.68749C7.33334 2.53696 8.85784 1 10.5 1C12.1422 1 13.6667 2.53696 13.6667 4.68749Z" stroke="#E86F56" stroke-width="2"/>
<path d="M7.51779 16.5637L7.14668 16.4245L6.781 16.5774L1.5 18.7848V9.70258L5.12159 8.22151C5.53249 9.01471 6.10346 9.93238 6.86268 11.1492C6.86269 11.1493 6.86269 11.1493 6.8627 11.1493L6.88619 11.1869C7.28954 11.8335 7.75867 12.5854 8.30554 13.4772C8.77214 14.2422 9.58345 14.75 10.5 14.75C11.4162 14.75 12.2252 14.2439 12.6931 13.4833L12.6939 13.4821C12.8608 13.2098 13.1547 12.735 13.4925 12.1893C14.1346 11.1523 14.9352 9.85911 15.3244 9.21224L19.5 7.47639V16.546L13.8132 18.9245L7.51779 16.5637Z" stroke="#E86F56" stroke-width="2"/>
</svg>
