<svg width="24" height="24" viewBox="0 0 24 24" fill="none" xmlns="http://www.w3.org/2000/svg">
<g clip-path="url(#clip0_467_50)">
<path d="M22.5 10.5H20.865C20.2312 6.73125 17.2687 3.76781 13.5 3.135V1.45781C13.5 0.629531 12.8283 0 12.0422 0C11.2561 0 10.5 0.671719 10.5 1.45781V3.135C6.73125 3.76781 3.76781 6.73125 3.135 10.5H1.45781C0.671719 10.5 0 11.1703 0 11.9578C0 12.7453 0.671719 13.5 1.45781 13.5H3.09281C3.76781 17.2687 6.73125 20.2313 10.5 20.8641V22.4991C10.5 23.3297 11.1703 23.9578 11.9578 23.9578C12.7453 23.9578 13.5 23.3297 13.5 22.5V20.865C17.2687 20.2312 20.2313 17.2687 20.8641 13.5H22.4991C23.3297 13.5 24 12.8297 24 12C24 11.1703 23.3297 10.5 22.5 10.5ZM12 18C8.68359 18 6 15.3164 6 12C6 8.68359 8.68359 6 12 6C15.3164 6 18 8.68359 18 12C18 15.3164 15.3188 18 12 18Z" fill="#757575"/>
<path d="M12 7.875C9.72188 7.875 7.875 9.72188 7.875 12C7.875 14.2781 9.72094 16.125 12 16.125C14.2791 16.125 16.125 14.2781 16.125 12C16.125 9.72188 14.2781 7.875 12 7.875Z" fill="#757575"/>
</g>
<defs>
<clipPath id="clip0_467_50">
<rect width="24" height="24" fill="white"/>
</clipPath>
</defs>
</svg>