<svg width="66" height="55" viewBox="0 0 66 55" fill="none" xmlns="http://www.w3.org/2000/svg">
<path d="M30.679 54.9956C45.5934 54.9956 57.6839 42.8181 57.6839 27.7963C57.6839 12.7746 45.5934 0.597107 30.679 0.597107C15.7646 0.597107 3.67403 12.7746 3.67403 27.7963C3.67403 42.8181 15.7646 54.9956 30.679 54.9956Z" fill="#0B3D91"/>
<path d="M29.0844 6.1267C29.2516 6.1267 29.3871 5.99021 29.3871 5.82184C29.3871 5.65346 29.2516 5.51697 29.0844 5.51697C28.9173 5.51697 28.7817 5.65346 28.7817 5.82184C28.7817 5.99021 28.9173 6.1267 29.0844 6.1267Z" fill="white"/>
<path d="M32.1926 6.53338C32.3598 6.53338 32.4953 6.39689 32.4953 6.22851C32.4953 6.06014 32.3598 5.92365 32.1926 5.92365C32.0255 5.92365 31.8899 6.06014 31.8899 6.22851C31.8899 6.39689 32.0255 6.53338 32.1926 6.53338Z" fill="white"/>
<path d="M36.2696 12.0628C36.4367 12.0628 36.5722 11.9263 36.5722 11.7579C36.5722 11.5895 36.4367 11.453 36.2696 11.453C36.1024 11.453 35.9669 11.5895 35.9669 11.7579C35.9669 11.9263 36.1024 12.0628 36.2696 12.0628Z" fill="white"/>
<path d="M13.9067 40.5222C14.0739 40.5222 14.2094 40.3857 14.2094 40.2173C14.2094 40.0489 14.0739 39.9124 13.9067 39.9124C13.7396 39.9124 13.604 40.0489 13.604 40.2173C13.604 40.3857 13.7396 40.5222 13.9067 40.5222Z" fill="white"/>
<path d="M14.6939 42.9617C14.8611 42.9617 14.9966 42.8252 14.9966 42.6568C14.9966 42.4885 14.8611 42.352 14.6939 42.352C14.5267 42.352 14.3912 42.4885 14.3912 42.6568C14.3912 42.8252 14.5267 42.9617 14.6939 42.9617Z" fill="white"/>
<path d="M10.9398 40.8081C11.065 40.8081 11.1665 40.7066 11.1665 40.5814C11.1665 40.4563 11.065 40.3548 10.9398 40.3548C10.8146 40.3548 10.7131 40.4563 10.7131 40.5814C10.7131 40.7066 10.8146 40.8081 10.9398 40.8081Z" fill="white"/>
<path d="M23.2515 45.6008C23.3771 45.6008 23.4789 45.499 23.4789 45.3734C23.4789 45.2479 23.3771 45.1461 23.2515 45.1461C23.126 45.1461 23.0242 45.2479 23.0242 45.3734C23.0242 45.499 23.126 45.6008 23.2515 45.6008Z" fill="white"/>
<path d="M42.5614 41.5602C42.6866 41.5602 42.7881 41.4588 42.7881 41.3336C42.7881 41.2084 42.6866 41.1069 42.5614 41.1069C42.4362 41.1069 42.3347 41.2084 42.3347 41.3336C42.3347 41.4588 42.4362 41.5602 42.5614 41.5602Z" fill="white"/>
<path d="M48.1729 35.4218C48.2985 35.4218 48.4003 35.32 48.4003 35.1944C48.4003 35.0689 48.2985 34.9671 48.1729 34.9671C48.0474 34.9671 47.9456 35.0689 47.9456 35.1944C47.9456 35.32 48.0474 35.4218 48.1729 35.4218Z" fill="white"/>
<path d="M20.6681 13.766C20.7933 13.766 20.8948 13.6646 20.8948 13.5394C20.8948 13.4142 20.7933 13.3127 20.6681 13.3127C20.5429 13.3127 20.4414 13.4142 20.4414 13.5394C20.4414 13.6646 20.5429 13.766 20.6681 13.766Z" fill="white"/>
<path d="M26.8441 9.19781C26.9693 9.19781 27.0708 9.09632 27.0708 8.97113C27.0708 8.84593 26.9693 8.74445 26.8441 8.74445C26.7189 8.74445 26.6174 8.84593 26.6174 8.97113C26.6174 9.09632 26.7189 9.19781 26.8441 9.19781Z" fill="white"/>
<path d="M26.1734 8.75054C26.2986 8.75054 26.4001 8.64905 26.4001 8.52386C26.4001 8.39867 26.2986 8.29718 26.1734 8.29718C26.0482 8.29718 25.9467 8.39867 25.9467 8.52386C25.9467 8.64905 26.0482 8.75054 26.1734 8.75054Z" fill="white"/>
<path d="M25.5679 8.30346C25.6931 8.30346 25.7946 8.20197 25.7946 8.07678C25.7946 7.95159 25.6931 7.8501 25.5679 7.8501C25.4427 7.8501 25.3412 7.95159 25.3412 8.07678C25.3412 8.20197 25.4427 8.30346 25.5679 8.30346Z" fill="white"/>
<path d="M21.6369 14.9459C21.7621 14.9459 21.8635 14.8445 21.8635 14.7193C21.8635 14.5941 21.7621 14.4926 21.6369 14.4926C21.5117 14.4926 21.4102 14.5941 21.4102 14.7193C21.4102 14.8445 21.5117 14.9459 21.6369 14.9459Z" fill="white"/>
<path d="M30.734 3.05871C30.8592 3.05871 30.9607 2.95722 30.9607 2.83203C30.9607 2.70684 30.8592 2.60535 30.734 2.60535C30.6088 2.60535 30.5074 2.70684 30.5074 2.83203C30.5074 2.95722 30.6088 3.05871 30.734 3.05871Z" fill="white"/>
<path d="M32.2283 9.6452C32.3535 9.6452 32.455 9.54371 32.455 9.41852C32.455 9.29332 32.3535 9.19183 32.2283 9.19183C32.1031 9.19183 32.0016 9.29332 32.0016 9.41852C32.0016 9.54371 32.1031 9.6452 32.2283 9.6452Z" fill="white"/>
<path d="M29.8716 8.35879C29.9967 8.35879 30.0982 8.2573 30.0982 8.13211C30.0982 8.00691 29.9967 7.90543 29.8716 7.90543C29.7464 7.90543 29.6449 8.00691 29.6449 8.13211C29.6449 8.2573 29.7464 8.35879 29.8716 8.35879Z" fill="white"/>
<path d="M25.8349 10.1078C25.9601 10.1078 26.0616 10.0063 26.0616 9.8811C26.0616 9.75591 25.9601 9.65442 25.8349 9.65442C25.7097 9.65442 25.6083 9.75591 25.6083 9.8811C25.6083 10.0063 25.7097 10.1078 25.8349 10.1078Z" fill="white"/>
<path d="M43.6365 47.5933C43.7617 47.5933 43.8632 47.4918 43.8632 47.3666C43.8632 47.2414 43.7617 47.1399 43.6365 47.1399C43.5113 47.1399 43.4098 47.2414 43.4098 47.3666C43.4098 47.4918 43.5113 47.5933 43.6365 47.5933Z" fill="white"/>
<path d="M13.5233 41.988C13.6488 41.988 13.7506 41.8862 13.7506 41.7607C13.7506 41.6351 13.6488 41.5333 13.5233 41.5333C13.3977 41.5333 13.2959 41.6351 13.2959 41.7607C13.2959 41.8862 13.3977 41.988 13.5233 41.988Z" fill="white"/>
<path d="M29.3065 44.9354C29.432 44.9354 29.5338 44.8336 29.5338 44.7081C29.5338 44.5825 29.432 44.4807 29.3065 44.4807C29.1809 44.4807 29.0791 44.5825 29.0791 44.7081C29.0791 44.8336 29.1809 44.9354 29.3065 44.9354Z" fill="white"/>
<path d="M18.2206 41.805C18.3461 41.805 18.4479 41.7032 18.4479 41.5777C18.4479 41.4521 18.3461 41.3503 18.2206 41.3503C18.095 41.3503 17.9932 41.4521 17.9932 41.5777C17.9932 41.7032 18.095 41.805 18.2206 41.805Z" fill="white"/>
<path d="M20.1837 45.0324C20.3092 45.0324 20.411 44.9306 20.411 44.8051C20.411 44.6795 20.3092 44.5777 20.1837 44.5777C20.0581 44.5777 19.9563 44.6795 19.9563 44.8051C19.9563 44.9306 20.0581 45.0324 20.1837 45.0324Z" fill="white"/>
<path d="M34.6348 42.999C34.76 42.999 34.8615 42.8975 34.8615 42.7723C34.8615 42.6471 34.76 42.5456 34.6348 42.5456C34.5096 42.5456 34.4081 42.6471 34.4081 42.7723C34.4081 42.8975 34.5096 42.999 34.6348 42.999Z" fill="white"/>
<path d="M42.6017 38.4703C42.7269 38.4703 42.8284 38.3688 42.8284 38.2436C42.8284 38.1184 42.7269 38.0169 42.6017 38.0169C42.4765 38.0169 42.375 38.1184 42.375 38.2436C42.375 38.3688 42.4765 38.4703 42.6017 38.4703Z" fill="white"/>
<path d="M48.6418 41.2499C48.767 41.2499 48.8685 41.1484 48.8685 41.0232C48.8685 40.898 48.767 40.7965 48.6418 40.7965C48.5166 40.7965 48.4151 40.898 48.4151 41.0232C48.4151 41.1484 48.5166 41.2499 48.6418 41.2499Z" fill="white"/>
<path d="M50.7005 42.5767C50.8257 42.5767 50.9272 42.4752 50.9272 42.35C50.9272 42.2248 50.8257 42.1234 50.7005 42.1234C50.5753 42.1234 50.4739 42.2248 50.4739 42.35C50.4739 42.4752 50.5753 42.5767 50.7005 42.5767Z" fill="white"/>
<path d="M51.0389 38.9584C51.1641 38.9584 51.2656 38.8569 51.2656 38.7317C51.2656 38.6066 51.1641 38.5051 51.0389 38.5051C50.9137 38.5051 50.8122 38.6066 50.8122 38.7317C50.8122 38.8569 50.9137 38.9584 51.0389 38.9584Z" fill="white"/>
<path d="M21.0058 33.8357C21.131 33.8357 21.2325 33.7342 21.2325 33.609C21.2325 33.4838 21.131 33.3823 21.0058 33.3823C20.8806 33.3823 20.7791 33.4838 20.7791 33.609C20.7791 33.7342 20.8806 33.8357 21.0058 33.8357Z" fill="white"/>
<path d="M21.0919 39.16C21.2591 39.16 21.3946 39.0235 21.3946 38.8552C21.3946 38.6868 21.2591 38.5503 21.0919 38.5503C20.9248 38.5503 20.7892 38.6868 20.7892 38.8552C20.7892 39.0235 20.9248 39.16 21.0919 39.16Z" fill="white"/>
<path d="M22.9084 43.0227C23.0755 43.0227 23.2111 42.8862 23.2111 42.7178C23.2111 42.5495 23.0755 42.413 22.9084 42.413C22.7412 42.413 22.6057 42.5495 22.6057 42.7178C22.6057 42.8862 22.7412 43.0227 22.9084 43.0227Z" fill="white"/>
<path d="M44.6658 38.9976C44.833 38.9976 44.9685 38.8611 44.9685 38.6927C44.9685 38.5243 44.833 38.3878 44.6658 38.3878C44.4986 38.3878 44.3631 38.5243 44.3631 38.6927C44.3631 38.8611 44.4986 38.9976 44.6658 38.9976Z" fill="white"/>
<path d="M52.4968 38.5503C52.664 38.5503 52.7995 38.4138 52.7995 38.2454C52.7995 38.077 52.664 37.9405 52.4968 37.9405C52.3297 37.9405 52.1941 38.077 52.1941 38.2454C52.1941 38.4138 52.3297 38.5503 52.4968 38.5503Z" fill="white"/>
<path d="M48.6217 36.8833C48.7888 36.8833 48.9244 36.7468 48.9244 36.5785C48.9244 36.4101 48.7888 36.2736 48.6217 36.2736C48.4545 36.2736 48.319 36.4101 48.319 36.5785C48.319 36.7468 48.4545 36.8833 48.6217 36.8833Z" fill="white"/>
<path d="M44.6658 37.0462C44.833 37.0462 44.9685 36.9097 44.9685 36.7413C44.9685 36.573 44.833 36.4365 44.6658 36.4365C44.4986 36.4365 44.3631 36.573 44.3631 36.7413C44.3631 36.9097 44.4986 37.0462 44.6658 37.0462Z" fill="white"/>
<path d="M36.5055 5.63062L37.2582 5.55813L36.5069 5.51545C36.4833 5.36911 36.367 5.25461 36.2203 5.23565L36.1484 4.48093L36.1053 5.24174C35.9694 5.27223 35.8652 5.38672 35.8484 5.529L35.0788 5.59945L35.8537 5.64146C35.882 5.77221 35.9869 5.87451 36.1188 5.8989L36.1887 6.67666L36.2297 5.90026C36.369 5.87655 36.4793 5.76883 36.5055 5.63062Z" fill="white"/>
<path d="M23.7996 14.0723L24.5523 13.9998L23.801 13.9572C23.7781 13.8108 23.6611 13.6963 23.5144 13.6774L23.4424 12.9226L23.4001 13.6835C23.2635 13.7139 23.1593 13.8284 23.1424 13.9707L22.3729 14.0412L23.1478 14.0832C23.1761 14.2139 23.281 14.3162 23.4129 14.3406L23.4828 15.1184L23.5245 14.342C23.6637 14.3189 23.7741 14.2105 23.7996 14.0723Z" fill="white"/>
<path d="M51.945 36.3913L52.6976 36.3188L51.9463 36.2762C51.9234 36.1298 51.8064 36.0153 51.6598 35.9964L51.5878 35.2416L51.5454 36.0025C51.4095 36.0329 51.3053 36.1474 51.2885 36.2897L50.5189 36.3602L51.2938 36.4022C51.3221 36.5329 51.427 36.6352 51.5589 36.6596L51.6288 37.4374L51.6705 36.661C51.8084 36.6379 51.9187 36.5302 51.945 36.3913Z" fill="white"/>
<path d="M21.2565 48.0612L22.0092 47.9888L21.2579 47.9461C21.2343 47.7997 21.118 47.6852 20.9713 47.6663L20.8994 46.9122L20.857 47.6724C20.7204 47.7029 20.6162 47.8173 20.5994 47.9596L19.8298 48.0301L20.6047 48.0721C20.633 48.2028 20.7379 48.3058 20.8698 48.3295L20.9397 49.1073L20.9814 48.3309C21.12 48.3079 21.231 48.1995 21.2565 48.0612Z" fill="white"/>
<path d="M49.5532 42.3691L50.3059 42.2966L49.5546 42.2539C49.5317 42.1075 49.4147 41.993 49.268 41.9741L49.1961 41.2194L49.1537 41.9795C49.0178 42.01 48.9135 42.1245 48.8967 42.2668L48.1272 42.3372L48.9021 42.3792C48.9304 42.51 49.0353 42.6123 49.1671 42.6367L49.2371 43.4144L49.2788 42.638C49.4167 42.6157 49.5277 42.5073 49.5532 42.3691Z" fill="white"/>
<path d="M37.083 21.2815C33.9432 22.5107 30.8808 23.6078 28.2967 24.4222C23.0457 26.0783 8.67872 30.5614 0 36.2126L0.726591 36.4972C6.01456 33.4887 9.45173 32.5434 12.7557 31.4965C16.3483 30.3581 27.9623 27.6206 33.2213 26.1298C34.9981 25.6264 37.079 24.967 39.283 24.1648C38.7703 23.4445 38.2294 22.7221 37.6603 22.0011C37.4699 21.7579 37.2768 21.518 37.083 21.2815ZM40.9192 26.6069C40.1589 27.1239 39.5218 27.5365 39.0758 27.7967C36.4923 29.301 23.8974 37.9609 21.0321 39.953C18.1668 41.9452 10.214 49.5073 7.87274 51.7028L7.79201 52.5966C15.3405 45.7663 17.7086 44.0817 20.7092 41.7826C24.4229 38.9366 32.1052 33.6716 34.7162 31.9844C37.2122 30.3717 39.4633 28.8884 41.4836 27.5311C41.4507 27.4756 41.4177 27.42 41.3847 27.3637C41.2327 27.1124 41.0773 26.8603 40.9192 26.6069ZM52.7189 14.0548C49.0415 16.2259 43.2456 18.8462 37.6226 21.0694C37.7571 21.2354 37.891 21.4028 38.0242 21.5715C38.6526 22.3684 39.2453 23.1707 39.803 23.9737C44.2231 22.3339 49.0731 20.133 52.9214 17.4693C51.0881 19.2189 45.0271 23.7812 41.3316 26.3243C41.522 26.6367 41.7063 26.9491 41.8846 27.2601C47.4834 23.4865 51.2509 20.7089 53.4461 18.8516C56.4736 16.2903 63.3762 10.5577 66 2.8736C61.3976 8.76947 55.9562 12.1433 52.7189 14.0548Z" fill="#FC3D21"/>
<path d="M27.2041 34.5315C26.6087 33.7767 25.7853 32.7657 25.167 31.9817C24.3401 30.9334 23.5752 29.8743 22.8742 28.8166C22.6454 28.8742 22.4174 28.9318 22.1893 28.9894C23.0356 30.3195 23.9755 31.6476 24.9995 32.9459C25.7476 33.8946 26.4277 34.6583 26.7762 35.1333C26.8469 35.2295 26.9868 35.4423 27.1759 35.7255C27.3938 35.5764 27.6138 35.426 27.8359 35.2742C27.6212 35.0391 27.4093 34.7917 27.2041 34.5315ZM31.5502 38.505C31.0611 38.0389 29.875 37.2603 28.6405 36.0921C28.368 36.2805 28.0928 36.4715 27.817 36.664C28.6142 37.7956 29.7001 39.1854 30.5505 39.5906C31.8314 40.2018 32.1766 39.1027 31.5502 38.505ZM38.0243 21.5716C30.9656 12.6231 22.3427 7.70702 18.625 10.6824C15.7374 12.9931 16.9229 19.7461 20.903 26.84C21.1088 26.7689 21.3127 26.6991 21.5145 26.6299C17.4974 19.7183 16.3981 13.2953 19.1215 11.1154C22.5438 8.3765 30.8075 13.3115 37.6616 22.0005C39.0805 23.7989 40.3278 25.604 41.3841 27.3638C45.4288 34.106 46.67 40.2031 43.8753 42.692C43.0203 43.4536 40.4072 43.7525 36.9842 42.2007C36.9364 42.261 37.0131 42.4243 37.073 42.4643C40.0278 43.661 42.8581 44.117 44.2871 42.9739C47.7209 40.2255 45.083 30.5201 38.0243 21.5716Z" fill="white"/>
<path d="M7.75097 22.6334H12.272L16.0664 29.1181C16.0664 29.1181 16.0664 24.4223 16.0664 24.0564C16.0664 23.4872 15.3499 22.7452 15.0976 22.6334C15.4004 22.6334 18.0443 22.6334 18.226 22.6334C18.0342 22.6842 17.4187 23.4364 17.4187 24.0564C17.4187 24.3613 17.4187 31.1713 17.4187 31.4965C17.4187 31.9539 18.0746 32.5841 18.3874 32.8281H14.0279L10.1729 26.3128C10.1729 26.3128 10.1729 31.1713 10.1729 31.4356C10.1729 31.9438 10.6674 32.4317 11.1821 32.8484H7.85188C8.32619 32.6451 8.78031 32.0048 8.82067 31.4965C8.86104 30.9883 8.82067 24.4325 8.82067 24.1479C8.82067 23.5279 8.22527 23.0197 7.75097 22.6334Z" fill="white"/>
<path d="M49.1061 32.8281H55.1207C54.7877 32.7467 54.4143 32.3503 54.2124 31.8218C54.0106 31.2933 50.8217 22.6334 50.8217 22.6334H48.5349C47.8864 23.1037 47.1914 23.5997 46.4494 24.1221C46.4473 24.1411 46.4453 24.1601 46.442 24.1784C46.3424 24.7882 44.5528 31.3163 44.4438 31.6388C44.2925 32.0861 43.5154 32.5841 43.2026 32.8484H46.442C46.119 32.4825 45.8567 32.1267 45.9172 31.7202C45.9778 31.3136 46.1594 30.5005 46.1594 30.5005H49.5098C49.6612 30.907 49.7742 31.2723 49.8327 31.6185C49.9034 32.0352 49.4795 32.5028 49.1061 32.8281ZM46.4622 29.1995L47.5924 25.4794L49.0859 29.1995H46.4622ZM45.9529 23.0048C46.119 22.8814 46.2859 22.7574 46.4521 22.6334H45.5741C45.6616 22.7147 45.8062 22.8428 45.9529 23.0048Z" fill="white"/>
<path d="M22.9489 31.7202C23.0094 31.3136 23.1911 30.5005 23.1911 30.5005H26.5414C26.6928 30.907 26.8058 31.2723 26.8644 31.6185C26.935 32.0352 26.5112 32.5028 26.1378 32.8281H31.4331C31.5435 32.7535 31.6531 32.679 31.7628 32.6051C31.5576 32.4222 31.3686 32.1477 31.2441 31.8218C31.0423 31.2933 27.8533 22.6334 27.8533 22.6334H22.6057C22.858 22.8672 23.5846 23.4974 23.4736 24.1784C23.3747 24.7882 21.5845 31.3163 21.4755 31.6388C21.3241 32.0861 20.5471 32.5841 20.2342 32.8484H23.4736C23.1507 32.4825 22.8883 32.1267 22.9489 31.7202ZM24.624 25.4794L26.1176 29.1995H23.4938L24.624 25.4794Z" fill="white"/>
<path d="M41.2408 27.694C40.2532 28.3567 39.211 29.0485 38.1131 29.7709C38.6055 30.0114 38.9978 30.3136 39.0354 30.7039C39.1054 31.4371 37.6428 31.7915 36.3208 31.639C36.0564 31.6085 35.7967 31.5387 35.5492 31.4452C35.2747 31.6234 34.9975 31.803 34.7163 31.9846C34.4303 32.1696 34.0832 32.3973 33.6869 32.6602V33.7125C33.9493 33.1941 34.5232 32.73 34.9686 32.7063C35.1603 32.6961 35.8263 33.3161 38.5712 33.1637C39.9033 33.0898 42.4767 31.6594 42.4363 30.0128C42.4121 29.0397 41.9075 28.2808 41.2408 27.694ZM33.6863 30.2364V31.3084C33.9291 31.1451 34.1686 30.9845 34.4034 30.8279C34.0341 30.5691 33.7724 30.3272 33.6863 30.2364ZM40.3023 27.0211C40.0466 26.8687 39.7876 26.7352 39.5394 26.6173C38.2476 26.0074 36.8954 25.8956 36.6128 25.0723C36.4137 24.4916 36.9761 23.9543 38.3486 23.9746C39.721 23.9949 40.9925 24.8182 41.3356 25.113V22.4906C41.2347 22.5923 40.792 23.1039 40.387 23.0192C39.61 22.8565 38.288 22.6444 36.7743 22.6533C35.0385 22.6634 33.545 24.0146 33.4945 25.7228C33.4239 28.1114 35.3211 28.7619 36.3908 29.138C36.5011 29.1766 36.6269 29.2179 36.7635 29.262C37.7895 28.5898 38.6008 28.0721 39.0758 27.7963C39.3947 27.6113 39.8125 27.3457 40.3023 27.0211Z" fill="white"/>
</svg>
