<svg width="30" height="30" viewBox="0 0 30 30" fill="none" xmlns="http://www.w3.org/2000/svg">
<g filter="url(#filter0_b_771_9376)">
<path d="M12.4779 14.854C9.90973 14.854 9.82609 10.0404 9.82609 9.96078C9.82609 9.76021 9.76104 9.56259 9.64022 9.40037C9.5194 9.23519 9.34592 9.11131 9.14766 9.04347C8.95249 8.97563 8.73874 8.96384 8.53737 9.01398C8.33601 9.06412 8.15324 9.1703 8.01693 9.31778C6.72201 10.8073 5.80194 12.5623 5.33416 14.4441C3.84408 21.5672 7.71953 24.8942 9.44505 25.9974C10.9692 26.956 12.7567 27.4633 14.5844 27.4544C17.2641 27.4544 19.8415 26.4693 21.7777 24.7055C23.1996 23.3929 24.2065 21.7294 24.6866 19.8977C25.1668 18.0661 25.0925 16.1459 24.4822 14.3526C23.7821 12.459 22.5739 10.7748 20.9785 9.45936C18.8905 7.76928 17.5367 5.40376 17.1774 2.81702C17.1464 2.63415 17.0627 2.46603 16.9357 2.3274C16.8087 2.18877 16.6414 2.08849 16.4587 2.03539C16.279 1.9882 16.0869 1.9882 15.9041 2.03539C15.7245 2.08259 15.5603 2.17697 15.4302 2.3097C15.3155 2.42768 12.6452 5.24448 13.9618 10.2233C14.4667 12.1316 14.4141 13.5798 13.8286 14.3025C13.4909 14.6771 12.9921 14.8806 12.4779 14.854Z" fill="#9E7A5A"/>
<path d="M9.44505 25.9974C10.9692 26.956 12.7567 27.4633 14.5844 27.4544C17.2641 27.4544 19.8415 26.4693 21.7777 24.7055M9.44505 25.9974L9.71437 25.5761C9.71384 25.5758 9.7133 25.5754 9.71276 25.5751M9.44505 25.9974C7.71953 24.8942 3.84408 21.5672 5.33416 14.4441M9.44505 25.9974L9.71125 25.5741C9.71175 25.5744 9.71226 25.5747 9.71276 25.5751M9.71276 25.5751C11.155 26.4817 12.8485 26.9628 14.582 26.9544L14.5844 26.9544C17.1422 26.9544 19.5982 26.0141 21.4398 24.3369M9.71276 25.5751C8.89554 25.0524 7.56908 24.0021 6.62432 22.2418C5.68522 20.492 5.10245 18.003 5.82165 14.5556M21.4398 24.3369C21.4394 24.3373 21.439 24.3377 21.4386 24.3381L21.7777 24.7055M21.4398 24.3369C21.4402 24.3366 21.4406 24.3362 21.441 24.3358L21.7777 24.7055M21.4398 24.3369C22.7926 23.0878 23.7477 21.5075 24.203 19.7709C24.6575 18.0373 24.588 16.2196 24.0109 14.5199M21.7777 24.7055C23.1996 23.3929 24.2065 21.7294 24.6866 19.8977C25.1668 18.0661 25.0925 16.1459 24.4822 14.3526M24.4822 14.3526L24.0132 14.526C24.0124 14.524 24.0117 14.5219 24.0109 14.5199M24.4822 14.3526C23.7821 12.459 22.5739 10.7748 20.9785 9.45936C18.8905 7.76928 17.5367 5.40376 17.1774 2.81702M24.4822 14.3526L24.0088 14.5137C24.0095 14.5158 24.0102 14.5178 24.0109 14.5199M24.0109 14.5199C23.3423 12.7149 22.1889 11.1059 20.6621 9.84656M17.1774 2.81702L16.6844 2.90053C16.6841 2.89856 16.6837 2.8966 16.6834 2.89464M17.1774 2.81702C17.1464 2.63415 17.0627 2.46603 16.9357 2.3274C16.8087 2.18877 16.6414 2.08849 16.4587 2.03539M17.1774 2.81702L16.6821 2.88582C16.6825 2.88876 16.6829 2.8917 16.6834 2.89464M20.6621 9.84656C20.6627 9.84704 20.6633 9.84752 20.6639 9.848L20.9784 9.45939L20.6604 9.84513C20.661 9.84561 20.6615 9.84608 20.6621 9.84656ZM20.6621 9.84656C18.482 8.0812 17.0625 5.6068 16.6834 2.89464M16.6834 2.89464C16.6682 2.81195 16.6297 2.73349 16.5671 2.66517C16.5074 2.60002 16.4236 2.54708 16.3254 2.5174M16.4587 2.03539L16.3316 2.51899C16.3296 2.51845 16.3275 2.51792 16.3254 2.5174M16.4587 2.03539C16.279 1.9882 16.0869 1.9882 15.9041 2.03539M16.4587 2.03539L16.3192 2.51555C16.3213 2.51615 16.3234 2.51677 16.3254 2.5174M16.3254 2.5174C16.2317 2.49392 16.1291 2.49388 16.0302 2.51926M15.9041 2.03539L16.0312 2.51899C16.0308 2.51908 16.0305 2.51917 16.0302 2.51926M15.9041 2.03539C15.7245 2.08259 15.5603 2.17697 15.4302 2.3097M15.9041 2.03539L16.0291 2.51952C16.0295 2.51943 16.0298 2.51934 16.0302 2.51926M16.0302 2.51926C15.9371 2.54388 15.8535 2.5924 15.788 2.65889M15.4302 2.3097L15.7888 2.65811C15.7886 2.65834 15.7883 2.6586 15.788 2.65889M15.4302 2.3097C15.3155 2.42768 12.6452 5.24448 13.9618 10.2233M15.4302 2.3097L15.7872 2.65972C15.7875 2.65944 15.7878 2.65917 15.788 2.65889M15.788 2.65889C15.7119 2.73762 13.1979 5.37862 14.4451 10.0954M13.9618 10.2233L14.4451 10.0954M13.9618 10.2233C14.4667 12.1316 14.4141 13.5798 13.8286 14.3025C13.4909 14.6771 12.9921 14.8806 12.4779 14.854M13.9618 10.2233L14.4451 10.0955C14.4451 10.0954 14.4451 10.0954 14.4451 10.0954M14.4451 10.0954C14.7057 11.0801 14.8292 11.97 14.8038 12.7243C14.7787 13.471 14.6055 14.1378 14.217 14.6172L14.2088 14.6275L14.1999 14.6373C13.7618 15.1233 13.1214 15.3841 12.4651 15.354M12.4651 15.354C12.4694 15.354 12.4736 15.354 12.4779 15.354V14.854M12.4651 15.354C12.4608 15.3538 12.4564 15.3536 12.4521 15.3534L12.4779 14.854M12.4651 15.354C11.6476 15.3499 11.0323 14.9559 10.5926 14.4166C10.1619 13.8885 9.88721 13.21 9.70767 12.5729C9.34787 11.2961 9.32609 10.0208 9.32609 9.96078C9.32609 9.86754 9.29559 9.77472 9.23921 9.69902L9.23664 9.69557L9.23666 9.69556C9.18005 9.61816 9.09338 9.55336 8.98579 9.51655L8.98349 9.51576C8.87685 9.47869 8.76209 9.47329 8.65819 9.49916C8.5493 9.52628 8.45528 9.58213 8.38844 9.65254M12.4779 14.854C9.90973 14.854 9.82609 10.0404 9.82609 9.96078C9.82609 9.76021 9.76104 9.56259 9.64022 9.40037C9.5194 9.23519 9.34592 9.11131 9.14766 9.04347C8.95249 8.97563 8.73874 8.96384 8.53737 9.01398C8.33601 9.06412 8.15324 9.1703 8.01693 9.31778M8.38844 9.65254C8.39038 9.6503 8.39233 9.64806 8.39427 9.64582L8.01693 9.31778M8.38844 9.65254C7.14931 11.08 6.26992 12.7585 5.82165 14.5556M8.38844 9.65254C8.38698 9.65407 8.38554 9.65561 8.38411 9.65715L8.01693 9.31778M8.01693 9.31778C6.72201 10.8073 5.80194 12.5623 5.33416 14.4441M5.33416 14.4441L5.8194 14.5647C5.82015 14.5617 5.8209 14.5587 5.82165 14.5556M5.33416 14.4441L5.82357 14.5464C5.82293 14.5495 5.82229 14.5526 5.82165 14.5556" stroke="white"/>
</g>
<defs>
<filter id="filter0_b_771_9376" x="3.34711" y="0.347107" width="23.3058" height="28.7603" filterUnits="userSpaceOnUse" color-interpolation-filters="sRGB">
<feFlood flood-opacity="0" result="BackgroundImageFix"/>
<feGaussianBlur in="BackgroundImageFix" stdDeviation="0.826446"/>
<feComposite in2="SourceAlpha" operator="in" result="effect1_backgroundBlur_771_9376"/>
<feBlend mode="normal" in="SourceGraphic" in2="effect1_backgroundBlur_771_9376" result="shape"/>
</filter>
</defs>
</svg>
