<svg width="20" height="20" viewBox="0 0 20 20" fill="none" xmlns="http://www.w3.org/2000/svg">
<path d="M15.1719 7.12666L15.1712 7.12601L14.4641 7.83311L11.5809 10.7163L10.9621 11.3351L10.9602 11.3332L10.2526 12.0407L9.86583 12.4275L9.37669 12.9166L9.66188 13.5469C10.4018 15.182 10.4312 17.0553 9.74145 18.6985L5.96292 14.92L5.78709 14.7442L5.25581 14.2129L5.07999 14.0371L1.30146 10.2585C2.94466 9.56879 4.818 9.5982 6.45314 10.3381L7.08337 10.6233L7.57251 10.1342L7.95538 9.7513L8.66205 9.04464L8.66009 9.04268L9.28368 8.41909L12.1669 5.53589L12.7881 4.91469L12.7888 4.91543L13.4959 4.20684L15.3626 2.33623C15.3627 2.33617 15.3628 2.3361 15.3628 2.33604C15.4841 2.21497 15.6829 2.21504 15.8041 2.33623L17.6599 4.19195C17.7811 4.31322 17.7811 4.5122 17.6599 4.63346L17.6591 4.6342L15.7917 6.50555L15.1719 7.12666ZM3.4175 16.4052L3.55718 16.4428L3.59479 16.5825C3.60012 16.6023 3.60525 16.6204 3.60958 16.6356L3.6157 16.6568L3.61941 16.6697C3.59954 16.7883 3.49749 16.8774 3.37275 16.8774C3.23353 16.8774 3.12258 16.7665 3.12258 16.6273C3.12258 16.5025 3.21166 16.4005 3.33034 16.3806L3.34319 16.3843L3.36444 16.3904C3.37955 16.3948 3.3977 16.3999 3.4175 16.4052Z" stroke="#4F4F4F" stroke-width="2"/>
</svg>
