<svg width="22" height="23" viewBox="0 0 22 23" fill="none" xmlns="http://www.w3.org/2000/svg">
<path d="M18.5986 3.30733C16.5527 1.24886 13.8281 0.116699 10.9326 0.116699C4.95605 0.116699 0.0927734 4.99821 0.0927734 10.9972C0.0927734 12.9135 0.59082 14.7858 1.53809 16.4374L0 22.0737L5.74707 20.5593C7.3291 21.4268 9.11133 21.8826 10.9277 21.8826H10.9326C16.9043 21.8826 21.875 17.0011 21.875 11.0021C21.875 8.09572 20.6445 5.3658 18.5986 3.30733ZM10.9326 20.0496C9.31152 20.0496 7.72461 19.6134 6.34277 18.79L6.01562 18.5939L2.60742 19.4908L3.51562 16.1532L3.30078 15.8101C2.39746 14.3692 1.92383 12.7077 1.92383 10.9972C1.92383 6.01275 5.9668 1.95462 10.9375 1.95462C13.3447 1.95462 15.6055 2.89563 17.3047 4.60612C19.0039 6.31662 20.0488 8.58583 20.0439 11.0021C20.0439 15.9914 15.8984 20.0496 10.9326 20.0496ZM15.874 13.2762C15.6055 13.139 14.2725 12.4822 14.0234 12.394C13.7744 12.3009 13.5938 12.2568 13.4131 12.5312C13.2324 12.8057 12.7148 13.4134 12.5537 13.5997C12.3975 13.781 12.2363 13.8055 11.9678 13.6683C10.376 12.8694 9.33105 12.2421 8.28125 10.4336C8.00293 9.95325 8.55957 9.98755 9.07715 8.94852C9.16504 8.76718 9.12109 8.61034 9.05273 8.47311C8.98438 8.33588 8.44238 6.99787 8.21777 6.45385C7.99805 5.92453 7.77344 5.99804 7.60742 5.98824C7.45117 5.97844 7.27051 5.97844 7.08984 5.97844C6.90918 5.97844 6.61621 6.04705 6.36719 6.31662C6.11816 6.59108 5.41992 7.24783 5.41992 8.58583C5.41992 9.92384 6.3916 11.2177 6.52344 11.3991C6.66016 11.5804 8.43262 14.325 11.1523 15.5062C12.8711 16.2512 13.5449 16.3149 14.4043 16.1875C14.9268 16.1091 16.0059 15.5307 16.2305 14.8936C16.4551 14.2564 16.4551 13.7124 16.3867 13.5997C16.3232 13.4772 16.1426 13.4085 15.874 13.2762Z" fill="#4F4F4F"/>
</svg>
